<svg width="64" height="64" viewBox="0 0 64 64" fill="none" xmlns="http://www.w3.org/2000/svg">
<circle cx="32" cy="32" r="32" fill="#D66D4C"/>
<g clip-path="url(#clip0)">
<path d="M40.1706 40.1709C38.5626 40.1709 37.2534 41.4801 37.2534 43.088C37.2534 44.696 38.5626 46.0052 40.1706 46.0052C41.7785 46.0052 43.0877 44.696 43.0877 43.088C43.0877 41.4801 41.7785 40.1709 40.1706 40.1709ZM40.1706 44.8383C39.2055 44.8383 38.4203 44.0531 38.4203 43.088C38.4203 42.123 39.2055 41.3377 40.1706 41.3377C41.1356 41.3377 41.9209 42.123 41.9209 43.088C41.9209 44.0531 41.1355 44.8383 40.1706 44.8383Z" fill="white"/>
<path d="M28.502 40.1709C26.8941 40.1709 25.5848 41.4801 25.5848 43.088C25.5848 44.696 26.8941 46.0052 28.502 46.0052C30.1099 46.0052 31.4191 44.696 31.4191 43.088C31.4191 41.4801 30.1099 40.1709 28.502 40.1709ZM28.502 44.8383C27.537 44.8383 26.7517 44.0531 26.7517 43.088C26.7517 42.123 27.537 41.3377 28.502 41.3377C29.467 41.3377 30.2523 42.123 30.2523 43.088C30.2523 44.0531 29.467 44.8383 28.502 44.8383Z" fill="white"/>
<path d="M42.5043 37.8369H29.0375C27.6513 37.8369 26.4494 36.8509 26.1776 35.4915L23.2394 20.8031C23.1845 20.53 22.9454 20.334 22.6677 20.334H19.1671C18.845 20.334 18.5836 20.5954 18.5836 20.9174C18.5836 21.2395 18.845 21.5009 19.1671 21.5009H22.1892L25.0329 35.7214C25.4133 37.6234 27.0971 39.0038 29.0375 39.0038H42.5043C42.8264 39.0038 43.0878 38.7424 43.0878 38.4204C43.0878 38.0983 42.8264 37.8369 42.5043 37.8369Z" fill="white"/>
<path d="M45.2757 24.0317C45.1648 23.9068 45.0061 23.8345 44.8381 23.8345H23.8345C23.5125 23.8345 23.2511 24.0959 23.2511 24.4179C23.2511 24.74 23.5125 25.0014 23.8345 25.0014H44.1776L43.348 31.6361C43.2383 32.5101 42.4915 33.1694 41.6106 33.1694H25.5848C25.2628 33.1694 25.0014 33.4308 25.0014 33.7529C25.0014 34.0749 25.2628 34.3363 25.5848 34.3363H41.6106C43.0784 34.3363 44.3235 33.2383 44.5055 31.7809L45.4168 24.4903C45.4378 24.3246 45.3865 24.1565 45.2757 24.0317Z" fill="white"/>
<path d="M34.7481 24.005L28.9138 18.1707C28.6863 17.9431 28.3164 17.9431 28.0888 18.1707L24.5883 21.6712C24.3607 21.8988 24.3607 22.2687 24.5883 22.4962L26.922 24.83C27.1495 25.0575 27.5195 25.0575 27.747 24.83C27.9745 24.6024 27.9745 24.2325 27.747 24.005L25.8263 22.0843L28.5019 19.4087L33.9232 24.8311C34.0376 24.9443 34.1869 25.0015 34.3363 25.0015C34.4856 25.0015 34.635 24.9444 34.7482 24.83C34.9757 24.6024 34.9757 24.2325 34.7481 24.005Z" fill="white"/>
<path d="M37.8368 18H33.1694C32.8473 18 32.5859 18.2614 32.5859 18.5835V23.2509C32.5859 23.5729 32.8473 23.8343 33.1694 23.8343C33.4914 23.8343 33.7528 23.5729 33.7528 23.2509V19.1669H37.2534V24.4178C37.2534 24.7398 37.5148 25.0012 37.8369 25.0012C38.1589 25.0012 38.4203 24.7398 38.4203 24.4178V18.5835C38.4203 18.2614 38.1589 18 37.8368 18Z" fill="white"/>
<path d="M43.3748 18.8789C42.2057 17.7097 40.3037 17.7097 39.1345 18.8789L37.425 20.5883C37.1975 20.8158 37.1975 21.1857 37.425 21.4133C37.6526 21.6408 38.0225 21.6408 38.25 21.4133L39.9595 19.7038C40.6736 18.9909 41.8358 18.9909 42.5511 19.7062C42.8976 20.0528 43.0878 20.5113 43.0878 21.0014C43.0878 21.4915 42.8976 21.9512 42.5511 22.2966L40.8416 24.0061C40.6141 24.2336 40.6141 24.6035 40.8416 24.8311C40.956 24.9442 41.1053 25.0014 41.2547 25.0014C41.4041 25.0014 41.5534 24.9443 41.6666 24.8299L43.3761 23.1205C43.942 22.5545 44.2547 21.8008 44.2547 21.0003C44.2546 20.1998 43.9419 19.4472 43.3748 18.8789Z" fill="white"/>
</g>
<defs>
<clipPath id="clip0">
<rect width="28.005" height="28.005" fill="white" transform="translate(18 18)"/>
</clipPath>
</defs>
</svg>
