<svg width="64" height="64" viewBox="0 0 64 64" fill="none" xmlns="http://www.w3.org/2000/svg">
<circle cx="32" cy="32" r="32" fill="#A260B7"/>
<g clip-path="url(#clip0)">
<path d="M46.3323 48H23.9322C22.5483 47.9956 21.3986 46.9314 21.2874 45.552C20.5878 45.1848 20.0875 44.5257 19.9221 43.753L17.0581 30.1866C16.9104 29.4948 17.0441 28.7726 17.4296 28.1795C17.8151 27.5864 18.4208 27.171 19.113 27.025L29.3531 24.8645L28.7131 24.2165C28.2358 23.7309 28.0734 23.0176 28.2933 22.3733C28.4895 21.7553 29.0178 21.3012 29.6581 21.2L33.1493 20.6725C33.3617 20.6361 33.5418 20.4961 33.6293 20.2992L35.2032 16.9872C35.4747 16.3862 36.0729 16 36.7323 16C37.3917 16 37.9899 16.3862 38.2614 16.9871L39.8352 20.3018C39.9227 20.4986 40.1029 20.6388 40.3152 20.6751L43.8064 21.2025C44.4468 21.3038 44.9751 21.758 45.1713 22.3758C45.3912 23.0202 45.2288 23.7335 44.7515 24.219L44.2513 24.7262L45.111 28.7999H46.3323C47.8043 28.8016 48.9972 29.9945 48.999 31.4666V45.3333C48.9973 46.8054 47.8044 47.9982 46.3323 48ZM23.9322 46.9333H46.3323C47.216 46.9333 47.9323 46.2169 47.9323 45.3333V44.2666H30.3755L23.0832 45.8069C22.9009 45.8457 22.7149 45.8654 22.5285 45.8656C22.4944 45.8656 22.4613 45.8581 22.4277 45.857C22.649 46.4995 23.2528 46.9314 23.9322 46.9333ZM22.8619 44.7637L44.7766 40.1343C45.1919 40.0475 45.5556 39.7989 45.7875 39.4435C46.0193 39.0881 46.1003 38.6551 46.0123 38.24L45.7926 37.1968L20.745 42.4885L20.9653 43.5334C21.15 44.3963 21.9985 44.9468 22.8619 44.7637ZM44.159 22.7092C44.0892 22.4722 43.8901 22.296 43.6464 22.2553L40.1552 21.7279C39.5927 21.6393 39.1114 21.2761 38.872 20.7593L37.2982 17.4441C37.2032 17.2155 36.9799 17.0665 36.7323 17.0665C36.4847 17.0665 36.2615 17.2155 36.1664 17.4441L34.5925 20.7593C34.3532 21.276 33.8718 21.6393 33.3093 21.7279L29.8181 22.2553C29.5744 22.296 29.3754 22.4722 29.3056 22.7092C29.2141 22.973 29.2788 23.2659 29.473 23.4665L31.9797 26.0047C32.382 26.4185 32.5626 26.9995 32.4656 27.5684L31.872 31.1701C31.8206 31.4436 31.931 31.7222 32.1557 31.8863C32.339 32.0216 32.5847 32.0364 32.7829 31.9242L35.9376 30.1999C36.4327 29.9286 37.0319 29.9286 37.5269 30.1999L40.6789 31.9242C40.8772 32.0362 41.1227 32.0214 41.3061 31.8863C41.5308 31.7222 41.6412 31.4435 41.5899 31.1701L40.9989 27.569C40.9026 26.9995 41.0841 26.4182 41.4875 26.0047L43.9915 23.4666C44.1857 23.2659 44.2505 22.9731 44.159 22.7092ZM42.2464 26.754C42.0827 26.9239 42.01 27.1617 42.0507 27.394L42.6443 30.9957C42.7643 31.6718 42.4847 32.3567 41.9259 32.7557C41.4101 33.1269 40.7267 33.1684 40.1697 32.8624L37.0155 31.1381C36.8392 31.0409 36.6254 31.0409 36.4492 31.1381L33.295 32.8624C32.7381 33.1688 32.0545 33.1272 31.5388 32.7557C30.9799 32.3567 30.7003 31.6718 30.8204 30.9957L31.414 27.3935C31.4548 27.1612 31.3821 26.9234 31.2183 26.7535L30.2433 25.7653L19.3318 28.0682C18.917 28.1559 18.554 28.4051 18.3232 28.7609C18.0924 29.1166 18.0128 29.5496 18.102 29.9642L20.5254 41.4432L45.5723 36.1515L43.3526 25.6335L42.2464 26.754ZM46.3323 29.8666H45.3361L46.726 36.4506V36.4533L47.0556 38.015C47.2033 38.7072 47.0694 39.4297 46.6836 40.023C46.2978 40.6164 45.6916 41.0318 44.9991 41.1777L35.4247 43.2H47.9323V31.4666C47.9323 30.5829 47.216 29.8666 46.3323 29.8666Z" fill="white"/>
<path d="M25.4659 33.8581L22.3331 34.52C21.9177 34.608 21.4844 34.5273 21.1286 34.2956C20.7728 34.0639 20.5237 33.7003 20.436 33.2848L19.9955 31.1979C19.9077 30.7826 19.9884 30.3496 20.22 29.9939C20.4515 29.6382 20.8149 29.3891 21.2302 29.3014L24.3609 28.6401C24.7762 28.5523 25.2094 28.6331 25.565 28.8648C25.9207 29.0965 26.1698 29.46 26.2574 29.8753L26.6979 31.9622C26.8805 32.8265 26.328 33.6753 25.4638 33.8582H25.4659V33.8581ZM25.6563 32.1824L25.2157 30.0955C25.1638 29.8488 24.9462 29.6721 24.6941 29.672C24.657 29.6722 24.62 29.6761 24.5837 29.6838L21.453 30.3451C21.3145 30.3743 21.1933 30.4573 21.116 30.576C21.0388 30.6946 21.0119 30.8391 21.0413 30.9776L21.4797 33.0667C21.5089 33.2052 21.5919 33.3265 21.7106 33.4037C21.8292 33.481 21.9737 33.5078 22.1122 33.4785L25.2429 32.8166C25.5309 32.7555 25.715 32.4726 25.6541 32.1846L25.6563 32.1824Z" fill="white"/>
<path d="M31.235 35.3654L21.8424 37.3494C21.5542 37.4104 21.2711 37.2262 21.2102 36.938C21.1492 36.6498 21.3334 36.3667 21.6216 36.3057L31.0142 34.3217C31.3023 34.2607 31.5855 34.445 31.6464 34.7332C31.7074 35.0214 31.5232 35.3045 31.235 35.3654Z" fill="white"/>
<path d="M22.0627 38.3929L26.7598 37.4003C27.048 37.3393 27.3311 37.5236 27.392 37.8118C27.453 38.1 27.2688 38.3831 26.9806 38.444L22.284 39.4366C22.2475 39.444 22.2103 39.4477 22.1731 39.4478C21.9005 39.4471 21.6723 39.2408 21.644 38.9697C21.6158 38.6985 21.7966 38.4497 22.0632 38.3928H22.0627V38.3929Z" fill="white"/>
</g>
<defs>
<clipPath id="clip0">
<rect width="32" height="32" fill="white" transform="matrix(-1 0 0 1 49 16)"/>
</clipPath>
</defs>
</svg>
