<svg width="64" height="64" viewBox="0 0 64 64" fill="none" xmlns="http://www.w3.org/2000/svg">
<circle cx="32" cy="32" r="32" fill="#4C70D6"/>
<g clip-path="url(#clip0)">
<path d="M34.3327 42.9997H28.9993C27.162 42.9997 25.666 41.5037 25.666 39.6663V36.9997C25.666 36.6317 25.9647 36.333 26.3327 36.333C26.7007 36.333 26.9993 36.6317 26.9993 36.9997V39.6663C26.9993 40.769 27.8967 41.6663 28.9993 41.6663H34.3327C34.7007 41.6663 34.9993 41.965 34.9993 42.333C34.9993 42.701 34.7007 42.9997 34.3327 42.9997Z" fill="white"/>
<path d="M29 29.6663H15.6667C15.2987 29.6663 15 29.3677 15 28.9997C15 28.6317 15.2987 28.333 15.6667 28.333H29C29.368 28.333 29.6667 28.6317 29.6667 28.9997C29.6667 29.3677 29.368 29.6663 29 29.6663Z" fill="white"/>
<path d="M36.3327 47C34.862 47 33.666 45.804 33.666 44.3333V20.3333C33.666 19.1867 34.402 18.172 35.4967 17.8067L43.4967 15.14C43.75 15.0493 44.0367 15 44.3327 15C45.8033 15 46.9993 16.196 46.9993 17.6667V41.6667C46.9993 42.812 46.2647 43.828 45.17 44.192L37.17 46.8587C36.9127 46.9507 36.626 47 36.3327 47V47ZM44.3327 16.3333C44.194 16.3333 44.0553 16.3573 43.9327 16.4L35.918 19.072C35.3673 19.2547 34.9993 19.7613 34.9993 20.3333V44.3333C34.9993 45.068 35.598 45.6667 36.3327 45.6667C36.4713 45.6667 36.61 45.6427 36.7353 45.5987L44.7487 42.928C45.2967 42.744 45.666 42.2373 45.666 41.6667V17.6667C45.666 16.932 45.0673 16.3333 44.3327 16.3333V16.3333Z" fill="white"/>
<path d="M26.3327 21.6667C25.9647 21.6667 25.666 21.368 25.666 21V18.3333C25.666 16.496 27.162 15 28.9993 15H44.3327C44.7007 15 44.9993 15.2987 44.9993 15.6667C44.9993 16.0347 44.7007 16.3333 44.3327 16.3333H28.9993C27.8967 16.3333 26.9993 17.2307 26.9993 18.3333V21C26.9993 21.368 26.7007 21.6667 26.3327 21.6667Z" fill="white"/>
<path d="M23.667 35C23.4963 35 23.3257 34.9346 23.195 34.8053C22.935 34.5453 22.935 34.1226 23.195 33.8626L28.0577 29L23.195 24.1386C22.935 23.8786 22.935 23.456 23.195 23.196C23.455 22.936 23.8777 22.936 24.1377 23.196L29.471 28.5293C29.731 28.7893 29.731 29.212 29.471 29.472L24.1377 34.8053C24.0083 34.9346 23.8377 35 23.667 35V35Z" fill="white"/>
</g>
<defs>
<clipPath id="clip0">
<rect width="32" height="32" fill="white" transform="translate(15 15)"/>
</clipPath>
</defs>
</svg>
