<svg width="64" height="64" viewBox="0 0 64 64" fill="none" xmlns="http://www.w3.org/2000/svg">
<circle cx="32" cy="32" r="32" fill="#6EC186"/>
<path d="M45.9375 47.0625V37.1212H45V47.0625H42.1875V25.6408H45V36.1837H45.9375V24.7033H41.25V47.0625H38.4124L38.4383 32.4604H33.7508L33.7249 47.0625H30.9375V28.4695H26.25V41.0421H27.1875V29.407H30V47.0625H27.1875V41.9797H26.25V47.0625H23.4375V37.1787H18.75V47.0625H15.9375V17.875H15V48H47V47.0625H45.9375ZM34.6866 33.3978H37.4991L37.4749 47.0625H34.6624L34.6866 33.3978ZM19.6875 38.1162H22.5V47.0625H19.6875V38.1162Z" fill="white"/>
<path d="M15 16H15.9375V16.9375H15V16Z" fill="white"/>
<path d="M21.0937 34.3652C21.6939 34.3652 22.2941 34.1367 22.751 33.6798C23.6648 32.766 23.6648 31.2791 22.751 30.3653C22.7156 30.3299 22.6791 30.2964 22.6421 30.2637L26.6973 24.6905C26.7686 24.7885 26.8481 24.8823 26.9364 24.9706C27.3933 25.4275 27.9935 25.6559 28.5937 25.6559C29.1939 25.6559 29.7941 25.4275 30.251 24.9706C30.4236 24.798 30.5636 24.6048 30.671 24.399L33.7825 26.924C33.6651 27.6436 33.8827 28.4077 34.4365 28.9615C34.8934 29.4184 35.4936 29.6468 36.0938 29.6468C36.694 29.6468 37.2941 29.4184 37.7511 28.9615C38.5541 28.1585 38.6512 26.9131 38.043 26.0027L42.3108 21.5087C42.6989 21.7627 43.1463 21.8898 43.5938 21.8898C44.194 21.8898 44.7942 21.6614 45.2511 21.2045C46.1649 20.2907 46.1649 18.8038 45.2511 17.89C44.3371 16.9761 42.8503 16.9762 41.9365 17.89C41.1335 18.693 41.0365 19.9384 41.6446 20.8487L37.3768 25.3428C36.4682 24.7481 35.2341 24.8493 34.4365 25.647C34.3242 25.7593 34.2259 25.8803 34.1412 26.0078L30.9343 23.4054C30.9588 22.7749 30.7313 22.1364 30.2511 21.6561C29.3373 20.7423 27.8504 20.7422 26.9365 21.6561C26.3883 22.2044 26.1694 22.959 26.279 23.6723L21.8231 29.7962C21.0105 29.5315 20.0811 29.7208 19.4366 30.3653C18.5228 31.2792 18.5228 32.7661 19.4366 33.6799C19.8933 34.1367 20.4935 34.3652 21.0937 34.3652ZM42.5993 18.5528C42.8735 18.2786 43.2335 18.1415 43.5936 18.1415C43.9537 18.1415 44.3139 18.2787 44.588 18.5528C45.1363 19.1011 45.1363 19.9932 44.588 20.5415C44.0398 21.0898 43.1475 21.0898 42.5993 20.5415C42.051 19.9932 42.051 19.1011 42.5993 18.5528ZM35.0993 26.3097C35.6475 25.7615 36.5397 25.7614 37.088 26.3097C37.6363 26.858 37.6363 27.7502 37.088 28.2985C36.5397 28.8468 35.6475 28.8467 35.0993 28.2985C34.551 27.7502 34.551 26.858 35.0993 26.3097ZM27.5993 22.3189C28.1476 21.7707 29.0398 21.7707 29.588 22.3189C30.1363 22.8672 30.1363 23.7593 29.588 24.3077C29.0397 24.8559 28.1476 24.8559 27.5993 24.3077C27.051 23.7593 27.051 22.8672 27.5993 22.3189ZM20.0993 31.0282C20.3735 30.754 20.7335 30.6169 21.0937 30.6169C21.4538 30.6169 21.814 30.754 22.0881 31.0282C22.6363 31.5764 22.6363 32.4686 22.0881 33.0169C21.5398 33.5652 20.6476 33.5652 20.0993 33.0169C19.551 32.4686 19.551 31.5765 20.0993 31.0282Z" fill="white"/>
<path d="M20.6249 45.188H21.5624V46.1255H20.6249V45.188Z" fill="white"/>
<path d="M43.1249 30.8267H44.0624V31.7642H43.1249V30.8267Z" fill="white"/>
<path d="M43.1249 27.0767H44.0624V29.8892H43.1249V27.0767Z" fill="white"/>
<path d="M28.125 30.8125H29.0625V33.625H28.125V30.8125Z" fill="white"/>
<path d="M28.125 34.5625H29.0625V35.5H28.125V34.5625Z" fill="white"/>
<path d="M35.625 42.8442H36.5625V45.6567H35.625V42.8442Z" fill="white"/>
<path d="M35.625 40.9692H36.5625V41.9067H35.625V40.9692Z" fill="white"/>
</svg>
