<?xml version="1.0" encoding="utf-8"?>
<!-- Generator: Adobe Illustrator 24.0.0, SVG Export Plug-In . SVG Version: 6.00 Build 0)  -->
<svg version="1.1" id="Layer_1" xmlns="http://www.w3.org/2000/svg" xmlns:xlink="http://www.w3.org/1999/xlink" x="0px" y="0px"
	 viewBox="0 0 800 600" style="enable-background:new 0 0 800 600;" xml:space="preserve">
<style type="text/css">
	.st0{fill-rule:evenodd;clip-rule:evenodd;}
	.st1{fill-rule:evenodd;clip-rule:evenodd;fill:#FFFFFF;}
	.st2{fill-rule:evenodd;clip-rule:evenodd;fill:#0080C8;}
	.st3{fill-rule:evenodd;clip-rule:evenodd;fill:#6758A1;}
	.st4{fill-rule:evenodd;clip-rule:evenodd;fill:#CA0538;}
	.st5{fill-rule:evenodd;clip-rule:evenodd;fill:#EB6608;}
	.st6{fill-rule:evenodd;clip-rule:evenodd;fill:#FAB900;}
	.st7{fill-rule:evenodd;clip-rule:evenodd;fill:#13A438;}
</style>
<g>
	<path class="st0" d="M196.7,458.2C194.4,447,185.2,444,175,443c-33.2-3.1-39.1,21.8-39.1,32.3c0,18,5.2,32.8,37.8,32.8
		c6,0,22.6-6.2,22.6-16.3h46.9c-1.9,29.9-52,37.1-73.9,37.1c-45.3,0-84.1-8.5-82.3-53.2c1.3-32,31.5-54.4,91.4-53
		c33.4,0.8,65.5,11.2,65.6,35.4H196.7L196.7,458.2z"/>
	<path class="st0" d="M666.5,458.2C664.2,447,655,444,644.7,443c-33.2-3.1-39.1,21.8-39.1,32.3c0,18,5.2,32.8,37.9,32.8
		c6,0,22.6-6.2,22.6-16.3H713c-1.9,29.9-52,37.1-73.9,37.1c-45.3,0-84.1-8.5-82.3-53.2c1.3-32,31.5-54.4,91.4-53
		c33.4,0.8,65.5,11.2,65.6,35.4H666.5L666.5,458.2z"/>
	<polygon class="st0" points="252.4,424.9 313.3,424.9 365.2,497.9 365.6,497.9 365.6,424.9 404.7,424.9 404.7,526.3 346.3,526.3 
		291.8,453.3 291.4,453.3 291.4,526.3 252.4,526.3 252.4,424.9 	"/>
	<path class="st0" d="M416.7,424.9h74c35.5,0,56.4,10,56.4,25c0,8.9-8.7,19.8-28.3,23.1v0.3c23.5,1.4,32.2,16.3,32.2,25.2
		c0,17.9-20.4,27.8-60.1,27.8h-74.2V424.9L416.7,424.9L416.7,424.9z M459.5,464.3h12.3c18.9,0,28.9-1.5,28.9-9.3
		c0-8.4-8.3-11.2-25.3-11.2h-15.8V464.3L459.5,464.3L459.5,464.3z M459.5,505.1h12.3c22.8,0,31.1-2.4,31.1-10.3
		c0-8.4-10.5-11.2-27.5-11.2h-15.8V505.1L459.5,505.1z"/>
	<path class="st1" d="M660.7,408.4c-10,4.4-21,6.4-32.8,6.4l-471.3-0.4c-26.7-2.1-52.8-24.1-60.3-50.4c-7.9-26.3-0.2-53.4,17.2-72.6
		c16.8-17.3,38.4-24.6,62.4-21.9c-22.6-15.4-32.1-40.8-28.8-68.1c3-23.7,20.2-46.8,42.1-56.3c25.1-11.3,56.8-5.2,76.5,13.9
		c-4.1-13.9-6.2-33.8-0.6-48c6.7-22.5,28.6-42.5,50.8-47.2c29.7-6.4,57.9,4.8,74.9,30.2c3.2,4.8,5.2,10.2,7.7,15.2
		c8.5-24.3,33.1-44.5,58.1-47.1c25.8-3.3,50.2,7.7,66.4,29.5c12.6,18.1,16.9,45,8.8,66.7h1c18.7-16.8,47.1-23,71.2-13.6
		c23,7.6,42.6,32.2,45.7,56.4c3.5,26.8-5.6,50.2-25.9,67.6c30.7-1.8,59.9,14.5,72.5,43.1c11.1,24.9,7.8,58.4-10.9,78.6
		C677.8,398.2,669.7,404.5,660.7,408.4L660.7,408.4z"/>
	<path class="st2" d="M610.8,269.5L436.5,386.1l58.7-139.5l27.9-65c11.3-21,32.5-34.4,55.7-34.8c22.2,0,41.9,10.7,54.4,29.9
		c12.9,19.2,13.6,50.5,0.7,69.9C628.1,255.7,619.6,263.8,610.8,269.5L610.8,269.5z"/>
	<path class="st3" d="M524,159.5l-86.2,203.8L434,341L408,174c-1.1-10.2,3.1-18.8,11.3-24.4l12.4-7.4c0.7-2.6-2.9-3.4-4.6-4.3
		l-24.3-0.2c-1.6-24.1,9-45.9,29.4-59.1c15.9-10.3,40-13,57.6-4.7c22.9,9.3,38.9,33.8,39.3,58.7C529,141.8,527.5,151.3,524,159.5
		L524,159.5z"/>
	<path class="st4" d="M358.4,364l-84.9-204.3c-9.1-21.9-5.3-50.6,10.3-68.3c16.7-18.5,40.2-26.4,64.5-20.1
		c20.5,5,39.7,24.7,44.8,45.7c2.4,7.9,2,17.3,1.6,25.9L358.4,364L358.4,364z"/>
	<path class="st5" d="M177,262.2c-17.4-15.1-25.2-35.3-22.7-58.6c2.5-23.6,21.1-46.7,43.3-53.8c22.8-7.1,47.7-1.5,64.2,15.6
		c7,6.6,11.3,14.5,14.9,22.6l82,198.5L177,262.2L177,262.2z"/>
	<path class="st6" d="M158.4,407.2c-22.7-2.6-40.2-14.8-50.8-35.6c-10.8-21-8-50.8,6.5-69.4c15.8-19,38.7-28.5,61.8-23.8
		c9.4,1.5,17.3,5.6,24.7,10.2L377,407.2L158.4,407.2L158.4,407.2z"/>
	<path class="st7" d="M637.5,407.2c22.7-2.6,40.2-14.8,50.8-35.6c10.8-21,8-50.8-6.5-69.4c-15.8-19-38.7-28.5-61.8-23.8
		c-9.4,1.5-17.3,5.6-24.7,10.2L418.9,407.2L637.5,407.2L637.5,407.2z"/>
</g>
</svg>
