<?xml version="1.0" encoding="UTF-8"?>
<!DOCTYPE svg PUBLIC "-//W3C//DTD SVG 1.1//EN" "http://www.w3.org/Graphics/SVG/1.1/DTD/svg11.dtd">
<!-- Creator: CorelDRAW -->
<svg xmlns="http://www.w3.org/2000/svg" xml:space="preserve" width="12.4186cm" height="3.40193cm" version="1.1" style="shape-rendering:geometricPrecision; text-rendering:geometricPrecision; image-rendering:optimizeQuality; fill-rule:evenodd; clip-rule:evenodd"
viewBox="0 0 12938.64 3544.38"
 xmlns:xlink="http://www.w3.org/1999/xlink"
 xmlns:xodm="http://www.corel.com/coreldraw/odm/2003">
 <defs>
  <style type="text/css">
   <![CDATA[
    .fil0 {fill:#17A560}
    .fil1 {fill:#17A560;fill-rule:nonzero}
   ]]>
  </style>
 </defs>
 <g id="Layer_x0020_1">
  <metadata id="CorelCorpID_0Corel-Layer"/>
  <path class="fil0" d="M6255.09 2115.98c-127.53,391.33 -493.95,675.39 -928.15,678.51 -426.4,3.06 -791.3,-265.74 -930.36,-644.22 38.68,23 81.81,35.78 127.14,35.44l372.52 -2.67c104.23,118.6 257.42,193 427.69,191.78 170.27,-1.22 322.38,-77.81 424.89,-197.89l349.76 -2.51c57.52,-0.42 111.19,-21.85 156.52,-58.44z"/>
  <path class="fil0" d="M4818.9 1512.76l545.47 -3.92 -109.54 593.26 -731.68 5.24c-162.9,1.18 -297.18,-131.16 -298.34,-294.08 -0.74,-101.45 50.29,-191.77 128.23,-245.78 3.21,-25.86 14.92,-65.41 38.47,-123.7 133.59,-380.43 494.63,-654.42 921.04,-657.48 434.2,-3.12 804.63,275.65 937.75,665.12 -45.82,-35.93 -99.81,-56.64 -157.32,-56.21l-349.74 2.51c-104.23,-118.6 -257.43,-192.97 -427.69,-191.76 -164.73,1.17 -415.01,127.11 -496.65,306.79z"/>
  <path class="fil0" d="M5448.09 1508.24l645.67 -4.63c162.93,-1.18 297.18,131.17 298.35,294.09 1.17,162.93 -131.21,297.18 -294.1,298.35l-759.45 5.45 109.53 -593.26z"/>
  <polygon class="fil1" points="358.22,701.52 483.48,701.52 483.48,115.25 693.94,115.25 693.94,0 148.76,0 148.76,115.25 358.22,115.25 "/>
  <path id="_1" class="fil1" d="M859.29 0l-120.25 0 0 701.52 120.25 0 0 -295.64c0,-71.16 52.11,-103.23 110.24,-103.23 58.13,0 110.24,32.07 110.24,103.23l0 295.64 120.26 0 0 -298.65c0,-87.18 -65.14,-211.46 -214.47,-211.46 -56.12,0 -97.21,17.05 -126.27,44.1l0 -235.52z"/>
  <path id="_2" class="fil1" d="M1379.43 380.83c21.05,-49.1 66.15,-77.16 125.27,-77.16 60.13,0 105.23,28.06 126.27,77.16l-251.55 0zm125.27 219.48c-71.15,0 -121.26,-40.09 -134.29,-109.24l391.85 0c1,-13.02 2,-26.06 2,-40.08 0,-154.34 -103.22,-257.56 -258.56,-257.56 -155.33,0 -259.56,103.22 -259.56,257.56 0,155.33 104.23,259.56 259.56,259.56 121.26,0 210.46,-63.14 243.53,-164.36l-131.28 0c-24.06,35.07 -63.14,54.11 -113.25,54.11z"/>
  <path class="fil1" d="M8699.87 3528.16l125.26 0 0 -185.4 192.42 0c153.33,0 255.55,-102.23 255.55,-260.57 0,-153.33 -102.22,-255.55 -255.55,-255.55l-317.69 0 0 701.52zm306.66 -300.65l-181.4 0 0 -285.62 181.4 0c85.18,0 141.31,56.12 141.31,144.31 0,85.18 -56.13,141.31 -141.31,141.31zm311.68 300.65l125.26 0 0 -200.44 172.38 0 131.29 200.44 148.32 0 -144.31 -220.48c87.18,-36.08 140.3,-119.25 140.3,-228.49 0,-153.33 -99.21,-252.55 -247.54,-252.55l-325.7 0 0 701.52zm125.26 -315.69l0 -270.58 188.41 0c81.18,0 134.3,53.11 134.3,134.29 0,83.18 -53.11,136.3 -134.3,136.3l-188.41 0zm487.06 -35.07c0,219.47 135.29,364.79 353.77,364.79 218.47,0 354.77,-145.32 354.77,-364.79 0,-218.48 -136.3,-363.79 -354.77,-363.79 -218.48,0 -353.77,145.31 -353.77,363.79zm125.27 0c0,-152.33 84.18,-248.55 228.49,-248.55 143.31,0 229.49,96.22 229.49,248.55 0,153.33 -86.18,249.54 -229.49,249.54 -144.31,0 -228.49,-96.21 -228.49,-249.54zm881.91 363.78l5.01 0c160.34,0 267.57,-100.22 267.57,-260.56l0 -453.99 -223.48 0 0 115.25 98.22 0 0 347.76c0,86.18 -57.13,136.3 -146.32,136.3 -86.18,0 -143.31,-50.11 -143.31,-136.3l0 -49.11 -126.27 0 1 40.09c0,160.34 107.23,260.56 267.58,260.56zm332.72 -14.02l477.03 1 0 -115.25 -351.77 0 0 -196.42 289.63 0 0 -115.25 -289.63 0 0 -159.34 351.77 0 0 -115.25 -477.03 0 0 700.52zm497.08 -349.76c0,218.47 135.29,363.78 353.77,363.78 124.26,0 219.48,-47.09 283.62,-127.28l-102.23 -70.15c-42.09,52.11 -102.22,82.18 -181.39,82.18 -144.31,0 -228.49,-96.22 -228.49,-248.54 0,-152.33 84.18,-248.55 228.49,-248.55 79.17,0 139.3,30.07 181.39,82.18l102.23 -70.15c-64.14,-80.18 -159.35,-127.28 -283.62,-127.28 -218.48,0 -353.77,145.31 -353.77,363.79zm876.91 350.76l125.26 0 0 -586.27 168.93 0 0 -115.25 -456.92 0 0 115.25 162.73 0 0 586.27z"/>
  <path class="fil1" d="M1996.27 1787.47c0,-598.47 -401.55,-1000.02 -1000.17,-1000.02 -594.54,0 -996.1,397.77 -996.1,992.32 0,598.47 401.56,1000.16 961.37,1000.16 281.94,0 478.87,-100.42 571.45,-220.17l0 112.04c0,258.7 -177.6,447.91 -498.05,447.91 -266.4,0 -424.8,-135.15 -529.01,-262.6l-378.44 266.39c200.84,254.91 513.6,420.89 903.52,420.89 583.07,0 965.43,-362.89 965.43,-872.58l0 -884.33zm-463.46 -3.78c0,359.11 -212.33,571.45 -532.78,571.45 -324.38,0 -536.71,-212.33 -536.71,-571.45 0,-359.11 212.33,-571.45 536.71,-571.45 320.45,0 532.78,212.33 532.78,571.45zm621.73 0c0,598.47 401.55,1000.02 1000.02,1000.02 598.62,0 996.25,-401.55 996.25,-1000.02 0,-594.69 -397.63,-992.32 -996.25,-992.32 -598.47,0 -1000.02,397.63 -1000.02,992.32zm463.31 3.78c0,-359.11 212.48,-571.45 532.93,-571.45 324.38,0 536.71,212.33 536.71,571.45 0,359.11 -212.33,571.58 -536.71,571.58 -320.45,0 -532.93,-212.47 -532.93,-571.58zm5386.55 -1741.35l0 961.37c-92.73,-119.62 -293.43,-220.03 -571.45,-220.03 -559.95,0 -961.51,401.55 -961.51,1000.02 0,594.69 401.56,992.46 984.62,992.46 567.66,0 1011.65,-370.73 1011.65,-992.46l0 -1741.35 -463.31 0zm-1069.64 1737.57c0,-359.11 212.47,-571.45 532.93,-571.45 324.38,0 536.71,212.33 536.71,571.45 0,359.11 -212.33,571.45 -536.71,571.45 -320.46,0 -532.93,-212.33 -532.93,-571.45zm1764.61 965.29l482.65 0 0 -714.31 741.33 0c590.76,0 984.76,-393.85 984.76,-1003.95 0,-590.77 -393.99,-984.61 -984.76,-984.61l-1223.98 0 0 2702.87zm1181.54 -1158.44l-698.89 0 0 -1100.45 698.89 0c328.3,0 544.42,216.25 544.42,556.04 0,328.16 -216.12,544.41 -544.42,544.41zm1200.87 1158.44l463.32 0 0 -1930.58 -463.32 0 0 1930.58zm694.98 0l463.31 0 0 -2702.87 -463.31 0 0 2702.87zm694.97 0l463.32 0 0 -2702.87 -463.32 0 0 2702.87z"/>
 </g>
</svg>
