<svg width="608" height="326" viewBox="0 0 608 326" fill="none" xmlns="http://www.w3.org/2000/svg">
<g clip-path="url(#clip0_66779_26022)">
<path d="M462.645 26.1749C460.329 21.6405 456.584 17.9935 451.99 15.7971C447.395 13.6007 442.207 12.977 437.225 14.0223C432.243 15.0676 427.745 17.7238 424.426 21.5807C421.106 25.4376 419.15 30.2808 418.859 35.3623C418.784 36.7879 418.838 38.2173 419.022 39.6331L464.907 33.0044C464.518 30.6231 463.755 28.318 462.645 26.1749Z" fill="#5EBD75"/>
<path d="M473.419 235.252C475.603 240.913 479.789 245.576 485.184 248.356C490.578 251.136 496.804 251.84 502.679 250.333C508.555 248.827 513.671 245.215 517.056 240.184C520.441 235.152 521.859 229.052 521.041 223.041L471.943 229.305C472.187 231.34 472.683 233.338 473.419 235.252Z" fill="#5EBD75"/>
<path d="M547.332 137.771L500.137 134.782C500.091 128.262 497.935 121.93 493.992 116.734L509.83 102.94C513.674 105.783 518.475 107.014 523.211 106.369C527.946 105.725 532.241 103.257 535.18 99.4903L505.806 77.5597C503.825 80.3481 502.665 83.6358 502.457 87.0506C502.248 90.4655 503.001 93.8711 504.628 96.882L488.361 111.059C482.215 106.347 474.488 104.191 466.794 105.039L452.925 59.6991C457.308 57.4819 460.871 53.9284 463.1 49.5521C465.328 45.1758 466.107 40.2034 465.323 35.3534L419.433 41.9885C420.237 48.0556 423.406 53.561 428.25 57.3052C433.094 61.0493 439.221 62.7288 445.295 61.9776L459.013 106.906C452.441 109.466 446.98 114.255 443.585 120.435C440.19 126.616 439.077 133.794 440.441 140.716L396.75 151.982C394.982 148.168 391.961 145.074 388.189 143.217C384.417 141.359 380.123 140.851 376.023 141.777L381.366 178.002C385.992 177.68 390.324 175.623 393.493 172.241C396.663 168.859 398.436 164.403 398.456 159.767L442.989 148.296C445.939 154.283 450.796 159.121 456.795 162.047C462.795 164.974 469.596 165.822 476.128 164.46L487.365 201.036C482.226 203.011 477.894 206.644 475.054 211.359C472.214 216.074 471.028 221.603 471.685 227.07L520.783 220.807C520.522 218.908 520.043 217.045 519.357 215.255C517.493 210.422 514.16 206.293 509.827 203.451C505.495 200.608 500.381 199.194 495.206 199.408L483.69 161.874C487.477 159.956 490.814 157.258 493.484 153.959C496.153 150.66 498.095 146.833 499.181 142.73L547.067 145.773C547.775 150.275 549.939 154.422 553.227 157.58C556.515 160.738 560.747 162.732 565.275 163.258L569.628 121.819C564.607 121.342 559.586 122.699 555.491 125.638C551.396 128.578 548.506 132.901 547.354 137.808L547.332 137.771Z" fill="#5EBD75"/>
<path d="M370.099 143.296C366.201 145.098 363.058 148.209 361.218 152.089C359.378 155.969 358.957 160.372 360.028 164.532C361.098 168.692 363.593 172.347 367.079 174.861C370.564 177.374 374.819 178.587 379.105 178.29L373.771 142.052C372.506 142.335 371.275 142.752 370.099 143.296Z" fill="#5EBD75"/>
<path d="M567.644 163.306C570.398 163.658 573.194 163.457 575.868 162.715C578.542 161.972 581.04 160.703 583.217 158.982C585.393 157.261 587.203 155.122 588.541 152.691C589.878 150.26 590.717 147.586 591.007 144.826C591.296 142.066 591.032 139.276 590.229 136.619C589.425 133.962 588.1 131.491 586.329 129.353C584.558 127.214 582.378 125.45 579.917 124.165C577.456 122.879 574.763 122.098 571.997 121.867L567.644 163.306Z" fill="#5EBD75"/>
<path d="M533.125 71.5378C531.189 70.1051 528.99 69.0674 526.654 68.4843C524.317 67.9011 521.889 67.7838 519.508 68.139C517.127 68.4943 514.84 69.3151 512.777 70.5547C510.714 71.7943 508.915 73.4283 507.485 75.3633L507.292 75.6119L536.667 97.5425L536.957 97.1665C539.845 93.2612 541.063 88.3686 540.345 83.5633C539.626 78.7579 537.029 74.4328 533.125 71.5378Z" fill="#5EBD75"/>
</g>
<path d="M154.13 140.109H130.518V126.195H194.818V140.109H171.206V199.982H154.13V140.109ZM237.421 142.428C244.449 142.428 250.106 144.536 254.392 148.753C258.749 152.969 260.928 159.224 260.928 167.516V199.982H244.484V170.046C244.484 165.548 243.5 162.21 241.532 160.032C239.565 157.783 236.719 156.659 232.994 156.659C228.848 156.659 225.545 157.959 223.086 160.559C220.626 163.089 219.396 166.883 219.396 171.943V199.982H202.952V121.768H219.396V149.174C221.575 146.996 224.21 145.345 227.302 144.22C230.394 143.026 233.767 142.428 237.421 142.428ZM332.108 171.838C332.108 172.049 332.003 173.524 331.792 176.265H288.89C289.663 179.779 291.49 182.555 294.371 184.592C297.252 186.63 300.836 187.649 305.123 187.649C308.075 187.649 310.675 187.228 312.923 186.384C315.242 185.471 317.386 184.065 319.353 182.168L328.103 191.655C322.762 197.769 314.961 200.826 304.701 200.826C298.306 200.826 292.649 199.596 287.73 197.136C282.811 194.606 279.016 191.128 276.346 186.701C273.676 182.273 272.34 177.249 272.34 171.627C272.34 166.075 273.64 161.086 276.24 156.659C278.911 152.161 282.53 148.683 287.098 146.223C291.736 143.693 296.901 142.428 302.593 142.428C308.145 142.428 313.169 143.623 317.667 146.012C322.164 148.401 325.678 151.845 328.208 156.342C330.808 160.77 332.108 165.935 332.108 171.838ZM302.699 154.867C298.974 154.867 295.847 155.921 293.317 158.029C290.787 160.137 289.241 163.018 288.679 166.673H316.613C316.051 163.089 314.505 160.243 311.975 158.134C309.445 155.956 306.353 154.867 302.699 154.867Z" fill="#5EBD75"/>
<path d="M58.9938 258.906H74.5946V288.842C70.589 291.864 65.9509 294.183 60.6804 295.799C55.4098 297.416 50.1042 298.224 44.7634 298.224C37.1035 298.224 30.2167 296.608 24.1029 293.375C17.989 290.072 13.1753 285.539 9.66161 279.777C6.21819 273.944 4.49648 267.374 4.49648 260.065C4.49648 252.757 6.21819 246.221 9.66161 240.459C13.1753 234.626 18.0242 230.093 24.2083 226.861C30.3924 223.558 37.3495 221.907 45.0796 221.907C51.5448 221.907 57.4126 222.996 62.6832 225.174C67.9537 227.353 72.3809 230.515 75.9649 234.661L65.0022 244.781C59.7317 239.229 53.3719 236.453 45.9229 236.453C41.2145 236.453 37.0332 237.437 33.379 239.405C29.7248 241.372 26.8787 244.148 24.8407 247.732C22.8028 251.316 21.7838 255.427 21.7838 260.065C21.7838 264.633 22.8028 268.709 24.8407 272.293C26.8787 275.877 29.6896 278.688 33.2736 280.726C36.9278 282.693 41.074 283.677 45.712 283.677C50.6312 283.677 55.0585 282.623 58.9938 280.515V258.906ZM116.388 297.802C110.415 297.802 105.039 296.572 100.26 294.113C95.5521 291.583 91.8627 288.104 89.1923 283.677C86.5219 279.25 85.1867 274.225 85.1867 268.604C85.1867 262.982 86.5219 257.957 89.1923 253.53C91.8627 249.103 95.5521 245.659 100.26 243.2C105.039 240.67 110.415 239.405 116.388 239.405C122.362 239.405 127.702 240.67 132.411 243.2C137.119 245.659 140.808 249.103 143.479 253.53C146.149 257.957 147.484 262.982 147.484 268.604C147.484 274.225 146.149 279.25 143.479 283.677C140.808 288.104 137.119 291.583 132.411 294.113C127.702 296.572 122.362 297.802 116.388 297.802ZM116.388 284.31C120.605 284.31 124.048 282.904 126.718 280.093C129.459 277.212 130.83 273.382 130.83 268.604C130.83 263.825 129.459 260.03 126.718 257.219C124.048 254.338 120.605 252.897 116.388 252.897C112.172 252.897 108.693 254.338 105.953 257.219C103.212 260.03 101.842 263.825 101.842 268.604C101.842 273.382 103.212 277.212 105.953 280.093C108.693 282.904 112.172 284.31 116.388 284.31ZM185.566 297.802C179.593 297.802 174.217 296.572 169.439 294.113C164.73 291.583 161.041 288.104 158.371 283.677C155.7 279.25 154.365 274.225 154.365 268.604C154.365 262.982 155.7 257.957 158.371 253.53C161.041 249.103 164.73 245.659 169.439 243.2C174.217 240.67 179.593 239.405 185.566 239.405C191.54 239.405 196.881 240.67 201.589 243.2C206.297 245.659 209.987 249.103 212.657 253.53C215.327 257.957 216.663 262.982 216.663 268.604C216.663 274.225 215.327 279.25 212.657 283.677C209.987 288.104 206.297 291.583 201.589 294.113C196.881 296.572 191.54 297.802 185.566 297.802ZM185.566 284.31C189.783 284.31 193.226 282.904 195.897 280.093C198.637 277.212 200.008 273.382 200.008 268.604C200.008 263.825 198.637 260.03 195.897 257.219C193.226 254.338 189.783 252.897 185.566 252.897C181.35 252.897 177.871 254.338 175.131 257.219C172.39 260.03 171.02 263.825 171.02 268.604C171.02 273.382 172.39 277.212 175.131 280.093C177.871 282.904 181.35 284.31 185.566 284.31ZM285.525 218.744V296.959H269.818V290.424C265.743 295.343 259.84 297.802 252.109 297.802C246.769 297.802 241.92 296.608 237.563 294.218C233.276 291.829 229.903 288.421 227.443 283.993C224.984 279.566 223.754 274.436 223.754 268.604C223.754 262.771 224.984 257.641 227.443 253.214C229.903 248.786 233.276 245.378 237.563 242.989C241.92 240.599 246.769 239.405 252.109 239.405C259.348 239.405 265.005 241.689 269.081 246.256V218.744H285.525ZM254.955 284.31C259.102 284.31 262.545 282.904 265.286 280.093C268.026 277.212 269.397 273.382 269.397 268.604C269.397 263.825 268.026 260.03 265.286 257.219C262.545 254.338 259.102 252.897 254.955 252.897C250.739 252.897 247.261 254.338 244.52 257.219C241.779 260.03 240.409 263.825 240.409 268.604C240.409 273.382 241.779 277.212 244.52 280.093C247.261 282.904 250.739 284.31 254.955 284.31ZM333.948 223.172C340.484 223.172 346.141 224.261 350.92 226.439C355.768 228.618 359.493 231.71 362.093 235.715C364.693 239.721 365.993 244.464 365.993 249.946C365.993 255.357 364.693 260.1 362.093 264.176C359.493 268.182 355.768 271.274 350.92 273.452C346.141 275.561 340.484 276.615 333.948 276.615H319.086V296.959H302.009V223.172H333.948ZM333 262.701C338.13 262.701 342.03 261.611 344.7 259.433C347.371 257.184 348.706 254.022 348.706 249.946C348.706 245.8 347.371 242.637 344.7 240.459C342.03 238.21 338.13 237.086 333 237.086H319.086V262.701H333ZM377.131 240.248H393.575V296.959H377.131V240.248ZM385.353 232.342C382.331 232.342 379.871 231.464 377.974 229.707C376.076 227.95 375.128 225.772 375.128 223.172C375.128 220.571 376.076 218.393 377.974 216.636C379.871 214.879 382.331 214.001 385.353 214.001C388.374 214.001 390.834 214.844 392.731 216.531C394.629 218.217 395.577 220.325 395.577 222.855C395.577 225.596 394.629 227.88 392.731 229.707C390.834 231.464 388.374 232.342 385.353 232.342ZM408.941 218.744H425.386V296.959H408.941V218.744ZM440.752 218.744H457.197V296.959H440.752V218.744Z" fill="#5EBD75"/>
<defs>
<clipPath id="clip0_66779_26022">
<rect width="183.31" height="210.161" fill="white" transform="translate(328.734 145.225) rotate(-52.2983)"/>
</clipPath>
</defs>
</svg>