<svg width="68" height="68" viewBox="0 0 68 68" fill="none" xmlns="http://www.w3.org/2000/svg">
  <path d="M62.8092 29.7498H59.5009C59.3125 29.0676 58.9071 28.4654 58.3459 28.0341C57.7848 27.6028 57.0986 27.3659 56.3909 27.3592H52.8594V18.7232C52.8634 18.5616 52.8243 18.4019 52.7462 18.2604C52.6681 18.119 52.5538 18.0008 52.415 17.9181L27.5024 3.5289C27.362 3.44729 27.2025 3.4043 27.0401 3.4043C26.8777 3.4043 26.7182 3.44729 26.5778 3.5289L1.6575 17.9181C1.5165 17.9998 1.39953 18.1173 1.31839 18.2586C1.23725 18.4 1.1948 18.5602 1.19532 18.7232V47.5017C1.19532 47.6649 1.23828 47.8252 1.31988 47.9665C1.40147 48.1078 1.51883 48.2252 1.66016 48.3068L26.583 62.6959C26.7243 62.7775 26.8846 62.8205 27.0478 62.8205C27.2152 62.8206 27.3798 62.7777 27.5259 62.6959L40.6406 55.1313V60.5998C40.6393 61.1204 40.7412 61.6361 40.9405 62.1171C41.1398 62.5981 41.4326 63.0347 41.8018 63.4018C42.171 63.7689 42.6093 64.0591 43.0915 64.2556C43.5736 64.4521 44.0899 64.5511 44.6105 64.5467H62.8092C63.3311 64.5515 63.8489 64.4531 64.3327 64.2571C64.8164 64.0611 65.2567 63.7713 65.628 63.4044C65.9994 63.0376 66.2945 62.601 66.4965 62.1196C66.6984 61.6383 66.8032 61.1217 66.8047 60.5998V33.7584C66.8041 32.6977 66.3833 31.6804 65.6345 30.9292C64.8857 30.1779 63.8698 29.7539 62.8092 29.7498ZM56.4239 29.2186C56.7818 29.2186 57.1251 29.3607 57.3782 29.6138C57.6313 29.8669 57.7734 30.2102 57.7734 30.5681V30.6581C57.7734 31.016 57.6313 31.3593 57.3782 31.6124C57.1251 31.8654 56.7818 32.0076 56.4239 32.0076H51.0214C50.6635 32.0076 50.3202 31.8654 50.0671 31.6124C49.8141 31.3593 49.6719 31.016 49.6719 30.6581V30.5681C49.6719 30.2102 49.8141 29.8669 50.0671 29.6138C50.3202 29.3607 50.6635 29.2186 51.0214 29.2186H56.4239ZM27.0478 5.40753L37.4037 11.3865L14.3419 24.7012L3.98611 18.7223L27.0478 5.40753ZM26.1641 60.2805L3.05469 46.9648V20.3314L26.1641 33.6471V60.2805ZM27.0478 32.0368L16.2013 25.7746L39.2631 12.46L50.1102 18.7223L27.0478 32.0368ZM40.6406 33.7584V52.9844L28.0234 60.2805V33.6471L51 20.3314V27.3592H51.0288C50.3211 27.3658 49.6348 27.6027 49.0737 28.034C48.5126 28.4653 48.1072 29.0676 47.9188 29.7498H44.6105C43.5525 29.7549 42.5399 30.1801 41.7954 30.9319C41.0509 31.6836 40.6355 32.7003 40.6406 33.7584ZM64.9453 60.5998C64.944 60.8777 64.8876 61.1525 64.7792 61.4084C64.6707 61.6643 64.5126 61.8961 64.3138 62.0903C64.1151 62.2845 63.8797 62.4373 63.6214 62.5398C63.3631 62.6423 63.087 62.6924 62.8092 62.6873H44.6105C44.334 62.692 44.0594 62.6413 43.8027 62.5384C43.5461 62.4354 43.3126 62.2822 43.1159 62.0877C42.9193 61.8932 42.7636 61.6614 42.6578 61.4059C42.552 61.1504 42.4984 60.8763 42.5 60.5998V33.7584C42.4972 33.4786 42.5496 33.201 42.6542 32.9415C42.7588 32.682 42.9135 32.4457 43.1096 32.2461C43.3056 32.0465 43.5391 31.8875 43.7966 31.7782C44.0542 31.6689 44.3308 31.6115 44.6105 31.6092H47.955C48.1544 32.2673 48.5617 32.843 49.1159 33.25C49.6701 33.6571 50.3412 33.8736 51.0288 33.867H56.3909C57.0784 33.8736 57.7496 33.6571 58.3038 33.25C58.8579 32.843 59.2652 32.2673 59.4645 31.6092H62.8092C63.3769 31.6128 63.9201 31.8408 64.3203 32.2434C64.7205 32.646 64.9452 33.1907 64.9453 33.7584V60.5998Z" fill="#4C70D6"/>
  <path d="M45.6808 43.1641H46.6539C46.9004 43.1641 47.1369 43.0661 47.3113 42.8918C47.4856 42.7174 47.5836 42.4809 47.5836 42.2344C47.5836 41.9878 47.4856 41.7513 47.3113 41.577C47.1369 41.4026 46.9004 41.3047 46.6539 41.3047H46.6172V38.7812H49.1814C49.2398 38.9682 49.3578 39.1308 49.5175 39.2442C49.6771 39.3576 49.8696 39.4155 50.0653 39.4091C50.3122 39.4097 50.5492 39.3124 50.7245 39.1386C50.8997 38.9647 50.9988 38.7284 51 38.4815V37.8559C50.9979 37.6079 50.8981 37.3706 50.7221 37.1958C50.5462 37.0209 50.3083 36.9225 50.0603 36.9219H45.6808C45.5588 36.9225 45.4381 36.9472 45.3257 36.9945C45.2133 37.0418 45.1113 37.1108 45.0256 37.1975C44.9399 37.2843 44.8721 37.3871 44.8262 37.5001C44.7802 37.6131 44.757 37.734 44.7578 37.8559V42.2354C44.7571 42.3571 44.7804 42.4777 44.8265 42.5904C44.8725 42.703 44.9404 42.8054 45.0262 42.8917C45.1119 42.978 45.2139 43.0465 45.3263 43.0932C45.4386 43.14 45.5591 43.164 45.6808 43.1641Z" fill="#4C70D6"/>
  <path d="M45.6875 51.6641H50.0703C50.3169 51.6641 50.5533 51.5661 50.7277 51.3918C50.902 51.2174 51 50.9809 51 50.7344V46.3516C51 46.105 50.902 45.8685 50.7277 45.6942C50.5533 45.5198 50.3169 45.4219 50.0703 45.4219H45.6875C45.4409 45.4219 45.2045 45.5198 45.0301 45.6942C44.8558 45.8685 44.7578 46.105 44.7578 46.3516V50.7344C44.7578 50.9809 44.8558 51.2174 45.0301 51.3918C45.2045 51.5661 45.4409 51.6641 45.6875 51.6641ZM46.6172 47.2812H49.1406V49.8047H46.6172V47.2812Z" fill="#4C70D6"/>
  <path d="M46.654 58.3047H46.6173V55.7813H49.1313C49.1361 56.0257 49.2365 56.2586 49.411 56.4299C49.5855 56.6012 49.8202 56.6973 50.0648 56.6975C50.3093 56.6978 50.5442 56.6021 50.719 56.4312C50.8939 56.2603 50.9948 56.0276 51.0001 55.7831V54.8873C50.9991 54.6359 50.9006 54.3948 50.7253 54.2147C50.5499 54.0346 50.3115 53.9296 50.0603 53.9219H45.6808C45.4313 53.9303 45.195 54.036 45.0225 54.2164C44.85 54.3969 44.755 54.6377 44.7579 54.8873V59.2668C44.7578 59.3868 44.7817 59.5057 44.8284 59.6163C44.8751 59.7269 44.9434 59.827 45.0295 59.9107C45.1156 59.9943 45.2176 60.0599 45.3295 60.1034C45.4413 60.1469 45.5608 60.1676 45.6808 60.1641H46.654C46.9006 60.1641 47.1371 60.0661 47.3114 59.8918C47.4858 59.7174 47.5837 59.4809 47.5837 59.2344C47.5837 58.9878 47.4858 58.7513 47.3114 58.577C47.1371 58.4026 46.9006 58.3047 46.654 58.3047Z" fill="#4C70D6"/>
  <path d="M52.2005 38.0628L49.4779 40.7854L48.6497 39.9571C48.5633 39.8707 48.4608 39.8022 48.348 39.7555C48.2352 39.7088 48.1143 39.6847 47.9922 39.6847C47.8701 39.6847 47.7492 39.7088 47.6364 39.7555C47.5236 39.8022 47.4211 39.8707 47.3348 39.9571C47.2485 40.0434 47.18 40.1459 47.1333 40.2587C47.0865 40.3715 47.0625 40.4924 47.0625 40.6145C47.0625 40.7366 47.0865 40.8575 47.1333 40.9703C47.18 41.0831 47.2485 41.1856 47.3348 41.2719L48.8206 42.7575C48.9069 42.8439 49.0094 42.9124 49.1222 42.9591C49.235 43.0058 49.3559 43.0299 49.478 43.0299C49.6001 43.0299 49.721 43.0058 49.8338 42.9591C49.9466 42.9124 50.0491 42.8439 50.1354 42.7575L53.5158 39.3772C53.6901 39.2028 53.7881 38.9664 53.7881 38.7198C53.7881 38.4732 53.6901 38.2367 53.5158 38.0624C53.3414 37.888 53.1049 37.79 52.8584 37.79C52.6118 37.79 52.3753 37.888 52.2009 38.0624L52.2005 38.0628Z" fill="#4C70D6"/>
  <path d="M52.2005 55.2283L49.4779 57.9509L48.6497 57.1226C48.5633 57.0363 48.4608 56.9678 48.348 56.921C48.2352 56.8743 48.1143 56.8503 47.9922 56.8503C47.8701 56.8503 47.7492 56.8743 47.6364 56.921C47.5236 56.9678 47.4211 57.0363 47.3348 57.1226C47.2485 57.2089 47.18 57.3114 47.1333 57.4242C47.0865 57.537 47.0625 57.6579 47.0625 57.78C47.0625 57.9021 47.0865 58.023 47.1333 58.1358C47.18 58.2486 47.2485 58.3511 47.3348 58.4374L48.8206 59.9231C48.9069 60.0094 49.0094 60.0779 49.1222 60.1246C49.235 60.1713 49.3559 60.1954 49.478 60.1954C49.6001 60.1954 49.721 60.1713 49.8338 60.1246C49.9466 60.0779 50.0491 60.0094 50.1354 59.9231L53.5158 56.5427C53.6901 56.3684 53.7881 56.1319 53.7881 55.8853C53.7881 55.6387 53.6901 55.4022 53.5158 55.2279C53.3414 55.0535 53.1049 54.9556 52.8584 54.9556C52.6118 54.9556 52.3753 55.0535 52.2009 55.2279L52.2005 55.2283Z" fill="#4C70D6"/>
  <path d="M61.7396 39.1797H55.9004C55.6538 39.1797 55.4174 39.2776 55.243 39.452C55.0687 39.6263 54.9707 39.8628 54.9707 40.1094C54.9707 40.3559 55.0687 40.5924 55.243 40.7668C55.4174 40.9411 55.6538 41.0391 55.9004 41.0391H61.7396C61.9862 41.0391 62.2227 40.9411 62.397 40.7668C62.5714 40.5924 62.6693 40.3559 62.6693 40.1094C62.6693 39.8628 62.5714 39.6263 62.397 39.452C62.2227 39.2776 61.9862 39.1797 61.7396 39.1797Z" fill="#4C70D6"/>
  <path d="M61.7396 47.6797H55.9004C55.6538 47.6797 55.4174 47.7776 55.243 47.952C55.0687 48.1263 54.9707 48.3628 54.9707 48.6094C54.9707 48.8559 55.0687 49.0924 55.243 49.2668C55.4174 49.4411 55.6538 49.5391 55.9004 49.5391H61.7396C61.9862 49.5391 62.2227 49.4411 62.397 49.2668C62.5714 49.0924 62.6693 48.8559 62.6693 48.6094C62.6693 48.3628 62.5714 48.1263 62.397 47.952C62.2227 47.7776 61.9862 47.6797 61.7396 47.6797Z" fill="#4C70D6"/>
  <path d="M61.7396 56.1797H55.9004C55.6538 56.1797 55.4174 56.2776 55.243 56.452C55.0687 56.6263 54.9707 56.8628 54.9707 57.1094C54.9707 57.3559 55.0687 57.5924 55.243 57.7668C55.4174 57.9411 55.6538 58.0391 55.9004 58.0391H61.7396C61.9862 58.0391 62.2227 57.9411 62.397 57.7668C62.5714 57.5924 62.6693 57.3559 62.6693 57.1094C62.6693 56.8628 62.5714 56.6263 62.397 56.452C62.2227 56.2776 61.9862 56.1797 61.7396 56.1797Z" fill="#4C70D6"/>
</svg>
