<svg width="62" height="62" viewBox="0 0 62 62" fill="none" xmlns="http://www.w3.org/2000/svg">
  <path d="M56.6804 4.48048H30.5399C30.0432 4.47942 29.5512 4.57651 29.0922 4.76615C28.6332 4.9558 28.2162 5.23427 27.8651 5.58557C27.514 5.93687 27.2358 6.35407 27.0465 6.81321C26.8571 7.27235 26.7604 7.76437 26.7617 8.26102V25.9988C26.7601 26.496 26.8567 26.9886 27.0458 27.4484C27.235 27.9082 27.513 28.3261 27.864 28.6782C28.215 29.0303 28.6321 29.3097 29.0912 29.5003C29.5504 29.691 30.0427 29.7891 30.5399 29.7891H35.511C38.3188 29.7891 38.7573 31.9696 38.9658 34.1989C38.9848 34.5272 39.0306 34.8534 39.1028 35.1742C39.1357 35.3267 39.214 35.4656 39.3275 35.5726C39.441 35.6796 39.5843 35.7497 39.7385 35.7735C39.8951 35.7969 40.0551 35.7687 40.1943 35.6932C40.7851 35.4659 43.4732 34.2159 44.207 30.1206C44.2237 30.028 44.2723 29.9442 44.3443 29.8836C44.4164 29.8231 44.5073 29.7896 44.6014 29.7891H56.6804C57.1758 29.7884 57.6662 29.6895 58.1232 29.4982C58.5802 29.3069 58.9948 29.027 59.3431 28.6746C59.6913 28.3222 59.9663 27.9043 60.1521 27.445C60.338 26.9858 60.431 26.4942 60.4258 25.9988V8.26102C60.4308 7.76611 60.3377 7.27511 60.1517 6.81645C59.9657 6.35779 59.6905 5.94058 59.3422 5.58898C58.9939 5.23737 58.5792 4.95836 58.1223 4.76808C57.6654 4.57781 57.1753 4.48005 56.6804 4.48048ZM58.9727 25.9988C58.9781 26.3035 58.9228 26.6061 58.8101 26.8892C58.6973 27.1722 58.5294 27.43 58.3161 27.6476C58.1027 27.8651 57.8482 28.038 57.5674 28.1561C57.2866 28.2743 56.9851 28.3354 56.6804 28.3359H44.6001C44.1656 28.3366 43.7452 28.4897 43.4121 28.7685C43.0789 29.0474 42.8542 29.4342 42.777 29.8617C42.3532 32.2241 41.1853 33.3977 40.4009 33.9373C40.2326 32.1634 39.7751 28.3359 35.5109 28.3359H30.5399C30.2335 28.3361 29.9301 28.2757 29.6471 28.1581C29.3642 28.0406 29.1073 27.8682 28.8912 27.651C28.6751 27.4338 28.5041 27.176 28.3881 26.8925C28.272 26.6089 28.2131 26.3052 28.2149 25.9988V8.26102C28.2133 7.95514 28.2723 7.65198 28.3886 7.36905C28.5048 7.08611 28.676 6.82902 28.8922 6.61261C29.1083 6.3962 29.3653 6.22478 29.6481 6.10823C29.9309 5.99169 30.234 5.93233 30.5399 5.9336H56.6804C56.9845 5.93298 57.2858 5.99301 57.5665 6.11019C57.8472 6.22738 58.1017 6.39935 58.3151 6.61607C58.5286 6.83278 58.6967 7.08988 58.8096 7.37232C58.9225 7.65477 58.9779 7.95689 58.9727 8.26102V25.9988Z" fill="#4C70D6"/>
  <path d="M53.6606 21.9381C53.3048 19.8503 52.3075 17.9252 50.8071 16.4304C49.3068 14.9355 47.3781 13.9452 45.289 13.5971V12.9655C45.5914 12.7223 45.8347 12.4136 46.0004 12.0627C46.1661 11.7118 46.25 11.3278 46.2456 10.9398C46.248 10.591 46.1813 10.2452 46.0495 9.92229C45.9176 9.59937 45.7232 9.30573 45.4774 9.05826C45.2316 8.81079 44.9393 8.61439 44.6173 8.48037C44.2953 8.34634 43.9499 8.27734 43.6011 8.27734C43.2523 8.27734 42.907 8.34634 42.585 8.48037C42.2629 8.61439 41.9706 8.81079 41.7248 9.05826C41.479 9.30573 41.2846 9.59937 41.1528 9.92229C41.0209 10.2452 40.9543 10.591 40.9566 10.9398C40.9496 11.3268 41.0308 11.7103 41.1939 12.0612C41.3571 12.4122 41.598 12.7214 41.8984 12.9655V13.5971C39.8111 13.9457 37.8846 14.9365 36.3869 16.4316C34.8893 17.9267 33.8951 19.8515 33.5429 21.9381C33.0916 21.9705 32.6705 22.1766 32.368 22.513C32.0655 22.8495 31.9053 23.2901 31.921 23.7422C31.9367 24.1944 32.127 24.6229 32.4521 24.9375C32.7772 25.2522 33.2116 25.4286 33.664 25.4296H53.5565C54.0087 25.4262 54.442 25.2476 54.7653 24.9314C55.0886 24.6152 55.2767 24.186 55.2902 23.734C55.3036 23.282 55.1414 22.8423 54.8375 22.5075C54.5336 22.1726 54.1117 21.9685 53.6606 21.9381ZM43.6098 9.74836C43.8455 9.74836 44.0758 9.81825 44.2718 9.94919C44.4677 10.0801 44.6205 10.2662 44.7106 10.484C44.8008 10.7017 44.8244 10.9413 44.7784 11.1724C44.7324 11.4036 44.619 11.6159 44.4523 11.7825C44.2856 11.9492 44.0733 12.0626 43.8422 12.1086C43.611 12.1546 43.3714 12.131 43.1537 12.0408C42.936 11.9505 42.7499 11.7978 42.619 11.6018C42.4881 11.4059 42.4182 11.1755 42.4182 10.9398C42.4185 10.6238 42.5441 10.3208 42.7676 10.0973C42.9911 9.87386 43.2941 9.74823 43.6101 9.748L43.6098 9.74836ZM43.6098 14.8933C45.63 14.8993 47.5864 15.6011 49.1498 16.8805C50.7132 18.16 51.7881 19.9389 52.1937 21.9179H35.0264C35.432 19.9389 36.5069 18.16 38.0702 16.8806C39.6335 15.6012 41.5899 14.8994 43.61 14.8933H43.6098ZM53.5565 23.9765H33.664C33.5837 23.9765 33.5067 23.9446 33.4499 23.8878C33.3932 23.8311 33.3613 23.7541 33.3613 23.6738C33.3613 23.5935 33.3932 23.5165 33.4499 23.4597C33.5067 23.4029 33.5837 23.371 33.664 23.371H53.5565C53.6368 23.371 53.7138 23.4029 53.7706 23.4597C53.8274 23.5165 53.8593 23.5935 53.8593 23.6738C53.8593 23.7541 53.8274 23.8311 53.7706 23.8878C53.7138 23.9446 53.6368 23.9765 53.5565 23.9765Z" fill="#4C70D6"/>
  <path d="M40.2146 40.925L40.2025 40.9123C39.8333 40.5108 39.0693 39.8528 38.0304 39.8528C37.2652 39.8528 36.4908 40.2229 35.7902 40.9229L34.034 42.6795C33.1128 43.5948 31.8662 44.1073 30.5676 44.1045C29.2691 44.1017 28.0246 43.5839 27.1074 42.6647L16.2341 31.7452L16.2331 31.7441L16.2173 31.7282C15.3065 30.8026 14.8 29.5534 14.8091 28.2549C14.8182 26.9563 15.3421 25.7144 16.2657 24.8016L17.9795 23.1121C18.7342 22.3574 19.1012 21.6105 19.1012 20.8266C19.1012 20.0426 18.7342 19.2958 17.9822 18.5437C17.7556 18.3147 12.4462 12.9515 11.7074 12.2576L11.6813 12.2312C11.0186 11.5685 10.2645 11.2183 9.49842 11.2183C8.73892 11.2183 7.9661 11.5669 7.26364 12.2265C7.25806 12.2317 7.25262 12.237 7.24729 12.2424L3.35703 16.1335C2.30454 17.1544 1.66527 18.5275 1.56145 19.9902C1.37896 22.2167 1.78729 24.5203 2.8844 27.4573C4.63929 32.1991 7.29355 36.6214 11.2399 41.3775C16.0254 47.0897 21.7828 51.5987 28.3554 54.7805C30.7796 55.9398 34.014 57.2993 37.5367 57.5249C37.7324 57.5378 37.9334 57.5378 38.1109 57.5378C40.0987 57.5378 41.6329 56.8871 42.9395 55.49C42.9457 55.4835 42.9517 55.4767 42.9577 55.4699L46.5377 51.8119C47.9651 50.3244 47.9545 48.6506 46.5113 47.2214L40.2146 40.925ZM8.26666 13.2788C8.69206 12.8817 9.11794 12.6719 9.49878 12.6719C9.96814 12.6719 10.386 12.9912 10.653 13.2583L10.6873 13.2926C10.6934 13.2988 10.6994 13.3047 10.706 13.3106C11.3851 13.9452 16.8939 19.5106 16.9525 19.5691C17.4142 20.0309 17.6484 20.4541 17.6484 20.8271C17.6484 21.2 17.4142 21.6232 16.9561 22.0815L16.5202 22.5112L7.77719 13.7683L8.26666 13.2788ZM44.1138 52.1814C43.3255 52.9169 42.5763 53.6931 41.8692 54.507C40.8447 55.598 39.685 56.0847 38.1108 56.0847C37.9484 56.0847 37.7805 56.0847 37.6313 56.0748C34.3553 55.8652 31.2883 54.5724 28.9852 53.4713C22.6019 50.3811 17.0061 45.9983 12.3557 40.4473C8.52035 35.8238 5.94383 31.536 4.24671 26.9509C3.22722 24.2219 2.84589 22.1119 3.0107 20.1005C3.08915 18.9881 3.57572 17.9438 4.377 17.1682L6.75044 14.7956L15.486 23.5313L15.2465 23.7673C14.0494 24.9502 13.3701 26.5595 13.3577 28.2424C13.3452 29.9253 14.0006 31.5445 15.18 32.745L26.0785 43.69C27.2678 44.8819 28.8813 45.5533 30.5651 45.5569C32.2488 45.5605 33.8652 44.8961 35.0596 43.7093L35.0692 43.6997L35.3617 43.4072L44.1254 52.1708L44.1138 52.1814ZM45.5192 50.7743C45.4857 50.8039 45.455 50.8366 45.4274 50.8719C45.3392 50.9661 45.2499 51.0589 45.1597 51.1504L36.3885 42.3791L36.8178 41.9498C37.0585 41.7091 37.5361 41.3053 38.03 41.3053C38.5395 41.3053 38.9755 41.7231 39.1394 41.9028C39.1462 41.9103 39.1533 41.9177 39.1605 41.925L45.4863 48.2508C46.3701 49.1264 46.381 49.8599 45.5194 50.7743H45.5192Z" fill="#4C70D6"/>
  <path d="M7.14644 25.7547C6.9803 25.3495 6.81949 24.9379 6.66993 24.5316C6.60321 24.3509 6.46741 24.204 6.2924 24.1233C6.11739 24.0427 5.91751 24.0349 5.73673 24.1016C5.55594 24.1683 5.40907 24.3041 5.32842 24.4791C5.24777 24.6541 5.23994 24.854 5.30666 25.0348C5.46263 25.4575 5.62926 25.8851 5.80181 26.3063C5.87788 26.4801 6.01894 26.6173 6.19483 26.6885C6.37073 26.7597 6.5675 26.7593 6.74308 26.6873C6.91865 26.6153 7.0591 26.4775 7.13439 26.3033C7.20967 26.1291 7.21382 25.9324 7.14595 25.7552L7.14644 25.7547Z" fill="#4C70D6"/>
  <path d="M8.12493 27.9456C8.08342 27.8597 8.02539 27.7828 7.95416 27.7193C7.88293 27.6558 7.79989 27.607 7.70979 27.5756C7.61969 27.5442 7.52428 27.5309 7.42902 27.5364C7.33376 27.5418 7.24052 27.566 7.15461 27.6075C7.06869 27.649 6.9918 27.7071 6.92831 27.7783C6.86483 27.8495 6.81599 27.9326 6.7846 28.0227C6.7532 28.1128 6.73986 28.2082 6.74534 28.3034C6.75081 28.3987 6.775 28.4919 6.81651 28.5779C8.47077 32.0017 10.7097 35.3954 13.661 38.9523C13.7849 39.0976 13.9611 39.1883 14.1514 39.2046C14.3416 39.221 14.5307 39.1619 14.6777 39.0399C14.8246 38.918 14.9177 38.743 14.9367 38.553C14.9557 38.363 14.8991 38.1731 14.7792 38.0245C11.9046 34.559 9.72736 31.2621 8.12493 27.9456Z" fill="#4C70D6"/>
</svg>
