<svg width="57" height="57" viewBox="0 0 57 57" fill="none" xmlns="http://www.w3.org/2000/svg">
  <path d="M49.1795 38.4998L43.5835 46.5398L39.6345 43.2988C39.2085 42.9478 38.5775 43.0108 38.2275 43.4368C37.8765 43.8638 37.9385 44.4948 38.3665 44.8438L43.1525 48.7728C43.3315 48.9208 43.5565 48.9998 43.7865 48.9998C43.8315 48.9998 43.8775 48.9968 43.9235 48.9898C44.1995 48.9518 44.4475 48.7998 44.6075 48.5708L50.8215 39.6418C51.1365 39.1888 51.0255 38.5658 50.5715 38.2498C50.1175 37.9328 49.4955 38.0458 49.1795 38.4998Z" fill="#4C70D6"/>
  <path d="M54 35.705V12.176C54 5.462 48.538 0 41.824 0H12.176C5.462 0 0 5.462 0 12.176V41.824C0 48.538 5.462 54 12.176 54H35.705C37.958 55.872 40.849 57 44 57C51.168 57 57 51.168 57 44C57 40.849 55.872 37.958 54 35.705ZM12.176 52C6.565 52 2 47.436 2 41.824V12.176C2 6.564 6.565 2 12.176 2H41.824C47.435 2 52 6.564 52 12.176V33.768C51.925 33.709 51.845 33.659 51.769 33.602C51.559 33.444 51.349 33.287 51.129 33.142C51.106 33.127 51.081 33.114 51.058 33.099C50.544 32.765 50.003 32.471 49.442 32.211C49.366 32.176 49.292 32.136 49.216 32.102C48.996 32.005 48.771 31.922 48.545 31.837C48.402 31.783 48.259 31.728 48.114 31.679C47.907 31.61 47.698 31.549 47.487 31.49C47.308 31.44 47.128 31.393 46.947 31.351C46.756 31.307 46.566 31.264 46.372 31.228C46.142 31.185 45.91 31.152 45.677 31.122C45.521 31.102 45.366 31.077 45.208 31.062C44.808 31.023 44.405 31 44 31C37.866 31 32.723 35.276 31.363 41H27C26.448 41 26 41.447 26 42C26 42.553 26.448 43 27 43H31.051C31.025 43.331 31 43.663 31 44C31 44.405 31.024 44.808 31.061 45.208C31.076 45.367 31.1 45.522 31.121 45.679C31.151 45.91 31.184 46.141 31.227 46.369C31.263 46.564 31.306 46.757 31.351 46.949C31.393 47.128 31.439 47.305 31.488 47.482C31.548 47.696 31.609 47.908 31.68 48.117C31.727 48.258 31.781 48.396 31.833 48.535C31.919 48.765 32.004 48.994 32.102 49.218C32.131 49.284 32.166 49.348 32.196 49.414C32.463 49.994 32.767 50.554 33.114 51.084C33.123 51.098 33.131 51.113 33.14 51.126C33.286 51.347 33.444 51.558 33.602 51.77C33.659 51.846 33.709 51.925 33.767 52H12.176ZM44 55C41.179 55 38.61 53.923 36.661 52.17C36.419 51.953 36.188 51.727 35.968 51.491C35.919 51.439 35.872 51.386 35.824 51.333C35.615 51.1 35.417 50.86 35.229 50.612C35.186 50.555 35.142 50.498 35.1 50.44C34.915 50.184 34.741 49.921 34.579 49.651C34.546 49.597 34.512 49.544 34.48 49.488C34.316 49.205 34.167 48.915 34.029 48.619C34.007 48.572 33.983 48.527 33.962 48.479C33.823 48.17 33.701 47.854 33.592 47.533C33.579 47.493 33.562 47.455 33.549 47.416C33.442 47.09 33.353 46.757 33.276 46.421C33.267 46.382 33.254 46.344 33.246 46.304C33.174 45.973 33.123 45.637 33.083 45.299C33.077 45.252 33.067 45.206 33.062 45.158C33.021 44.776 33 44.39 33 44C33 37.935 37.935 33 44 33C44.39 33 44.777 33.021 45.161 33.063C45.206 33.068 45.249 33.078 45.294 33.084C45.634 33.125 45.973 33.177 46.306 33.249C46.344 33.257 46.38 33.27 46.418 33.278C46.756 33.355 47.09 33.444 47.418 33.552C47.455 33.564 47.491 33.579 47.528 33.592C47.852 33.702 48.171 33.826 48.483 33.966C48.527 33.986 48.57 34.009 48.614 34.029C48.913 34.168 49.206 34.319 49.492 34.484C49.544 34.514 49.595 34.547 49.646 34.578C49.919 34.743 50.185 34.917 50.444 35.105C50.499 35.145 50.553 35.186 50.607 35.227C50.859 35.417 51.103 35.618 51.339 35.83C51.389 35.875 51.439 35.919 51.487 35.965C51.726 36.188 51.956 36.423 52.177 36.669C53.926 38.616 55 41.182 55 44C55 50.065 50.065 55 44 55Z" fill="#4C70D6"/>
  <path d="M27 14H45C45.552 14 46 13.553 46 13C46 12.447 45.552 12 45 12H27C26.448 12 26 12.447 26 13C26 13.553 26.448 14 27 14Z" fill="#4C70D6"/>
  <path d="M27 28H45C45.552 28 46 27.553 46 27C46 26.447 45.552 26 45 26H27C26.448 26 26 26.447 26 27C26 27.553 26.448 28 27 28Z" fill="#4C70D6"/>
  <path d="M19.1694 7.35024L12.9214 14.6382L9.10038 11.7712C8.65838 11.4402 8.03138 11.5292 7.70038 11.9712C7.36838 12.4122 7.45838 13.0392 7.90038 13.3702L12.4714 16.7992C12.6514 16.9342 12.8614 16.9992 13.0714 16.9992C13.3544 16.9992 13.6344 16.8802 13.8314 16.6492L20.6884 8.64924C21.0474 8.23024 20.9994 7.59924 20.5804 7.24024C20.1624 6.88224 19.5294 6.93024 19.1694 7.35024Z" fill="#4C70D6"/>
  <path d="M19.1694 21.3502L12.9214 28.6382L9.10038 25.7712C8.65838 25.4402 8.03138 25.5292 7.70038 25.9712C7.36838 26.4122 7.45838 27.0392 7.90038 27.3702L12.4714 30.7992C12.6514 30.9342 12.8614 30.9992 13.0714 30.9992C13.3544 30.9992 13.6344 30.8802 13.8314 30.6492L20.6884 22.6492C21.0474 22.2302 20.9994 21.5992 20.5804 21.2402C20.1624 20.8822 19.5294 20.9302 19.1694 21.3502Z" fill="#4C70D6"/>
  <path d="M19.1694 36.3501L12.9214 43.6371L9.10038 40.7711C8.65838 40.4411 8.03138 40.5291 7.70038 40.9711C7.36838 41.4121 7.45838 42.0391 7.90038 42.3701L12.4714 45.7991C12.6514 45.9341 12.8614 45.9991 13.0714 45.9991C13.3544 45.9991 13.6344 45.8801 13.8314 45.6491L20.6884 37.6501C21.0474 37.2311 20.9994 36.6001 20.5804 36.2411C20.1624 35.8821 19.5294 35.9301 19.1694 36.3501Z" fill="#4C70D6"/>
</svg>
