<svg width="1458" height="378" viewBox="0 0 1458 378" fill="none" xmlns="http://www.w3.org/2000/svg">
<circle cx="150" cy="205" r="150" fill="#4B70D6"/>
<circle cx="514" cy="205" r="150" fill="#4B70D6"/>
<circle cx="960" cy="205" r="150" fill="#4B70D6"/>
<circle cx="1308" cy="205" r="150" fill="#4B70D6"/>
<path d="M410.333 40.8335C384.828 15.3285 350.236 1 314.167 1C278.097 0.999997 243.505 15.3285 218 40.8335" stroke="#4B70D6" stroke-dasharray="6 6"/>
<path d="M403.985 48.5421L416.338 50.1349L417.931 37.7816L403.985 48.5421Z" fill="#4B70D6"/>
<path d="M1228.33 48.8335C1202.83 23.3285 1168.24 9 1132.17 9C1096.1 9 1061.5 23.3285 1036 48.8335" stroke="#4B70D6" stroke-dasharray="6 6"/>
<path d="M1221.98 56.5421L1234.34 58.1349L1235.93 45.7816L1221.98 56.5421Z" fill="#4B70D6"/>
<path d="M638.001 337.001C663.506 362.505 698.098 376.834 734.167 376.834C770.237 376.834 804.829 362.505 830.334 337.001" stroke="#4B70D6" stroke-dasharray="6 6"/>
<path d="M836.353 345.354L837.138 332.923L824.708 332.138L836.353 345.354Z" fill="#4B70D6"/>
<path d="M88.092 220H91.912L92.672 217.34H97.412L98.172 220H102.512L97.972 205.7H92.672L88.092 220ZM95.052 209.02L96.612 214.52H93.472L95.052 209.02ZM103.833 223.5H107.413V218.46C107.933 219.5 109.073 220.24 110.653 220.24C113.113 220.24 115.093 218.44 115.093 214.84V214.68C115.093 211.1 113.113 209.26 110.673 209.26C109.093 209.26 108.013 210.1 107.413 211.1V209.54H103.833V223.5ZM109.393 217.5C108.093 217.5 107.313 216.6 107.313 214.82V214.66C107.313 212.9 108.093 211.96 109.393 211.96C110.653 211.96 111.453 212.84 111.453 214.68V214.84C111.453 216.56 110.733 217.5 109.393 217.5ZM116.685 223.5H120.265V218.46C120.785 219.5 121.925 220.24 123.505 220.24C125.965 220.24 127.945 218.44 127.945 214.84V214.68C127.945 211.1 125.965 209.26 123.525 209.26C121.945 209.26 120.865 210.1 120.265 211.1V209.54H116.685V223.5ZM122.245 217.5C120.945 217.5 120.165 216.6 120.165 214.82V214.66C120.165 212.9 120.945 211.96 122.245 211.96C123.505 211.96 124.305 212.84 124.305 214.68V214.84C124.305 216.56 123.585 217.5 122.245 217.5ZM129.637 220H133.197V204.94H129.637V220ZM136.955 223.5H140.375L145.975 209.54H142.555L140.555 215.12L138.395 209.54H134.515L138.695 218.94L136.955 223.5ZM158.178 220.24C161.878 220.24 164.558 218.32 164.838 214.62H160.758C160.558 216.2 159.538 216.96 158.098 216.96C156.138 216.96 155.038 215.5 155.038 212.92V212.76C155.038 210.16 156.198 208.72 158.038 208.72C159.478 208.72 160.278 209.52 160.438 210.98H164.658C164.318 207.2 161.738 205.48 158.018 205.48C153.838 205.48 150.718 208.38 150.718 212.78V212.94C150.718 217.32 153.178 220.24 158.178 220.24ZM166.314 220H169.894V215.04C169.894 213.36 171.094 212.68 173.274 212.74V209.4C171.654 209.38 170.554 210.06 169.894 211.62V209.54H166.314V220ZM179.891 220.24C183.051 220.24 184.871 218.9 185.191 216.54H181.831C181.691 217.24 181.191 217.78 180.011 217.78C178.731 217.78 177.931 216.98 177.831 215.6H185.191V214.66C185.191 210.9 182.731 209.26 179.871 209.26C176.711 209.26 174.211 211.38 174.211 214.74V214.9C174.211 218.32 176.611 220.24 179.891 220.24ZM177.871 213.58C178.051 212.32 178.791 211.62 179.871 211.62C181.031 211.62 181.651 212.32 181.711 213.58H177.871ZM190.604 220.24C192.184 220.24 193.344 219.38 193.864 218.3V220H197.444V204.94H193.864V211.02C193.264 209.96 192.284 209.26 190.644 209.26C188.164 209.26 186.204 211.16 186.204 214.72V214.88C186.204 218.5 188.184 220.24 190.604 220.24ZM191.864 217.5C190.624 217.5 189.844 216.6 189.844 214.84V214.68C189.844 212.86 190.564 211.96 191.904 211.96C193.224 211.96 193.964 212.9 193.964 214.66V214.82C193.964 216.6 193.164 217.5 191.864 217.5ZM199.656 220H203.236V209.54H199.656V220ZM201.436 208.54C202.556 208.54 203.416 207.76 203.416 206.7C203.416 205.64 202.556 204.84 201.436 204.84C200.316 204.84 199.476 205.64 199.476 206.7C199.476 207.76 200.316 208.54 201.436 208.54ZM209.615 220.24C210.455 220.24 211.135 220.06 211.595 219.94V217.22C211.275 217.34 210.975 217.4 210.575 217.4C209.895 217.4 209.515 217.06 209.515 216.3V211.98H211.575V209.54H209.515V207.36H205.935V209.54H204.675V211.98H205.935V216.64C205.935 219.1 207.255 220.24 209.615 220.24ZM96.6153 250.18C99.4553 250.18 101.555 248.36 101.555 245.96C101.555 243.26 99.8753 242.3 96.6953 241.8C93.7753 241.36 93.2553 240.64 93.2553 239.24C93.2553 237.9 94.2753 236.92 96.2353 236.92C98.2153 236.92 99.2553 237.66 99.5953 239.46H101.155C100.875 236.92 99.0953 235.52 96.2353 235.52C93.5353 235.52 91.6353 237.2 91.6353 239.4C91.6353 241.94 93.4153 242.88 96.4153 243.34C99.1353 243.78 99.8753 244.46 99.8753 246.08C99.8753 247.7 98.4553 248.78 96.6153 248.78C93.7353 248.78 93.0553 247.34 92.8353 245.64H91.1553C91.4153 248.08 92.7953 250.18 96.6153 250.18ZM107.857 250.18C109.537 250.18 110.697 249.32 111.177 248.34V250H112.837V239.54H111.177V245.88C111.177 247.76 109.777 248.74 108.297 248.74C106.657 248.74 105.877 247.92 105.877 246.08V239.54H104.217V246.16C104.217 249.04 105.777 250.18 107.857 250.18ZM121.392 250.18C124.272 250.18 126.152 247.98 126.152 244.78V244.62C126.152 241.36 124.132 239.36 121.392 239.36C119.872 239.36 118.452 240.28 117.852 241.3V234.54H116.192V250H117.852V248.28C118.452 249.32 119.692 250.18 121.392 250.18ZM121.232 248.8C119.192 248.8 117.792 247.54 117.792 244.86V244.7C117.792 242.02 119.272 240.74 121.212 240.74C122.972 240.74 124.432 242.06 124.432 244.7V244.86C124.432 247.4 123.312 248.8 121.232 248.8ZM128.731 250H130.391V243.6C130.391 241.72 131.791 240.8 133.151 240.8C134.591 240.8 135.371 241.56 135.371 243.4V250H137.031V243.6C137.031 241.72 138.431 240.8 139.791 240.8C141.231 240.8 142.011 241.56 142.011 243.4V250H143.671V243.52C143.671 240.48 142.031 239.36 140.151 239.36C138.851 239.36 137.291 239.96 136.571 241.32C136.031 239.92 134.851 239.36 133.511 239.36C132.011 239.36 130.871 240.16 130.391 241.14V239.54H128.731V250ZM146.974 250H148.634V239.54H146.974V250ZM147.774 237.36C148.374 237.36 148.874 236.86 148.874 236.26C148.874 235.66 148.374 235.16 147.774 235.16C147.174 235.16 146.674 235.66 146.674 236.26C146.674 236.86 147.174 237.36 147.774 237.36ZM155.212 250.14C155.892 250.14 156.292 250.04 156.632 249.92V248.52C156.272 248.66 155.872 248.74 155.352 248.74C154.512 248.74 154.052 248.24 154.052 247.22V240.94H156.492V239.54H154.052V237.16H152.392V239.54H150.892V240.94H152.392V247.38C152.392 249.02 153.312 250.14 155.212 250.14ZM165.374 253.64H167.054L172.834 239.54H171.134L168.234 247.04L165.034 239.54H163.254L167.354 248.92L165.374 253.64ZM179.087 248.8C176.967 248.8 175.667 247.24 175.667 244.86V244.7C175.667 242.3 176.987 240.74 179.087 240.74C181.167 240.74 182.507 242.3 182.507 244.72V244.86C182.507 247.22 181.187 248.8 179.087 248.8ZM179.067 250.18C182.047 250.18 184.227 248 184.227 244.84V244.68C184.227 241.54 182.047 239.36 179.087 239.36C176.127 239.36 173.947 241.56 173.947 244.7V244.86C173.947 247.92 176.087 250.18 179.067 250.18ZM190.337 250.18C192.017 250.18 193.177 249.32 193.657 248.34V250H195.317V239.54H193.657V245.88C193.657 247.76 192.257 248.74 190.777 248.74C189.137 248.74 188.357 247.92 188.357 246.08V239.54H186.697V246.16C186.697 249.04 188.257 250.18 190.337 250.18ZM198.672 250H200.332V244.26C200.332 241.68 201.672 241.02 203.772 240.92V239.36C201.892 239.42 200.992 240.24 200.332 241.42V239.54H198.672V250ZM102.034 280.18C103.574 280.18 104.514 279.66 105.294 278.68V280H106.954V273.1C106.954 270.18 105.134 269.36 103.134 269.36C101.114 269.36 99.2144 270.24 98.9944 272.62H100.654C100.814 271.34 101.614 270.74 103.054 270.74C104.654 270.74 105.294 271.44 105.294 273.1V273.86H103.794C101.114 273.86 98.5544 274.68 98.5544 277.1C98.5544 279.24 100.094 280.18 102.034 280.18ZM102.194 278.86C100.734 278.86 100.214 278.18 100.214 277.1C100.214 275.56 101.754 275.04 103.854 275.04H105.294V276.34C105.294 277.96 103.954 278.86 102.194 278.86ZM110.215 283.64H111.875V278.28C112.475 279.32 113.695 280.18 115.415 280.18C118.295 280.18 120.175 277.98 120.175 274.78V274.62C120.175 271.36 118.155 269.36 115.415 269.36C113.895 269.36 112.475 270.28 111.875 271.3V269.54H110.215V283.64ZM115.255 278.8C113.215 278.8 111.815 277.54 111.815 274.86V274.7C111.815 272.02 113.295 270.74 115.235 270.74C116.995 270.74 118.455 272.06 118.455 274.7V274.86C118.455 277.4 117.335 278.8 115.255 278.8ZM122.754 283.64H124.414V278.28C125.014 279.32 126.234 280.18 127.954 280.18C130.834 280.18 132.714 277.98 132.714 274.78V274.62C132.714 271.36 130.694 269.36 127.954 269.36C126.434 269.36 125.014 270.28 124.414 271.3V269.54H122.754V283.64ZM127.794 278.8C125.754 278.8 124.354 277.54 124.354 274.86V274.7C124.354 272.02 125.834 270.74 127.774 270.74C129.534 270.74 130.994 272.06 130.994 274.7V274.86C130.994 277.4 129.874 278.8 127.794 278.8ZM135.333 280H137.013V264.54H135.333V280ZM140.45 280H142.11V269.54H140.45V280ZM141.25 267.36C141.85 267.36 142.35 266.86 142.35 266.26C142.35 265.66 141.85 265.16 141.25 265.16C140.65 265.16 140.15 265.66 140.15 266.26C140.15 266.86 140.65 267.36 141.25 267.36ZM149.848 280.18C152.368 280.18 154.188 278.5 154.408 276.24H152.868C152.688 277.94 151.348 278.8 149.868 278.8C147.848 278.8 146.448 277.44 146.448 274.88V274.72C146.448 272.26 147.908 270.74 149.808 270.74C151.248 270.74 152.448 271.36 152.708 273.02H154.348C154.028 270.36 151.988 269.36 149.808 269.36C147.008 269.36 144.728 271.52 144.728 274.72V274.88C144.728 278.12 146.928 280.18 149.848 280.18ZM159.534 280.18C161.074 280.18 162.014 279.66 162.794 278.68V280H164.454V273.1C164.454 270.18 162.634 269.36 160.634 269.36C158.614 269.36 156.714 270.24 156.494 272.62H158.154C158.314 271.34 159.114 270.74 160.554 270.74C162.154 270.74 162.794 271.44 162.794 273.1V273.86H161.294C158.614 273.86 156.054 274.68 156.054 277.1C156.054 279.24 157.594 280.18 159.534 280.18ZM159.694 278.86C158.234 278.86 157.714 278.18 157.714 277.1C157.714 275.56 159.254 275.04 161.354 275.04H162.794V276.34C162.794 277.96 161.454 278.86 159.694 278.86ZM170.895 280.14C171.575 280.14 171.975 280.04 172.315 279.92V278.52C171.955 278.66 171.555 278.74 171.035 278.74C170.195 278.74 169.735 278.24 169.735 277.22V270.94H172.175V269.54H169.735V267.16H168.075V269.54H166.575V270.94H168.075V277.38C168.075 279.02 168.995 280.14 170.895 280.14ZM174.865 280H176.525V269.54H174.865V280ZM175.665 267.36C176.265 267.36 176.765 266.86 176.765 266.26C176.765 265.66 176.265 265.16 175.665 265.16C175.065 265.16 174.565 265.66 174.565 266.26C174.565 266.86 175.065 267.36 175.665 267.36ZM184.282 278.8C182.162 278.8 180.862 277.24 180.862 274.86V274.7C180.862 272.3 182.182 270.74 184.282 270.74C186.362 270.74 187.702 272.3 187.702 274.72V274.86C187.702 277.22 186.382 278.8 184.282 278.8ZM184.262 280.18C187.242 280.18 189.422 278 189.422 274.84V274.68C189.422 271.54 187.242 269.36 184.282 269.36C181.322 269.36 179.142 271.56 179.142 274.7V274.86C179.142 277.92 181.282 280.18 184.262 280.18ZM191.993 280H193.653V273.66C193.653 271.78 195.033 270.8 196.573 270.8C198.253 270.8 199.033 271.62 199.033 273.46V280H200.693V273.58C200.693 270.54 199.173 269.36 197.013 269.36C195.293 269.36 194.133 270.22 193.653 271.2V269.54H191.993V280Z" fill="white"/>
<path d="M452.47 220H456.59V214.36H461.29V220H465.39V205.7H461.29V211.16H456.59V205.7H452.47V220ZM472.856 220.24C476.016 220.24 477.836 218.9 478.156 216.54H474.796C474.656 217.24 474.156 217.78 472.976 217.78C471.696 217.78 470.896 216.98 470.796 215.6H478.156V214.66C478.156 210.9 475.696 209.26 472.836 209.26C469.676 209.26 467.176 211.38 467.176 214.74V214.9C467.176 218.32 469.576 220.24 472.856 220.24ZM470.836 213.58C471.016 212.32 471.756 211.62 472.836 211.62C473.996 211.62 474.616 212.32 474.676 213.58H470.836ZM479.689 220H483.269V215.04C483.269 213.36 484.469 212.68 486.649 212.74V209.4C485.029 209.38 483.929 210.06 483.269 211.62V209.54H479.689V220ZM493.266 220.24C496.426 220.24 498.246 218.9 498.566 216.54H495.206C495.066 217.24 494.566 217.78 493.386 217.78C492.106 217.78 491.306 216.98 491.206 215.6H498.566V214.66C498.566 210.9 496.106 209.26 493.246 209.26C490.086 209.26 487.586 211.38 487.586 214.74V214.9C487.586 218.32 489.986 220.24 493.266 220.24ZM491.246 213.58C491.426 212.32 492.166 211.62 493.246 211.62C494.406 211.62 495.026 212.32 495.086 213.58H491.246ZM504.584 220H508.144V211.98H510.264V209.54H508.144V208.62C508.144 207.94 508.504 207.48 509.344 207.48C509.744 207.48 510.064 207.54 510.324 207.62V205C509.844 204.88 509.344 204.78 508.684 204.78C506.204 204.78 504.584 206.02 504.584 208.62V209.54H503.264V211.98H504.584V220ZM511.759 220H515.339V215.04C515.339 213.36 516.539 212.68 518.719 212.74V209.4C517.099 209.38 515.999 210.06 515.339 211.62V209.54H511.759V220ZM525.396 217.58C524.016 217.58 523.316 216.6 523.316 214.8V214.64C523.316 212.88 524.056 211.94 525.396 211.94C526.756 211.94 527.456 212.92 527.456 214.68V214.84C527.456 216.58 526.736 217.58 525.396 217.58ZM525.376 220.24C528.596 220.24 531.096 218.2 531.096 214.8V214.64C531.096 211.32 528.616 209.26 525.396 209.26C522.156 209.26 519.656 211.38 519.656 214.74V214.9C519.656 218.28 522.156 220.24 525.376 220.24ZM532.658 220H536.238V213.94C536.238 212.8 536.878 212.18 537.838 212.18C538.658 212.18 539.178 212.7 539.178 213.76V220H542.718V213.94C542.718 212.8 543.358 212.18 544.318 212.18C545.138 212.18 545.658 212.7 545.658 213.76V220H549.238V213.16C549.238 210.54 547.798 209.26 545.818 209.26C544.498 209.26 543.258 209.78 542.358 211C541.858 209.86 540.898 209.26 539.518 209.26C537.898 209.26 536.798 210.14 536.238 211.14V209.54H532.658V220ZM558.656 220.24C560.396 220.24 561.416 219.46 561.976 218.38V220H565.556V209.54H561.976V215.56C561.976 216.9 561.276 217.54 560.196 217.54C559.176 217.54 558.716 216.96 558.716 215.78V209.54H555.136V216.36C555.136 219 556.636 220.24 558.656 220.24ZM571.777 220.24C574.677 220.24 576.517 219.12 576.517 216.64C576.517 214.4 575.117 213.64 572.217 213.28C570.937 213.12 570.457 212.92 570.457 212.42C570.457 211.94 570.857 211.6 571.637 211.6C572.457 211.6 572.837 211.94 572.977 212.64H576.217C575.977 210.14 574.177 209.26 571.597 209.26C569.177 209.26 567.117 210.38 567.117 212.7C567.117 214.88 568.297 215.7 571.097 216.06C572.537 216.26 573.037 216.5 573.037 217C573.037 217.52 572.637 217.86 571.757 217.86C570.737 217.86 570.397 217.44 570.277 216.68H566.977C567.057 219 568.797 220.24 571.777 220.24ZM485.588 250H487.168L490.508 238.7L493.748 250H495.348L499.068 235.7H497.448L494.508 247.28L491.148 235.7H489.908L486.548 247.24L483.648 235.7H481.868L485.588 250ZM504.901 250.18C507.261 250.18 509.001 249.08 509.361 246.98H507.701C507.481 248.2 506.541 248.8 504.921 248.8C502.781 248.8 501.641 247.48 501.561 245.1H509.441V244.56C509.441 240.82 507.161 239.36 504.741 239.36C501.861 239.36 499.841 241.56 499.841 244.72V244.88C499.841 248.1 501.941 250.18 504.901 250.18ZM501.621 243.76C501.901 241.9 503.041 240.74 504.741 240.74C506.461 240.74 507.581 241.6 507.741 243.76H501.621ZM519.382 250H521.202L523.642 242.16L525.822 250H527.662L530.922 239.54H529.222L526.762 247.96L524.382 239.54H522.942L520.402 247.96L517.962 239.54H516.162L519.382 250ZM533.2 250H534.86V239.54H533.2V250ZM534 237.36C534.6 237.36 535.1 236.86 535.1 236.26C535.1 235.66 534.6 235.16 534 235.16C533.4 235.16 532.9 235.66 532.9 236.26C532.9 236.86 533.4 237.36 534 237.36ZM538.298 250H539.978V234.54H538.298V250ZM543.415 250H545.095V234.54H543.415V250ZM464.278 280.18C466.798 280.18 468.618 278.5 468.838 276.24H467.298C467.118 277.94 465.778 278.8 464.298 278.8C462.278 278.8 460.878 277.44 460.878 274.88V274.72C460.878 272.26 462.338 270.74 464.238 270.74C465.678 270.74 466.878 271.36 467.138 273.02H468.778C468.458 270.36 466.418 269.36 464.238 269.36C461.438 269.36 459.158 271.52 459.158 274.72V274.88C459.158 278.12 461.358 280.18 464.278 280.18ZM475.704 278.8C473.584 278.8 472.284 277.24 472.284 274.86V274.7C472.284 272.3 473.604 270.74 475.704 270.74C477.784 270.74 479.124 272.3 479.124 274.72V274.86C479.124 277.22 477.804 278.8 475.704 278.8ZM475.684 280.18C478.664 280.18 480.844 278 480.844 274.84V274.68C480.844 271.54 478.664 269.36 475.704 269.36C472.744 269.36 470.564 271.56 470.564 274.7V274.86C470.564 277.92 472.704 280.18 475.684 280.18ZM483.414 280H485.074V273.66C485.074 271.78 486.454 270.8 487.994 270.8C489.674 270.8 490.454 271.62 490.454 273.46V280H492.114V273.58C492.114 270.54 490.594 269.36 488.434 269.36C486.714 269.36 485.554 270.22 485.074 271.2V269.54H483.414V280ZM498.548 280.14C499.228 280.14 499.628 280.04 499.968 279.92V278.52C499.608 278.66 499.208 278.74 498.688 278.74C497.848 278.74 497.388 278.24 497.388 277.22V270.94H499.828V269.54H497.388V267.16H495.728V269.54H494.228V270.94H495.728V277.38C495.728 279.02 496.648 280.14 498.548 280.14ZM505.195 280.18C506.735 280.18 507.675 279.66 508.455 278.68V280H510.115V273.1C510.115 270.18 508.295 269.36 506.295 269.36C504.275 269.36 502.375 270.24 502.155 272.62H503.815C503.975 271.34 504.775 270.74 506.215 270.74C507.815 270.74 508.455 271.44 508.455 273.1V273.86H506.955C504.275 273.86 501.715 274.68 501.715 277.1C501.715 279.24 503.255 280.18 505.195 280.18ZM505.355 278.86C503.895 278.86 503.375 278.18 503.375 277.1C503.375 275.56 504.915 275.04 507.015 275.04H508.455V276.34C508.455 277.96 507.115 278.86 505.355 278.86ZM517.715 280.18C520.235 280.18 522.055 278.5 522.275 276.24H520.735C520.555 277.94 519.215 278.8 517.735 278.8C515.715 278.8 514.315 277.44 514.315 274.88V274.72C514.315 272.26 515.775 270.74 517.675 270.74C519.115 270.74 520.315 271.36 520.575 273.02H522.215C521.895 270.36 519.855 269.36 517.675 269.36C514.875 269.36 512.595 271.52 512.595 274.72V274.88C512.595 278.12 514.795 280.18 517.715 280.18ZM527.962 280.14C528.642 280.14 529.042 280.04 529.382 279.92V278.52C529.022 278.66 528.622 278.74 528.102 278.74C527.262 278.74 526.802 278.24 526.802 277.22V270.94H529.242V269.54H526.802V267.16H525.142V269.54H523.642V270.94H525.142V277.38C525.142 279.02 526.062 280.14 527.962 280.14ZM538.124 283.64H539.804L545.584 269.54H543.884L540.984 277.04L537.784 269.54H536.004L540.104 278.92L538.124 283.64ZM551.837 278.8C549.717 278.8 548.417 277.24 548.417 274.86V274.7C548.417 272.3 549.737 270.74 551.837 270.74C553.917 270.74 555.257 272.3 555.257 274.72V274.86C555.257 277.22 553.937 278.8 551.837 278.8ZM551.817 280.18C554.797 280.18 556.977 278 556.977 274.84V274.68C556.977 271.54 554.797 269.36 551.837 269.36C548.877 269.36 546.697 271.56 546.697 274.7V274.86C546.697 277.92 548.837 280.18 551.817 280.18ZM563.087 280.18C564.767 280.18 565.927 279.32 566.407 278.34V280H568.067V269.54H566.407V275.88C566.407 277.76 565.007 278.74 563.527 278.74C561.887 278.74 561.107 277.92 561.107 276.08V269.54H559.447V276.16C559.447 279.04 561.007 280.18 563.087 280.18Z" fill="white"/>
<path d="M903.442 215.24C908.062 215.24 910.442 212.5 910.442 208.86V207.1H903.722V209.96H906.402C906.322 211.1 905.562 212.12 903.562 212.12C901.082 212.12 900.222 210.32 900.222 208V207.84C900.222 205.26 901.442 203.7 903.462 203.7C904.982 203.7 905.842 204.4 906.042 205.74H910.102C909.822 202.02 906.822 200.48 903.442 200.48C899.142 200.48 895.942 203.42 895.942 207.78V207.94C895.942 212.22 898.582 215.24 903.442 215.24ZM917.244 215.24C920.404 215.24 922.224 213.9 922.544 211.54H919.184C919.044 212.24 918.544 212.78 917.364 212.78C916.084 212.78 915.284 211.98 915.184 210.6H922.544V209.66C922.544 205.9 920.084 204.26 917.224 204.26C914.064 204.26 911.564 206.38 911.564 209.74V209.9C911.564 213.32 913.964 215.24 917.244 215.24ZM915.224 208.58C915.404 207.32 916.144 206.62 917.224 206.62C918.384 206.62 919.004 207.32 919.064 208.58H915.224ZM928.238 215.24C929.078 215.24 929.758 215.06 930.218 214.94V212.22C929.898 212.34 929.598 212.4 929.198 212.4C928.518 212.4 928.138 212.06 928.138 211.3V206.98H930.198V204.54H928.138V202.36H924.558V204.54H923.298V206.98H924.558V211.64C924.558 214.1 925.878 215.24 928.238 215.24ZM934.996 215H938.816L939.576 212.34H944.316L945.076 215H949.416L944.876 200.7H939.576L934.996 215ZM941.956 204.02L943.516 209.52H940.376L941.956 204.02ZM950.738 218.5H954.318V213.46C954.838 214.5 955.978 215.24 957.558 215.24C960.018 215.24 961.998 213.44 961.998 209.84V209.68C961.998 206.1 960.018 204.26 957.578 204.26C955.998 204.26 954.918 205.1 954.318 206.1V204.54H950.738V218.5ZM956.298 212.5C954.998 212.5 954.218 211.6 954.218 209.82V209.66C954.218 207.9 954.998 206.96 956.298 206.96C957.558 206.96 958.358 207.84 958.358 209.68V209.84C958.358 211.56 957.638 212.5 956.298 212.5ZM963.589 218.5H967.169V213.46C967.689 214.5 968.829 215.24 970.409 215.24C972.869 215.24 974.849 213.44 974.849 209.84V209.68C974.849 206.1 972.869 204.26 970.429 204.26C968.849 204.26 967.769 205.1 967.169 206.1V204.54H963.589V218.5ZM969.149 212.5C967.849 212.5 967.069 211.6 967.069 209.82V209.66C967.069 207.9 967.849 206.96 969.149 206.96C970.409 206.96 971.209 207.84 971.209 209.68V209.84C971.209 211.56 970.489 212.5 969.149 212.5ZM976.441 215H980.021V210.04C980.021 208.36 981.221 207.68 983.401 207.74V204.4C981.781 204.38 980.681 205.06 980.021 206.62V204.54H976.441V215ZM990.078 212.58C988.698 212.58 987.998 211.6 987.998 209.8V209.64C987.998 207.88 988.738 206.94 990.078 206.94C991.438 206.94 992.138 207.92 992.138 209.68V209.84C992.138 211.58 991.418 212.58 990.078 212.58ZM990.058 215.24C993.278 215.24 995.778 213.2 995.778 209.8V209.64C995.778 206.32 993.298 204.26 990.078 204.26C986.838 204.26 984.338 206.38 984.338 209.74V209.9C984.338 213.28 986.838 215.24 990.058 215.24ZM999.771 215H1003.67L1007.49 204.54H1004.07L1001.93 211.28L999.751 204.54H995.931L999.771 215ZM1011.24 215.24C1012.92 215.24 1013.84 214.54 1014.34 213.78V215H1017.82V208.22C1017.82 205.44 1015.98 204.26 1013.1 204.26C1010.24 204.26 1008.26 205.5 1008.1 208.02H1011.46C1011.54 207.36 1011.9 206.78 1012.88 206.78C1014.02 206.78 1014.26 207.44 1014.26 208.44V208.68H1013.26C1009.78 208.68 1007.7 209.64 1007.7 212.1C1007.7 214.32 1009.36 215.24 1011.24 215.24ZM1012.48 212.82C1011.64 212.82 1011.24 212.44 1011.24 211.84C1011.24 210.98 1011.88 210.7 1013.32 210.7H1014.26V211.34C1014.26 212.24 1013.5 212.82 1012.48 212.82ZM1019.96 215H1023.52V199.94H1019.96V215ZM848.635 245.18C852.295 245.18 854.835 242.98 854.835 238.84V237.78H848.955V239.22H853.135C853.075 241.76 851.735 243.78 848.635 243.78C845.275 243.78 843.515 241.46 843.515 237.92V237.76C843.515 234.26 845.395 231.86 848.675 231.86C850.755 231.86 852.315 232.74 852.715 235.02H854.455C854.015 231.8 851.475 230.48 848.635 230.48C844.535 230.48 841.715 233.6 841.715 237.78V237.94C841.715 242.12 844.235 245.18 848.635 245.18ZM861.907 245.18C864.267 245.18 866.007 244.08 866.367 241.98H864.707C864.487 243.2 863.547 243.8 861.927 243.8C859.787 243.8 858.647 242.48 858.567 240.1H866.447V239.56C866.447 235.82 864.167 234.36 861.747 234.36C858.867 234.36 856.847 236.56 856.847 239.72V239.88C856.847 243.1 858.947 245.18 861.907 245.18ZM858.627 238.76C858.907 236.9 860.047 235.74 861.747 235.74C863.467 235.74 864.587 236.6 864.747 238.76H858.627ZM872.174 245.14C872.854 245.14 873.254 245.04 873.594 244.92V243.52C873.234 243.66 872.834 243.74 872.314 243.74C871.474 243.74 871.014 243.24 871.014 242.22V235.94H873.454V234.54H871.014V232.16H869.354V234.54H867.854V235.94H869.354V242.38C869.354 244.02 870.274 245.14 872.174 245.14ZM881.757 245H883.417V235.94H885.977V234.54H883.417V232.66C883.417 231.6 883.857 230.86 884.937 230.86C885.397 230.86 885.817 230.96 886.117 231.08V229.68C885.697 229.54 885.417 229.48 884.877 229.48C882.797 229.48 881.757 230.72 881.757 232.84V234.54H880.257V235.94H881.757V245ZM890.736 245.18C892.276 245.18 893.216 244.66 893.996 243.68V245H895.656V238.1C895.656 235.18 893.836 234.36 891.836 234.36C889.816 234.36 887.916 235.24 887.696 237.62H889.356C889.516 236.34 890.316 235.74 891.756 235.74C893.356 235.74 893.996 236.44 893.996 238.1V238.86H892.496C889.816 238.86 887.256 239.68 887.256 242.1C887.256 244.24 888.796 245.18 890.736 245.18ZM890.896 243.86C889.436 243.86 888.916 243.18 888.916 242.1C888.916 240.56 890.456 240.04 892.556 240.04H893.996V241.34C893.996 242.96 892.656 243.86 890.896 243.86ZM902.156 245.18C904.696 245.18 905.996 243.9 905.996 242C905.996 239.78 904.476 239.3 902.316 238.9C900.396 238.56 899.876 238.18 899.876 237.24C899.876 236.34 900.656 235.74 901.856 235.74C903.176 235.74 903.816 236.24 904.056 237.38H905.656C905.376 235.12 903.756 234.36 901.876 234.36C900.236 234.36 898.336 235.36 898.336 237.3C898.336 239.12 899.256 239.88 901.976 240.38C903.596 240.68 904.416 241.04 904.416 242.14C904.416 243.26 903.716 243.8 902.136 243.8C900.456 243.8 899.796 243.02 899.676 241.78H898.056C898.156 243.92 899.656 245.18 902.156 245.18ZM911.706 245.14C912.386 245.14 912.786 245.04 913.126 244.92V243.52C912.766 243.66 912.366 243.74 911.846 243.74C911.006 243.74 910.546 243.24 910.546 242.22V235.94H912.986V234.54H910.546V232.16H908.886V234.54H907.386V235.94H908.886V242.38C908.886 244.02 909.806 245.14 911.706 245.14ZM923.548 245.18C925.088 245.18 926.028 244.66 926.808 243.68V245H928.468V238.1C928.468 235.18 926.648 234.36 924.648 234.36C922.628 234.36 920.728 235.24 920.508 237.62H922.168C922.328 236.34 923.128 235.74 924.568 235.74C926.168 235.74 926.808 236.44 926.808 238.1V238.86H925.308C922.628 238.86 920.068 239.68 920.068 242.1C920.068 244.24 921.608 245.18 923.548 245.18ZM923.708 243.86C922.248 243.86 921.728 243.18 921.728 242.1C921.728 240.56 923.268 240.04 925.368 240.04H926.808V241.34C926.808 242.96 925.468 243.86 923.708 243.86ZM931.729 248.64H933.389V243.28C933.989 244.32 935.209 245.18 936.929 245.18C939.809 245.18 941.689 242.98 941.689 239.78V239.62C941.689 236.36 939.669 234.36 936.929 234.36C935.409 234.36 933.989 235.28 933.389 236.3V234.54H931.729V248.64ZM936.769 243.8C934.729 243.8 933.329 242.54 933.329 239.86V239.7C933.329 237.02 934.809 235.74 936.749 235.74C938.509 235.74 939.969 237.06 939.969 239.7V239.86C939.969 242.4 938.849 243.8 936.769 243.8ZM944.268 248.64H945.928V243.28C946.528 244.32 947.748 245.18 949.468 245.18C952.348 245.18 954.228 242.98 954.228 239.78V239.62C954.228 236.36 952.208 234.36 949.468 234.36C947.948 234.36 946.528 235.28 945.928 236.3V234.54H944.268V248.64ZM949.308 243.8C947.268 243.8 945.868 242.54 945.868 239.86V239.7C945.868 237.02 947.348 235.74 949.288 235.74C951.048 235.74 952.508 237.06 952.508 239.7V239.86C952.508 242.4 951.388 243.8 949.308 243.8ZM956.807 245H958.467V239.26C958.467 236.68 959.807 236.02 961.907 235.92V234.36C960.027 234.42 959.127 235.24 958.467 236.42V234.54H956.807V245ZM968.394 243.8C966.274 243.8 964.974 242.24 964.974 239.86V239.7C964.974 237.3 966.294 235.74 968.394 235.74C970.474 235.74 971.814 237.3 971.814 239.72V239.86C971.814 242.22 970.494 243.8 968.394 243.8ZM968.374 245.18C971.354 245.18 973.534 243 973.534 239.84V239.68C973.534 236.54 971.354 234.36 968.394 234.36C965.434 234.36 963.254 236.56 963.254 239.7V239.86C963.254 242.92 965.394 245.18 968.374 245.18ZM978.431 245H980.551L984.311 234.54H982.591L979.531 243.32L976.431 234.54H974.631L978.431 245ZM989.017 245.18C990.557 245.18 991.497 244.66 992.277 243.68V245H993.937V238.1C993.937 235.18 992.117 234.36 990.117 234.36C988.097 234.36 986.197 235.24 985.977 237.62H987.637C987.797 236.34 988.597 235.74 990.037 235.74C991.637 235.74 992.277 236.44 992.277 238.1V238.86H990.777C988.097 238.86 985.537 239.68 985.537 242.1C985.537 244.24 987.077 245.18 989.017 245.18ZM989.177 243.86C987.717 243.86 987.197 243.18 987.197 242.1C987.197 240.56 988.737 240.04 990.837 240.04H992.277V241.34C992.277 242.96 990.937 243.86 989.177 243.86ZM997.238 245H998.918V229.54H997.238V245ZM1009.71 245H1011.53L1013.97 237.16L1016.15 245H1017.99L1021.25 234.54H1019.55L1017.09 242.96L1014.71 234.54H1013.27L1010.73 242.96L1008.29 234.54H1006.49L1009.71 245ZM1023.53 245H1025.19V234.54H1023.53V245ZM1024.33 232.36C1024.93 232.36 1025.43 231.86 1025.43 231.26C1025.43 230.66 1024.93 230.16 1024.33 230.16C1023.73 230.16 1023.23 230.66 1023.23 231.26C1023.23 231.86 1023.73 232.36 1024.33 232.36ZM1031.76 245.14C1032.44 245.14 1032.84 245.04 1033.18 244.92V243.52C1032.82 243.66 1032.42 243.74 1031.9 243.74C1031.06 243.74 1030.6 243.24 1030.6 242.22V235.94H1033.04V234.54H1030.6V232.16H1028.94V234.54H1027.44V235.94H1028.94V242.38C1028.94 244.02 1029.86 245.14 1031.76 245.14ZM1035.69 245H1037.35V238.66C1037.35 236.78 1038.73 235.8 1040.27 235.8C1041.95 235.8 1042.73 236.62 1042.73 238.46V245H1044.39V238.58C1044.39 235.54 1042.87 234.36 1040.71 234.36C1038.99 234.36 1037.83 235.22 1037.35 236.2V229.54H1035.69V245ZM1047.69 245H1049.35V234.54H1047.69V245ZM1048.49 232.36C1049.09 232.36 1049.59 231.86 1049.59 231.26C1049.59 230.66 1049.09 230.16 1048.49 230.16C1047.89 230.16 1047.39 230.66 1047.39 231.26C1047.39 231.86 1047.89 232.36 1048.49 232.36ZM1052.74 245H1054.4V238.66C1054.4 236.78 1055.78 235.8 1057.32 235.8C1059 235.8 1059.78 236.62 1059.78 238.46V245H1061.44V238.58C1061.44 235.54 1059.92 234.36 1057.76 234.36C1056.04 234.36 1054.88 235.22 1054.4 236.2V234.54H1052.74V245ZM1068.69 245H1078.27V243.58H1071.37L1075.31 239.74C1077.07 238.02 1078.19 236.3 1078.19 234.54C1078.19 232.08 1076.51 230.52 1073.87 230.52C1071.15 230.52 1069.45 232.3 1069.23 235.1H1070.85C1071.13 232.86 1072.21 231.92 1073.87 231.92C1075.49 231.92 1076.43 232.88 1076.43 234.48C1076.43 235.94 1075.67 237.24 1074.37 238.62L1068.69 244.6V245ZM894.068 275.18C896.948 275.18 898.828 272.98 898.828 269.78V269.62C898.828 266.36 896.808 264.36 894.068 264.36C892.548 264.36 891.128 265.28 890.528 266.3V259.54H888.868V275H890.528V273.28C891.128 274.32 892.368 275.18 894.068 275.18ZM893.908 273.8C891.868 273.8 890.468 272.54 890.468 269.86V269.7C890.468 267.02 891.948 265.74 893.888 265.74C895.648 265.74 897.108 267.06 897.108 269.7V269.86C897.108 272.4 895.988 273.8 893.908 273.8ZM904.947 275.18C906.627 275.18 907.787 274.32 908.267 273.34V275H909.927V264.54H908.267V270.88C908.267 272.76 906.867 273.74 905.387 273.74C903.747 273.74 902.967 272.92 902.967 271.08V264.54H901.307V271.16C901.307 274.04 902.867 275.18 904.947 275.18ZM916.522 275.18C919.062 275.18 920.362 273.9 920.362 272C920.362 269.78 918.842 269.3 916.682 268.9C914.762 268.56 914.242 268.18 914.242 267.24C914.242 266.34 915.022 265.74 916.222 265.74C917.542 265.74 918.182 266.24 918.422 267.38H920.022C919.742 265.12 918.122 264.36 916.242 264.36C914.602 264.36 912.702 265.36 912.702 267.3C912.702 269.12 913.622 269.88 916.342 270.38C917.962 270.68 918.782 271.04 918.782 272.14C918.782 273.26 918.082 273.8 916.502 273.8C914.822 273.8 914.162 273.02 914.042 271.78H912.422C912.522 273.92 914.022 275.18 916.522 275.18ZM922.931 275H924.591V264.54H922.931V275ZM923.731 262.36C924.331 262.36 924.831 261.86 924.831 261.26C924.831 260.66 924.331 260.16 923.731 260.16C923.131 260.16 922.631 260.66 922.631 261.26C922.631 261.86 923.131 262.36 923.731 262.36ZM927.989 275H929.649V268.66C929.649 266.78 931.029 265.8 932.569 265.8C934.249 265.8 935.029 266.62 935.029 268.46V275H936.689V268.58C936.689 265.54 935.169 264.36 933.009 264.36C931.289 264.36 930.129 265.22 929.649 266.2V264.54H927.989V275ZM944.222 275.18C946.582 275.18 948.322 274.08 948.682 271.98H947.022C946.802 273.2 945.862 273.8 944.242 273.8C942.102 273.8 940.962 272.48 940.882 270.1H948.762V269.56C948.762 265.82 946.482 264.36 944.062 264.36C941.182 264.36 939.162 266.56 939.162 269.72V269.88C939.162 273.1 941.262 275.18 944.222 275.18ZM940.942 268.76C941.222 266.9 942.362 265.74 944.062 265.74C945.782 265.74 946.902 266.6 947.062 268.76H940.942ZM954.647 275.18C957.187 275.18 958.487 273.9 958.487 272C958.487 269.78 956.967 269.3 954.807 268.9C952.887 268.56 952.367 268.18 952.367 267.24C952.367 266.34 953.147 265.74 954.347 265.74C955.667 265.74 956.307 266.24 956.547 267.38H958.147C957.867 265.12 956.247 264.36 954.367 264.36C952.727 264.36 950.827 265.36 950.827 267.3C950.827 269.12 951.747 269.88 954.467 270.38C956.087 270.68 956.907 271.04 956.907 272.14C956.907 273.26 956.207 273.8 954.627 273.8C952.947 273.8 952.287 273.02 952.167 271.78H950.547C950.647 273.92 952.147 275.18 954.647 275.18ZM964.256 275.18C966.796 275.18 968.096 273.9 968.096 272C968.096 269.78 966.576 269.3 964.416 268.9C962.496 268.56 961.976 268.18 961.976 267.24C961.976 266.34 962.756 265.74 963.956 265.74C965.276 265.74 965.916 266.24 966.156 267.38H967.756C967.476 265.12 965.856 264.36 963.976 264.36C962.336 264.36 960.436 265.36 960.436 267.3C960.436 269.12 961.356 269.88 964.076 270.38C965.696 270.68 966.516 271.04 966.516 272.14C966.516 273.26 965.816 273.8 964.236 273.8C962.556 273.8 961.896 273.02 961.776 271.78H960.156C960.256 273.92 961.756 275.18 964.256 275.18ZM975.918 275H977.578V268.66C977.578 266.78 978.958 265.8 980.498 265.8C982.178 265.8 982.958 266.62 982.958 268.46V275H984.618V268.58C984.618 265.54 983.098 264.36 980.938 264.36C979.218 264.36 978.058 265.22 977.578 266.2V259.54H975.918V275ZM992.231 273.8C990.111 273.8 988.811 272.24 988.811 269.86V269.7C988.811 267.3 990.131 265.74 992.231 265.74C994.311 265.74 995.651 267.3 995.651 269.72V269.86C995.651 272.22 994.331 273.8 992.231 273.8ZM992.211 275.18C995.191 275.18 997.371 273 997.371 269.84V269.68C997.371 266.54 995.191 264.36 992.231 264.36C989.271 264.36 987.091 266.56 987.091 269.7V269.86C987.091 272.92 989.231 275.18 992.211 275.18ZM1003.48 275.18C1005.16 275.18 1006.32 274.32 1006.8 273.34V275H1008.46V264.54H1006.8V270.88C1006.8 272.76 1005.4 273.74 1003.92 273.74C1002.28 273.74 1001.5 272.92 1001.5 271.08V264.54H999.842V271.16C999.842 274.04 1001.4 275.18 1003.48 275.18ZM1011.82 275H1013.48V269.26C1013.48 266.68 1014.82 266.02 1016.92 265.92V264.36C1015.04 264.42 1014.14 265.24 1013.48 266.42V264.54H1011.82V275ZM1022.48 275.18C1025.02 275.18 1026.32 273.9 1026.32 272C1026.32 269.78 1024.8 269.3 1022.64 268.9C1020.72 268.56 1020.2 268.18 1020.2 267.24C1020.2 266.34 1020.98 265.74 1022.18 265.74C1023.5 265.74 1024.14 266.24 1024.38 267.38H1025.98C1025.7 265.12 1024.08 264.36 1022.2 264.36C1020.56 264.36 1018.66 265.36 1018.66 267.3C1018.66 269.12 1019.58 269.88 1022.3 270.38C1023.92 270.68 1024.74 271.04 1024.74 272.14C1024.74 273.26 1024.04 273.8 1022.46 273.8C1020.78 273.8 1020.12 273.02 1020 271.78H1018.38C1018.48 273.92 1019.98 275.18 1022.48 275.18ZM1029.99 275.1C1030.69 275.1 1031.27 274.54 1031.27 273.82C1031.27 273.1 1030.69 272.54 1029.99 272.54C1029.29 272.54 1028.71 273.1 1028.71 273.82C1028.71 274.54 1029.29 275.1 1029.99 275.1Z" fill="white"/>
<path d="M1237.82 220H1241.9V215.18H1243.44C1246.98 215.18 1249 213.56 1249 210.56V210.48C1249 207.44 1247.18 205.7 1243.26 205.7H1237.82V220ZM1241.9 212.38V208.78H1243.1C1244.38 208.78 1245.1 209.28 1245.1 210.5V210.58C1245.1 211.76 1244.4 212.38 1243.08 212.38H1241.9ZM1250.65 220H1254.21V204.94H1250.65V220ZM1259.37 220.24C1261.05 220.24 1261.97 219.54 1262.47 218.78V220H1265.95V213.22C1265.95 210.44 1264.11 209.26 1261.23 209.26C1258.37 209.26 1256.39 210.5 1256.23 213.02H1259.59C1259.67 212.36 1260.03 211.78 1261.01 211.78C1262.15 211.78 1262.39 212.44 1262.39 213.44V213.68H1261.39C1257.91 213.68 1255.83 214.64 1255.83 217.1C1255.83 219.32 1257.49 220.24 1259.37 220.24ZM1260.61 217.82C1259.77 217.82 1259.37 217.44 1259.37 216.84C1259.37 215.98 1260.01 215.7 1261.45 215.7H1262.39V216.34C1262.39 217.24 1261.63 217.82 1260.61 217.82ZM1272.93 220.24C1276.31 220.24 1278.09 218.52 1278.19 215.88H1274.97C1274.85 217.02 1274.15 217.62 1273.15 217.62C1271.79 217.62 1271.09 216.68 1271.09 214.86V214.7C1271.09 212.94 1271.83 212.04 1273.09 212.04C1274.13 212.04 1274.61 212.58 1274.77 213.56H1278.13C1277.93 210.38 1275.57 209.26 1273.01 209.26C1269.93 209.26 1267.43 211.26 1267.43 214.74V214.9C1267.43 218.42 1269.81 220.24 1272.93 220.24ZM1284.77 220.24C1287.93 220.24 1289.75 218.9 1290.07 216.54H1286.71C1286.57 217.24 1286.07 217.78 1284.89 217.78C1283.61 217.78 1282.81 216.98 1282.71 215.6H1290.07V214.66C1290.07 210.9 1287.61 209.26 1284.75 209.26C1281.59 209.26 1279.09 211.38 1279.09 214.74V214.9C1279.09 218.32 1281.49 220.24 1284.77 220.24ZM1282.75 213.58C1282.93 212.32 1283.67 211.62 1284.75 211.62C1285.91 211.62 1286.53 212.32 1286.59 213.58H1282.75ZM1298.49 220.24C1300.17 220.24 1301.09 219.54 1301.59 218.78V220H1305.07V213.22C1305.07 210.44 1303.23 209.26 1300.35 209.26C1297.49 209.26 1295.51 210.5 1295.35 213.02H1298.71C1298.79 212.36 1299.15 211.78 1300.13 211.78C1301.27 211.78 1301.51 212.44 1301.51 213.44V213.68H1300.51C1297.03 213.68 1294.95 214.64 1294.95 217.1C1294.95 219.32 1296.61 220.24 1298.49 220.24ZM1299.73 217.82C1298.89 217.82 1298.49 217.44 1298.49 216.84C1298.49 215.98 1299.13 215.7 1300.57 215.7H1301.51V216.34C1301.51 217.24 1300.75 217.82 1299.73 217.82ZM1307.11 220H1310.69V214.14C1310.69 212.8 1311.41 212.16 1312.47 212.16C1313.51 212.16 1313.97 212.74 1313.97 213.92V220H1317.55V213.2C1317.55 210.52 1316.15 209.26 1314.13 209.26C1312.39 209.26 1311.25 210.14 1310.69 211.22V209.54H1307.11V220ZM1330.67 217.02C1328.69 217.02 1327.37 215.52 1327.37 212.92V212.76C1327.37 210.16 1328.63 208.7 1330.65 208.7C1332.67 208.7 1333.95 210.2 1333.95 212.74V212.9C1333.95 215.46 1332.69 217.02 1330.67 217.02ZM1330.59 220.24C1335.21 220.24 1338.23 217.24 1338.23 212.84V212.68C1338.23 208.24 1335.01 205.5 1330.65 205.5C1326.37 205.5 1323.09 208.42 1323.09 212.78V212.94C1323.09 217.24 1325.97 220.24 1330.59 220.24ZM1339.92 220H1343.5V215.04C1343.5 213.36 1344.7 212.68 1346.88 212.74V209.4C1345.26 209.38 1344.16 210.06 1343.5 211.62V209.54H1339.92V220ZM1352.16 220.24C1353.74 220.24 1354.9 219.38 1355.42 218.3V220H1359V204.94H1355.42V211.02C1354.82 209.96 1353.84 209.26 1352.2 209.26C1349.72 209.26 1347.76 211.16 1347.76 214.72V214.88C1347.76 218.5 1349.74 220.24 1352.16 220.24ZM1353.42 217.5C1352.18 217.5 1351.4 216.6 1351.4 214.84V214.68C1351.4 212.86 1352.12 211.96 1353.46 211.96C1354.78 211.96 1355.52 212.9 1355.52 214.66V214.82C1355.52 216.6 1354.72 217.5 1353.42 217.5ZM1366.23 220.24C1369.39 220.24 1371.21 218.9 1371.53 216.54H1368.17C1368.03 217.24 1367.53 217.78 1366.35 217.78C1365.07 217.78 1364.27 216.98 1364.17 215.6H1371.53V214.66C1371.53 210.9 1369.07 209.26 1366.21 209.26C1363.05 209.26 1360.55 211.38 1360.55 214.74V214.9C1360.55 218.32 1362.95 220.24 1366.23 220.24ZM1364.21 213.58C1364.39 212.32 1365.13 211.62 1366.21 211.62C1367.37 211.62 1367.99 212.32 1368.05 213.58H1364.21ZM1373.07 220H1376.65V215.04C1376.65 213.36 1377.85 212.68 1380.03 212.74V209.4C1378.41 209.38 1377.31 210.06 1376.65 211.62V209.54H1373.07V220ZM1205.32 250.18C1208.98 250.18 1211.52 247.98 1211.52 243.84V242.78H1205.64V244.22H1209.82C1209.76 246.76 1208.42 248.78 1205.32 248.78C1201.96 248.78 1200.2 246.46 1200.2 242.92V242.76C1200.2 239.26 1202.08 236.86 1205.36 236.86C1207.44 236.86 1209 237.74 1209.4 240.02H1211.14C1210.7 236.8 1208.16 235.48 1205.32 235.48C1201.22 235.48 1198.4 238.6 1198.4 242.78V242.94C1198.4 247.12 1200.92 250.18 1205.32 250.18ZM1218.59 250.18C1220.95 250.18 1222.69 249.08 1223.05 246.98H1221.39C1221.17 248.2 1220.23 248.8 1218.61 248.8C1216.47 248.8 1215.33 247.48 1215.25 245.1H1223.13V244.56C1223.13 240.82 1220.85 239.36 1218.43 239.36C1215.55 239.36 1213.53 241.56 1213.53 244.72V244.88C1213.53 248.1 1215.63 250.18 1218.59 250.18ZM1215.31 243.76C1215.59 241.9 1216.73 240.74 1218.43 240.74C1220.15 240.74 1221.27 241.6 1221.43 243.76H1215.31ZM1228.86 250.14C1229.54 250.14 1229.94 250.04 1230.28 249.92V248.52C1229.92 248.66 1229.52 248.74 1229 248.74C1228.16 248.74 1227.7 248.24 1227.7 247.22V240.94H1230.14V239.54H1227.7V237.16H1226.04V239.54H1224.54V240.94H1226.04V247.38C1226.04 249.02 1226.96 250.14 1228.86 250.14ZM1238.44 250H1240.1V240.94H1242.66V239.54H1240.1V237.66C1240.1 236.6 1240.54 235.86 1241.62 235.86C1242.08 235.86 1242.5 235.96 1242.8 236.08V234.68C1242.38 234.54 1242.1 234.48 1241.56 234.48C1239.48 234.48 1238.44 235.72 1238.44 237.84V239.54H1236.94V240.94H1238.44V250ZM1247.42 250.18C1248.96 250.18 1249.9 249.66 1250.68 248.68V250H1252.34V243.1C1252.34 240.18 1250.52 239.36 1248.52 239.36C1246.5 239.36 1244.6 240.24 1244.38 242.62H1246.04C1246.2 241.34 1247 240.74 1248.44 240.74C1250.04 240.74 1250.68 241.44 1250.68 243.1V243.86H1249.18C1246.5 243.86 1243.94 244.68 1243.94 247.1C1243.94 249.24 1245.48 250.18 1247.42 250.18ZM1247.58 248.86C1246.12 248.86 1245.6 248.18 1245.6 247.1C1245.6 245.56 1247.14 245.04 1249.24 245.04H1250.68V246.34C1250.68 247.96 1249.34 248.86 1247.58 248.86ZM1258.84 250.18C1261.38 250.18 1262.68 248.9 1262.68 247C1262.68 244.78 1261.16 244.3 1259 243.9C1257.08 243.56 1256.56 243.18 1256.56 242.24C1256.56 241.34 1257.34 240.74 1258.54 240.74C1259.86 240.74 1260.5 241.24 1260.74 242.38H1262.34C1262.06 240.12 1260.44 239.36 1258.56 239.36C1256.92 239.36 1255.02 240.36 1255.02 242.3C1255.02 244.12 1255.94 244.88 1258.66 245.38C1260.28 245.68 1261.1 246.04 1261.1 247.14C1261.1 248.26 1260.4 248.8 1258.82 248.8C1257.14 248.8 1256.48 248.02 1256.36 246.78H1254.74C1254.84 248.92 1256.34 250.18 1258.84 250.18ZM1268.39 250.14C1269.07 250.14 1269.47 250.04 1269.81 249.92V248.52C1269.45 248.66 1269.05 248.74 1268.53 248.74C1267.69 248.74 1267.23 248.24 1267.23 247.22V240.94H1269.67V239.54H1267.23V237.16H1265.57V239.54H1264.07V240.94H1265.57V247.38C1265.57 249.02 1266.49 250.14 1268.39 250.14ZM1280.23 250.18C1281.77 250.18 1282.71 249.66 1283.49 248.68V250H1285.15V243.1C1285.15 240.18 1283.33 239.36 1281.33 239.36C1279.31 239.36 1277.41 240.24 1277.19 242.62H1278.85C1279.01 241.34 1279.81 240.74 1281.25 240.74C1282.85 240.74 1283.49 241.44 1283.49 243.1V243.86H1281.99C1279.31 243.86 1276.75 244.68 1276.75 247.1C1276.75 249.24 1278.29 250.18 1280.23 250.18ZM1280.39 248.86C1278.93 248.86 1278.41 248.18 1278.41 247.1C1278.41 245.56 1279.95 245.04 1282.05 245.04H1283.49V246.34C1283.49 247.96 1282.15 248.86 1280.39 248.86ZM1288.41 253.64H1290.07V248.28C1290.67 249.32 1291.89 250.18 1293.61 250.18C1296.49 250.18 1298.37 247.98 1298.37 244.78V244.62C1298.37 241.36 1296.35 239.36 1293.61 239.36C1292.09 239.36 1290.67 240.28 1290.07 241.3V239.54H1288.41V253.64ZM1293.45 248.8C1291.41 248.8 1290.01 247.54 1290.01 244.86V244.7C1290.01 242.02 1291.49 240.74 1293.43 240.74C1295.19 240.74 1296.65 242.06 1296.65 244.7V244.86C1296.65 247.4 1295.53 248.8 1293.45 248.8ZM1300.95 253.64H1302.61V248.28C1303.21 249.32 1304.43 250.18 1306.15 250.18C1309.03 250.18 1310.91 247.98 1310.91 244.78V244.62C1310.91 241.36 1308.89 239.36 1306.15 239.36C1304.63 239.36 1303.21 240.28 1302.61 241.3V239.54H1300.95V253.64ZM1305.99 248.8C1303.95 248.8 1302.55 247.54 1302.55 244.86V244.7C1302.55 242.02 1304.03 240.74 1305.97 240.74C1307.73 240.74 1309.19 242.06 1309.19 244.7V244.86C1309.19 247.4 1308.07 248.8 1305.99 248.8ZM1313.49 250H1315.15V244.26C1315.15 241.68 1316.49 241.02 1318.59 240.92V239.36C1316.71 239.42 1315.81 240.24 1315.15 241.42V239.54H1313.49V250ZM1325.08 248.8C1322.96 248.8 1321.66 247.24 1321.66 244.86V244.7C1321.66 242.3 1322.98 240.74 1325.08 240.74C1327.16 240.74 1328.5 242.3 1328.5 244.72V244.86C1328.5 247.22 1327.18 248.8 1325.08 248.8ZM1325.06 250.18C1328.04 250.18 1330.22 248 1330.22 244.84V244.68C1330.22 241.54 1328.04 239.36 1325.08 239.36C1322.12 239.36 1319.94 241.56 1319.94 244.7V244.86C1319.94 247.92 1322.08 250.18 1325.06 250.18ZM1335.11 250H1337.23L1340.99 239.54H1339.27L1336.21 248.32L1333.11 239.54H1331.31L1335.11 250ZM1345.7 250.18C1347.24 250.18 1348.18 249.66 1348.96 248.68V250H1350.62V243.1C1350.62 240.18 1348.8 239.36 1346.8 239.36C1344.78 239.36 1342.88 240.24 1342.66 242.62H1344.32C1344.48 241.34 1345.28 240.74 1346.72 240.74C1348.32 240.74 1348.96 241.44 1348.96 243.1V243.86H1347.46C1344.78 243.86 1342.22 244.68 1342.22 247.1C1342.22 249.24 1343.76 250.18 1345.7 250.18ZM1345.86 248.86C1344.4 248.86 1343.88 248.18 1343.88 247.1C1343.88 245.56 1345.42 245.04 1347.52 245.04H1348.96V246.34C1348.96 247.96 1347.62 248.86 1345.86 248.86ZM1353.92 250H1355.6V234.54H1353.92V250ZM1366.39 250H1368.21L1370.65 242.16L1372.83 250H1374.67L1377.93 239.54H1376.23L1373.77 247.96L1371.39 239.54H1369.95L1367.41 247.96L1364.97 239.54H1363.17L1366.39 250ZM1380.21 250H1381.87V239.54H1380.21V250ZM1381.01 237.36C1381.61 237.36 1382.11 236.86 1382.11 236.26C1382.11 235.66 1381.61 235.16 1381.01 235.16C1380.41 235.16 1379.91 235.66 1379.91 236.26C1379.91 236.86 1380.41 237.36 1381.01 237.36ZM1388.45 250.14C1389.13 250.14 1389.53 250.04 1389.87 249.92V248.52C1389.51 248.66 1389.11 248.74 1388.59 248.74C1387.75 248.74 1387.29 248.24 1387.29 247.22V240.94H1389.73V239.54H1387.29V237.16H1385.63V239.54H1384.13V240.94H1385.63V247.38C1385.63 249.02 1386.55 250.14 1388.45 250.14ZM1392.38 250H1394.04V243.66C1394.04 241.78 1395.42 240.8 1396.96 240.8C1398.64 240.8 1399.42 241.62 1399.42 243.46V250H1401.08V243.58C1401.08 240.54 1399.56 239.36 1397.4 239.36C1395.68 239.36 1394.52 240.22 1394.04 241.2V234.54H1392.38V250ZM1404.37 250H1406.03V239.54H1404.37V250ZM1405.17 237.36C1405.77 237.36 1406.27 236.86 1406.27 236.26C1406.27 235.66 1405.77 235.16 1405.17 235.16C1404.57 235.16 1404.07 235.66 1404.07 236.26C1404.07 236.86 1404.57 237.36 1405.17 237.36ZM1409.43 250H1411.09V243.66C1411.09 241.78 1412.47 240.8 1414.01 240.8C1415.69 240.8 1416.47 241.62 1416.47 243.46V250H1418.13V243.58C1418.13 240.54 1416.61 239.36 1414.45 239.36C1412.73 239.36 1411.57 240.22 1411.09 241.2V239.54H1409.43V250ZM1227.88 280H1237.46V278.58H1230.56L1234.5 274.74C1236.26 273.02 1237.38 271.3 1237.38 269.54C1237.38 267.08 1235.7 265.52 1233.06 265.52C1230.34 265.52 1228.64 267.3 1228.42 270.1H1230.04C1230.32 267.86 1231.4 266.92 1233.06 266.92C1234.68 266.92 1235.62 267.88 1235.62 269.48C1235.62 270.94 1234.86 272.24 1233.56 273.62L1227.88 279.6V280ZM1250.75 280.18C1253.63 280.18 1255.51 277.98 1255.51 274.78V274.62C1255.51 271.36 1253.49 269.36 1250.75 269.36C1249.23 269.36 1247.81 270.28 1247.21 271.3V264.54H1245.55V280H1247.21V278.28C1247.81 279.32 1249.05 280.18 1250.75 280.18ZM1250.59 278.8C1248.55 278.8 1247.15 277.54 1247.15 274.86V274.7C1247.15 272.02 1248.63 270.74 1250.57 270.74C1252.33 270.74 1253.79 272.06 1253.79 274.7V274.86C1253.79 277.4 1252.67 278.8 1250.59 278.8ZM1261.63 280.18C1263.31 280.18 1264.47 279.32 1264.95 278.34V280H1266.61V269.54H1264.95V275.88C1264.95 277.76 1263.55 278.74 1262.07 278.74C1260.43 278.74 1259.65 277.92 1259.65 276.08V269.54H1257.99V276.16C1257.99 279.04 1259.55 280.18 1261.63 280.18ZM1273.21 280.18C1275.75 280.18 1277.05 278.9 1277.05 277C1277.05 274.78 1275.53 274.3 1273.37 273.9C1271.45 273.56 1270.93 273.18 1270.93 272.24C1270.93 271.34 1271.71 270.74 1272.91 270.74C1274.23 270.74 1274.87 271.24 1275.11 272.38H1276.71C1276.43 270.12 1274.81 269.36 1272.93 269.36C1271.29 269.36 1269.39 270.36 1269.39 272.3C1269.39 274.12 1270.31 274.88 1273.03 275.38C1274.65 275.68 1275.47 276.04 1275.47 277.14C1275.47 278.26 1274.77 278.8 1273.19 278.8C1271.51 278.8 1270.85 278.02 1270.73 276.78H1269.11C1269.21 278.92 1270.71 280.18 1273.21 280.18ZM1279.61 280H1281.27V269.54H1279.61V280ZM1280.41 267.36C1281.01 267.36 1281.51 266.86 1281.51 266.26C1281.51 265.66 1281.01 265.16 1280.41 265.16C1279.81 265.16 1279.31 265.66 1279.31 266.26C1279.31 266.86 1279.81 267.36 1280.41 267.36ZM1284.67 280H1286.33V273.66C1286.33 271.78 1287.71 270.8 1289.25 270.8C1290.93 270.8 1291.71 271.62 1291.71 273.46V280H1293.37V273.58C1293.37 270.54 1291.85 269.36 1289.69 269.36C1287.97 269.36 1286.81 270.22 1286.33 271.2V269.54H1284.67V280ZM1300.91 280.18C1303.27 280.18 1305.01 279.08 1305.37 276.98H1303.71C1303.49 278.2 1302.55 278.8 1300.93 278.8C1298.79 278.8 1297.65 277.48 1297.57 275.1H1305.45V274.56C1305.45 270.82 1303.17 269.36 1300.75 269.36C1297.87 269.36 1295.85 271.56 1295.85 274.72V274.88C1295.85 278.1 1297.95 280.18 1300.91 280.18ZM1297.63 273.76C1297.91 271.9 1299.05 270.74 1300.75 270.74C1302.47 270.74 1303.59 271.6 1303.75 273.76H1297.63ZM1311.33 280.18C1313.87 280.18 1315.17 278.9 1315.17 277C1315.17 274.78 1313.65 274.3 1311.49 273.9C1309.57 273.56 1309.05 273.18 1309.05 272.24C1309.05 271.34 1309.83 270.74 1311.03 270.74C1312.35 270.74 1312.99 271.24 1313.23 272.38H1314.83C1314.55 270.12 1312.93 269.36 1311.05 269.36C1309.41 269.36 1307.51 270.36 1307.51 272.3C1307.51 274.12 1308.43 274.88 1311.15 275.38C1312.77 275.68 1313.59 276.04 1313.59 277.14C1313.59 278.26 1312.89 278.8 1311.31 278.8C1309.63 278.8 1308.97 278.02 1308.85 276.78H1307.23C1307.33 278.92 1308.83 280.18 1311.33 280.18ZM1320.94 280.18C1323.48 280.18 1324.78 278.9 1324.78 277C1324.78 274.78 1323.26 274.3 1321.1 273.9C1319.18 273.56 1318.66 273.18 1318.66 272.24C1318.66 271.34 1319.44 270.74 1320.64 270.74C1321.96 270.74 1322.6 271.24 1322.84 272.38H1324.44C1324.16 270.12 1322.54 269.36 1320.66 269.36C1319.02 269.36 1317.12 270.36 1317.12 272.3C1317.12 274.12 1318.04 274.88 1320.76 275.38C1322.38 275.68 1323.2 276.04 1323.2 277.14C1323.2 278.26 1322.5 278.8 1320.92 278.8C1319.24 278.8 1318.58 278.02 1318.46 276.78H1316.84C1316.94 278.92 1318.44 280.18 1320.94 280.18ZM1332.6 280H1334.26V273.66C1334.26 271.78 1335.64 270.8 1337.18 270.8C1338.86 270.8 1339.64 271.62 1339.64 273.46V280H1341.3V273.58C1341.3 270.54 1339.78 269.36 1337.62 269.36C1335.9 269.36 1334.74 270.22 1334.26 271.2V264.54H1332.6V280ZM1348.92 278.8C1346.8 278.8 1345.5 277.24 1345.5 274.86V274.7C1345.5 272.3 1346.82 270.74 1348.92 270.74C1351 270.74 1352.34 272.3 1352.34 274.72V274.86C1352.34 277.22 1351.02 278.8 1348.92 278.8ZM1348.9 280.18C1351.88 280.18 1354.06 278 1354.06 274.84V274.68C1354.06 271.54 1351.88 269.36 1348.92 269.36C1345.96 269.36 1343.78 271.56 1343.78 274.7V274.86C1343.78 277.92 1345.92 280.18 1348.9 280.18ZM1360.17 280.18C1361.85 280.18 1363.01 279.32 1363.49 278.34V280H1365.15V269.54H1363.49V275.88C1363.49 277.76 1362.09 278.74 1360.61 278.74C1358.97 278.74 1358.19 277.92 1358.19 276.08V269.54H1356.53V276.16C1356.53 279.04 1358.09 280.18 1360.17 280.18ZM1368.5 280H1370.16V274.26C1370.16 271.68 1371.5 271.02 1373.6 270.92V269.36C1371.72 269.42 1370.82 270.24 1370.16 271.42V269.54H1368.5V280ZM1379.16 280.18C1381.7 280.18 1383 278.9 1383 277C1383 274.78 1381.48 274.3 1379.32 273.9C1377.4 273.56 1376.88 273.18 1376.88 272.24C1376.88 271.34 1377.66 270.74 1378.86 270.74C1380.18 270.74 1380.82 271.24 1381.06 272.38H1382.66C1382.38 270.12 1380.76 269.36 1378.88 269.36C1377.24 269.36 1375.34 270.36 1375.34 272.3C1375.34 274.12 1376.26 274.88 1378.98 275.38C1380.6 275.68 1381.42 276.04 1381.42 277.14C1381.42 278.26 1380.72 278.8 1379.14 278.8C1377.46 278.8 1376.8 278.02 1376.68 276.78H1375.06C1375.16 278.92 1376.66 280.18 1379.16 280.18ZM1386.67 280.1C1387.37 280.1 1387.95 279.54 1387.95 278.82C1387.95 278.1 1387.37 277.54 1386.67 277.54C1385.97 277.54 1385.39 278.1 1385.39 278.82C1385.39 279.54 1385.97 280.1 1386.67 280.1Z" fill="white"/>
<path d="M170.179 161.5L164.583 169.54L160.634 166.299C160.208 165.948 159.577 166.011 159.227 166.437C158.876 166.864 158.938 167.495 159.366 167.844L164.152 171.773C164.331 171.921 164.556 172 164.786 172C164.831 172 164.877 171.997 164.923 171.99C165.199 171.952 165.447 171.8 165.607 171.571L171.821 162.642C172.136 162.189 172.025 161.566 171.571 161.25C171.117 160.933 170.495 161.046 170.179 161.5Z" fill="white"/>
<path d="M175 158.705V135.176C175 128.462 169.538 123 162.824 123H133.176C126.462 123 121 128.462 121 135.176V164.824C121 171.538 126.462 177 133.176 177H156.705C158.958 178.872 161.849 180 165 180C172.168 180 178 174.168 178 167C178 163.849 176.872 160.958 175 158.705ZM133.176 175C127.565 175 123 170.436 123 164.824V135.176C123 129.564 127.565 125 133.176 125H162.824C168.435 125 173 129.564 173 135.176V156.768C172.925 156.709 172.845 156.659 172.769 156.602C172.559 156.444 172.349 156.287 172.129 156.142C172.106 156.127 172.081 156.114 172.058 156.099C171.544 155.765 171.003 155.471 170.442 155.211C170.366 155.176 170.292 155.136 170.216 155.102C169.996 155.005 169.771 154.922 169.545 154.837C169.402 154.783 169.259 154.728 169.114 154.679C168.907 154.61 168.698 154.549 168.487 154.49C168.308 154.44 168.128 154.393 167.947 154.351C167.756 154.307 167.566 154.264 167.372 154.228C167.142 154.185 166.91 154.152 166.677 154.122C166.521 154.102 166.366 154.077 166.208 154.062C165.808 154.023 165.405 154 165 154C158.866 154 153.723 158.276 152.363 164H148C147.448 164 147 164.447 147 165C147 165.553 147.448 166 148 166H152.051C152.025 166.331 152 166.663 152 167C152 167.405 152.024 167.808 152.061 168.208C152.076 168.367 152.1 168.522 152.121 168.679C152.151 168.91 152.184 169.141 152.227 169.369C152.263 169.564 152.306 169.757 152.351 169.949C152.393 170.128 152.439 170.305 152.488 170.482C152.548 170.696 152.609 170.908 152.68 171.117C152.727 171.258 152.781 171.396 152.833 171.535C152.919 171.765 153.004 171.994 153.102 172.218C153.131 172.284 153.166 172.348 153.196 172.414C153.463 172.994 153.767 173.554 154.114 174.084C154.123 174.098 154.131 174.113 154.14 174.126C154.286 174.347 154.444 174.558 154.602 174.77C154.659 174.846 154.709 174.925 154.767 175H133.176ZM165 178C162.179 178 159.61 176.923 157.661 175.17C157.419 174.953 157.188 174.727 156.968 174.491C156.919 174.439 156.872 174.386 156.824 174.333C156.615 174.1 156.417 173.86 156.229 173.612C156.186 173.555 156.142 173.498 156.1 173.44C155.915 173.184 155.741 172.921 155.579 172.651C155.546 172.597 155.512 172.544 155.48 172.488C155.316 172.205 155.167 171.915 155.029 171.619C155.007 171.572 154.983 171.527 154.962 171.479C154.823 171.17 154.701 170.854 154.592 170.533C154.579 170.493 154.562 170.455 154.549 170.416C154.442 170.09 154.353 169.757 154.276 169.421C154.267 169.382 154.254 169.344 154.246 169.304C154.174 168.973 154.123 168.637 154.083 168.299C154.077 168.252 154.067 168.206 154.062 168.158C154.021 167.776 154 167.39 154 167C154 160.935 158.935 156 165 156C165.39 156 165.777 156.021 166.161 156.063C166.206 156.068 166.249 156.078 166.294 156.084C166.634 156.125 166.973 156.177 167.306 156.249C167.344 156.257 167.38 156.27 167.418 156.278C167.756 156.355 168.09 156.444 168.418 156.552C168.455 156.564 168.491 156.579 168.528 156.592C168.852 156.702 169.171 156.826 169.483 156.966C169.527 156.986 169.57 157.009 169.614 157.029C169.913 157.168 170.206 157.319 170.492 157.484C170.544 157.514 170.595 157.547 170.646 157.578C170.919 157.743 171.185 157.917 171.444 158.105C171.499 158.145 171.553 158.186 171.607 158.227C171.859 158.417 172.103 158.618 172.339 158.83C172.389 158.875 172.439 158.919 172.487 158.965C172.726 159.188 172.956 159.423 173.177 159.669C174.926 161.616 176 164.182 176 167C176 173.065 171.065 178 165 178Z" fill="white"/>
<path d="M148 137H166C166.552 137 167 136.553 167 136C167 135.447 166.552 135 166 135H148C147.448 135 147 135.447 147 136C147 136.553 147.448 137 148 137Z" fill="white"/>
<path d="M148 151H166C166.552 151 167 150.553 167 150C167 149.447 166.552 149 166 149H148C147.448 149 147 149.447 147 150C147 150.553 147.448 151 148 151Z" fill="white"/>
<path d="M140.169 130.35L133.921 137.638L130.1 134.771C129.658 134.44 129.031 134.529 128.7 134.971C128.368 135.412 128.458 136.039 128.9 136.37L133.471 139.799C133.651 139.934 133.861 139.999 134.071 139.999C134.354 139.999 134.634 139.88 134.831 139.649L141.688 131.649C142.047 131.23 141.999 130.599 141.58 130.24C141.162 129.882 140.529 129.93 140.169 130.35Z" fill="white"/>
<path d="M140.169 144.35L133.921 151.638L130.1 148.771C129.658 148.44 129.031 148.529 128.7 148.971C128.368 149.412 128.458 150.039 128.9 150.37L133.471 153.799C133.651 153.934 133.861 153.999 134.071 153.999C134.354 153.999 134.634 153.88 134.831 153.649L141.688 145.649C142.047 145.23 141.999 144.599 141.58 144.24C141.162 143.882 140.529 143.93 140.169 144.35Z" fill="white"/>
<path d="M140.169 159.35L133.921 166.637L130.1 163.771C129.658 163.441 129.031 163.529 128.7 163.971C128.368 164.412 128.458 165.039 128.9 165.37L133.471 168.799C133.651 168.934 133.861 168.999 134.071 168.999C134.354 168.999 134.634 168.88 134.831 168.649L141.688 160.65C142.047 160.231 141.999 159.6 141.58 159.241C141.162 158.882 140.529 158.93 140.169 159.35Z" fill="white"/>
<path d="M539.68 125.48H513.54C513.043 125.479 512.551 125.577 512.092 125.766C511.633 125.956 511.216 126.234 510.865 126.586C510.514 126.937 510.236 127.354 510.046 127.813C509.857 128.272 509.76 128.764 509.762 129.261V146.999C509.76 147.496 509.857 147.989 510.046 148.448C510.235 148.908 510.513 149.326 510.864 149.678C511.215 150.03 511.632 150.31 512.091 150.5C512.55 150.691 513.043 150.789 513.54 150.789H518.511C521.319 150.789 521.757 152.97 521.966 155.199C521.985 155.527 522.031 155.853 522.103 156.174C522.136 156.327 522.214 156.466 522.328 156.573C522.441 156.68 522.584 156.75 522.739 156.774C522.895 156.797 523.055 156.769 523.194 156.693C523.785 156.466 526.473 155.216 527.207 151.121C527.224 151.028 527.272 150.944 527.344 150.884C527.416 150.823 527.507 150.79 527.601 150.789H539.68C540.176 150.788 540.666 150.69 541.123 150.498C541.58 150.307 541.995 150.027 542.343 149.675C542.691 149.322 542.966 148.904 543.152 148.445C543.338 147.986 543.431 147.494 543.426 146.999V129.261C543.431 128.766 543.338 128.275 543.152 127.816C542.966 127.358 542.691 126.941 542.342 126.589C541.994 126.237 541.579 125.958 541.122 125.768C540.665 125.578 540.175 125.48 539.68 125.48ZM541.973 146.999C541.978 147.303 541.923 147.606 541.81 147.889C541.697 148.172 541.529 148.43 541.316 148.648C541.103 148.865 540.848 149.038 540.567 149.156C540.287 149.274 539.985 149.335 539.68 149.336H527.6C527.166 149.337 526.745 149.49 526.412 149.769C526.079 150.047 525.854 150.434 525.777 150.862C525.353 153.224 524.185 154.398 523.401 154.937C523.233 153.163 522.775 149.336 518.511 149.336H513.54C513.233 149.336 512.93 149.276 512.647 149.158C512.364 149.041 512.107 148.868 511.891 148.651C511.675 148.434 511.504 148.176 511.388 147.892C511.272 147.609 511.213 147.305 511.215 146.999V129.261C511.213 128.955 511.272 128.652 511.389 128.369C511.505 128.086 511.676 127.829 511.892 127.613C512.108 127.396 512.365 127.225 512.648 127.108C512.931 126.992 513.234 126.932 513.54 126.934H539.68C539.985 126.933 540.286 126.993 540.566 127.11C540.847 127.227 541.102 127.399 541.315 127.616C541.529 127.833 541.697 128.09 541.81 128.372C541.922 128.655 541.978 128.957 541.973 129.261V146.999Z" fill="white"/>
<path d="M536.661 142.938C536.305 140.85 535.307 138.925 533.807 137.43C532.307 135.936 530.378 134.945 528.289 134.597V133.965C528.591 133.722 528.835 133.414 529 133.063C529.166 132.712 529.25 132.328 529.246 131.94C529.248 131.591 529.181 131.245 529.049 130.922C528.918 130.599 528.723 130.306 528.477 130.058C528.232 129.811 527.939 129.614 527.617 129.48C527.295 129.346 526.95 129.277 526.601 129.277C526.252 129.277 525.907 129.346 525.585 129.48C525.263 129.614 524.971 129.811 524.725 130.058C524.479 130.306 524.285 130.599 524.153 130.922C524.021 131.245 523.954 131.591 523.957 131.94C523.95 132.327 524.031 132.71 524.194 133.061C524.357 133.412 524.598 133.721 524.898 133.965V134.597C522.811 134.946 520.885 135.937 519.387 137.432C517.889 138.927 516.895 140.852 516.543 142.938C516.092 142.971 515.67 143.177 515.368 143.513C515.066 143.849 514.905 144.29 514.921 144.742C514.937 145.194 515.127 145.623 515.452 145.938C515.777 146.252 516.212 146.429 516.664 146.43H536.557C537.009 146.426 537.442 146.248 537.765 145.931C538.089 145.615 538.277 145.186 538.29 144.734C538.304 144.282 538.141 143.842 537.837 143.507C537.534 143.173 537.112 142.969 536.661 142.938ZM526.61 130.748C526.845 130.748 527.076 130.818 527.272 130.949C527.468 131.08 527.62 131.266 527.711 131.484C527.801 131.702 527.824 131.941 527.778 132.172C527.732 132.404 527.619 132.616 527.452 132.783C527.286 132.949 527.073 133.063 526.842 133.109C526.611 133.155 526.371 133.131 526.154 133.041C525.936 132.951 525.75 132.798 525.619 132.602C525.488 132.406 525.418 132.175 525.418 131.94C525.418 131.624 525.544 131.321 525.768 131.097C525.991 130.874 526.294 130.748 526.61 130.748L526.61 130.748ZM526.61 135.893C528.63 135.899 530.586 136.601 532.15 137.881C533.713 139.16 534.788 140.939 535.194 142.918H518.026C518.432 140.939 519.507 139.16 521.07 137.881C522.634 136.601 524.59 135.899 526.61 135.893H526.61ZM536.557 144.977H516.664C516.584 144.977 516.507 144.945 516.45 144.888C516.393 144.831 516.361 144.754 516.361 144.674C516.361 144.593 516.393 144.516 516.45 144.46C516.507 144.403 516.584 144.371 516.664 144.371H536.557C536.637 144.371 536.714 144.403 536.771 144.46C536.827 144.516 536.859 144.593 536.859 144.674C536.859 144.754 536.827 144.831 536.771 144.888C536.714 144.945 536.637 144.977 536.557 144.977Z" fill="white"/>
<path d="M523.215 161.925L523.202 161.912C522.833 161.511 522.069 160.853 521.03 160.853C520.265 160.853 519.491 161.223 518.79 161.923L517.034 163.68C516.113 164.595 514.866 165.107 513.568 165.104C512.269 165.102 511.025 164.584 510.107 163.665L499.234 152.745L499.233 152.744L499.217 152.728C498.306 151.803 497.8 150.553 497.809 149.255C497.818 147.956 498.342 146.714 499.266 145.802L500.979 144.112C501.734 143.357 502.101 142.611 502.101 141.827C502.101 141.043 501.734 140.296 500.982 139.544C500.756 139.315 495.446 133.951 494.707 133.258L494.681 133.231C494.019 132.568 493.264 132.218 492.498 132.218C491.739 132.218 490.966 132.567 490.264 133.226C490.258 133.232 490.253 133.237 490.247 133.242L486.357 137.133C485.305 138.154 484.665 139.528 484.561 140.99C484.379 143.217 484.787 145.52 485.884 148.457C487.639 153.199 490.294 157.621 494.24 162.378C499.025 168.09 504.783 172.599 511.355 175.781C513.78 176.94 517.014 178.299 520.537 178.525C520.732 178.538 520.933 178.538 521.111 178.538C523.099 178.538 524.633 177.887 525.94 176.49C525.946 176.483 525.952 176.477 525.958 176.47L529.538 172.812C530.965 171.324 530.955 169.651 529.511 168.221L523.215 161.925ZM491.267 134.279C491.692 133.882 492.118 133.672 492.499 133.672C492.968 133.672 493.386 133.991 493.653 134.258L493.687 134.293C493.693 134.299 493.699 134.305 493.706 134.311C494.385 134.945 499.894 140.511 499.952 140.569C500.414 141.031 500.648 141.454 500.648 141.827C500.648 142.2 500.414 142.623 499.956 143.081L499.52 143.511L490.777 134.768L491.267 134.279ZM527.114 173.181C526.326 173.917 525.576 174.693 524.869 175.507C523.845 176.598 522.685 177.085 521.111 177.085C520.948 177.085 520.78 177.085 520.631 177.075C517.355 176.865 514.288 175.572 511.985 174.471C505.602 171.381 500.006 166.998 495.356 161.447C491.52 156.824 488.944 152.536 487.247 147.951C486.227 145.222 485.846 143.112 486.011 141.1C486.089 139.988 486.576 138.944 487.377 138.168L489.75 135.796L498.486 144.531L498.246 144.767C497.049 145.95 496.37 147.56 496.358 149.242C496.345 150.925 497.001 152.544 498.18 153.745L509.078 164.69C510.268 165.882 511.881 166.553 513.565 166.557C515.249 166.561 516.865 165.896 518.06 164.709L518.069 164.7L518.362 164.407L527.125 173.171L527.114 173.181ZM528.519 171.774C528.486 171.804 528.455 171.837 528.427 171.872C528.339 171.966 528.25 172.059 528.16 172.15L519.388 163.379L519.818 162.95C520.059 162.709 520.536 162.305 521.03 162.305C521.539 162.305 521.976 162.723 522.139 162.903C522.146 162.91 522.153 162.918 522.16 162.925L528.486 169.251C529.37 170.126 529.381 170.86 528.519 171.774H528.519Z" fill="white"/>
<path d="M490.146 146.755C489.98 146.35 489.819 145.938 489.67 145.532C489.603 145.351 489.467 145.204 489.292 145.123C489.117 145.043 488.918 145.035 488.737 145.102C488.556 145.168 488.409 145.304 488.328 145.479C488.248 145.654 488.24 145.854 488.307 146.035C488.463 146.458 488.629 146.885 488.802 147.306C488.878 147.48 489.019 147.617 489.195 147.689C489.371 147.76 489.568 147.759 489.743 147.687C489.919 147.615 490.059 147.477 490.134 147.303C490.21 147.129 490.214 146.932 490.146 146.755L490.146 146.755Z" fill="white"/>
<path d="M491.125 148.946C491.083 148.86 491.025 148.783 490.954 148.719C490.883 148.656 490.8 148.607 490.71 148.576C490.62 148.544 490.524 148.531 490.429 148.536C490.334 148.542 490.241 148.566 490.155 148.608C490.069 148.649 489.992 148.707 489.928 148.778C489.865 148.85 489.816 148.933 489.785 149.023C489.753 149.113 489.74 149.208 489.745 149.303C489.751 149.399 489.775 149.492 489.817 149.578C491.471 153.002 493.71 156.395 496.661 159.952C496.785 160.098 496.961 160.188 497.151 160.205C497.342 160.221 497.531 160.162 497.678 160.04C497.825 159.918 497.918 159.743 497.937 159.553C497.956 159.363 497.899 159.173 497.779 159.025C494.905 155.559 492.727 152.262 491.125 148.946Z" fill="white"/>
<g opacity="0.8" clip-path="url(#clip0)">
<path d="M950.029 136.671C949.698 136.411 949.219 136.47 948.96 136.801L945.435 141.301L943.47 139.849C943.132 139.599 942.655 139.67 942.405 140.009C942.155 140.347 942.227 140.824 942.565 141.074L945.125 142.966C945.457 143.212 945.923 143.148 946.178 142.823L950.159 137.74C950.418 137.409 950.36 136.93 950.029 136.671Z" fill="white"/>
<path d="M940.855 132.537C939.624 132.537 938.623 133.538 938.623 134.769V145.082C938.623 146.313 939.624 147.314 940.855 147.314H951.169C952.399 147.314 953.401 146.313 953.401 145.082V134.769C953.401 133.538 952.399 132.537 951.169 132.537H940.855ZM951.878 134.769V145.082C951.878 145.473 951.56 145.791 951.169 145.791H940.855C940.464 145.791 940.146 145.473 940.146 145.082V134.769C940.146 134.378 940.464 134.06 940.855 134.06H951.169C951.56 134.06 951.878 134.378 951.878 134.769Z" fill="white"/>
<path d="M955.02 178.477H938.41C936.959 178.477 935.779 177.297 935.779 175.846V132.154C935.779 130.703 936.959 129.523 938.41 129.523H963.233C963.335 129.523 963.436 129.534 963.536 129.55V134.765C963.536 137.055 965.399 138.918 967.689 138.918H972.904C972.92 139.018 972.931 139.119 972.931 139.221V145.553C972.931 145.974 973.272 146.315 973.692 146.315C974.113 146.315 974.454 145.974 974.454 145.553V139.221C974.454 138.331 974.107 137.495 973.478 136.865L965.588 128.976C964.959 128.347 964.123 128 963.233 128H938.41C936.119 128 934.256 129.863 934.256 132.154V175.846C934.256 178.137 936.119 180 938.41 180H955.02C955.44 180 955.781 179.659 955.781 179.238C955.781 178.818 955.44 178.477 955.02 178.477ZM971.853 137.395H967.689C966.239 137.395 965.059 136.215 965.059 134.765V130.601L971.853 137.395Z" fill="white"/>
<path d="M981.928 170.251H977.278C976.404 167.913 974.642 167.12 974.642 163.925V163.907C974.642 162.093 975.249 160.359 976.35 159.024C979.952 154.662 976.954 148.076 971.386 147.82C965.435 147.544 962.09 154.407 965.701 158.934C966.85 160.375 967.483 162.137 967.483 163.896V163.925C967.483 167.122 965.717 167.923 964.847 170.251H960.196C958.092 170.251 956.381 171.963 956.381 174.067V175.732C956.381 176.488 956.918 177.121 957.631 177.269V178.083C957.631 179.14 958.491 180 959.547 180H982.577C983.634 180 984.494 179.14 984.494 178.083V177.269C985.207 177.121 985.744 176.488 985.744 175.732V174.067C985.744 171.963 984.032 170.251 981.928 170.251ZM969.007 163.925V163.896C969.007 161.793 968.256 159.694 966.892 157.984C964.083 154.463 966.685 149.128 971.316 149.341C975.642 149.541 977.977 154.662 975.176 158.055C973.849 159.661 973.118 161.74 973.118 163.907V163.925C973.118 167.346 974.924 168.776 975.626 170.251H966.499C967.205 168.768 969.007 167.353 969.007 163.925ZM957.904 174.067C957.904 172.803 958.933 171.775 960.196 171.775H981.928C983.192 171.775 984.22 172.803 984.22 174.067V175.732C984.22 175.758 984.2 175.779 984.174 175.779H957.951C957.925 175.779 957.904 175.758 957.904 175.732V174.067ZM982.577 178.477H959.547C959.331 178.477 959.154 178.3 959.154 178.083V177.302H982.971V178.083C982.971 178.3 982.794 178.477 982.577 178.477Z" fill="white"/>
</g>
<path d="M1337.81 154.75H1334.5C1334.31 154.068 1333.91 153.465 1333.35 153.034C1332.78 152.603 1332.1 152.366 1331.39 152.359H1327.86V143.723C1327.86 143.562 1327.82 143.402 1327.75 143.26C1327.67 143.119 1327.55 143.001 1327.41 142.918L1302.5 128.529C1302.36 128.447 1302.2 128.404 1302.04 128.404C1301.88 128.404 1301.72 128.447 1301.58 128.529L1276.66 142.918C1276.52 143 1276.4 143.117 1276.32 143.259C1276.24 143.4 1276.19 143.56 1276.2 143.723V172.502C1276.2 172.665 1276.24 172.825 1276.32 172.966C1276.4 173.108 1276.52 173.225 1276.66 173.307L1301.58 187.696C1301.72 187.778 1301.88 187.821 1302.05 187.821C1302.22 187.821 1302.38 187.778 1302.53 187.696L1315.64 180.131V185.6C1315.64 186.12 1315.74 186.636 1315.94 187.117C1316.14 187.598 1316.43 188.035 1316.8 188.402C1317.17 188.769 1317.61 189.059 1318.09 189.256C1318.57 189.452 1319.09 189.551 1319.61 189.547H1337.81C1338.33 189.552 1338.85 189.453 1339.33 189.257C1339.82 189.061 1340.26 188.771 1340.63 188.404C1341 188.038 1341.29 187.601 1341.5 187.12C1341.7 186.638 1341.8 186.122 1341.8 185.6V158.758C1341.8 157.698 1341.38 156.68 1340.63 155.929C1339.89 155.178 1338.87 154.754 1337.81 154.75ZM1331.42 154.219C1331.78 154.219 1332.13 154.361 1332.38 154.614C1332.63 154.867 1332.77 155.21 1332.77 155.568V155.658C1332.77 156.016 1332.63 156.359 1332.38 156.612C1332.13 156.865 1331.78 157.008 1331.42 157.008H1326.02C1325.66 157.008 1325.32 156.865 1325.07 156.612C1324.81 156.359 1324.67 156.016 1324.67 155.658V155.568C1324.67 155.21 1324.81 154.867 1325.07 154.614C1325.32 154.361 1325.66 154.219 1326.02 154.219H1331.42ZM1302.05 130.408L1312.4 136.386L1289.34 149.701L1278.99 143.722L1302.05 130.408ZM1301.16 185.28L1278.05 171.965V145.331L1301.16 158.647V185.28ZM1302.05 157.037L1291.2 150.775L1314.26 137.46L1325.11 143.722L1302.05 157.037ZM1315.64 158.758V177.984L1303.02 185.28V158.647L1326 145.331V152.359H1326.03C1325.32 152.366 1324.63 152.603 1324.07 153.034C1323.51 153.465 1323.11 154.068 1322.92 154.75H1319.61C1318.55 154.755 1317.54 155.18 1316.8 155.932C1316.05 156.684 1315.64 157.7 1315.64 158.758ZM1339.95 185.6C1339.94 185.878 1339.89 186.153 1339.78 186.408C1339.67 186.664 1339.51 186.896 1339.31 187.09C1339.12 187.285 1338.88 187.437 1338.62 187.54C1338.36 187.642 1338.09 187.692 1337.81 187.687H1319.61C1319.33 187.692 1319.06 187.641 1318.8 187.538C1318.55 187.435 1318.31 187.282 1318.12 187.088C1317.92 186.893 1317.76 186.661 1317.66 186.406C1317.55 186.15 1317.5 185.876 1317.5 185.6V158.758C1317.5 158.479 1317.55 158.201 1317.65 157.942C1317.76 157.682 1317.91 157.446 1318.11 157.246C1318.31 157.046 1318.54 156.887 1318.8 156.778C1319.05 156.669 1319.33 156.611 1319.61 156.609H1322.96C1323.15 157.267 1323.56 157.843 1324.12 158.25C1324.67 158.657 1325.34 158.874 1326.03 158.867H1331.39C1332.08 158.874 1332.75 158.657 1333.3 158.25C1333.86 157.843 1334.27 157.267 1334.46 156.609H1337.81C1338.38 156.613 1338.92 156.841 1339.32 157.243C1339.72 157.646 1339.95 158.191 1339.95 158.758V185.6Z" fill="white"/>
<path d="M1320.68 168.164H1321.65C1321.9 168.164 1322.14 168.066 1322.31 167.892C1322.49 167.717 1322.58 167.481 1322.58 167.234C1322.58 166.988 1322.49 166.751 1322.31 166.577C1322.14 166.403 1321.9 166.305 1321.65 166.305H1321.62V163.781H1324.18C1324.24 163.968 1324.36 164.131 1324.52 164.244C1324.68 164.358 1324.87 164.416 1325.07 164.409C1325.31 164.41 1325.55 164.312 1325.72 164.139C1325.9 163.965 1326 163.728 1326 163.481V162.856C1326 162.608 1325.9 162.371 1325.72 162.196C1325.55 162.021 1325.31 161.922 1325.06 161.922H1320.68C1320.56 161.923 1320.44 161.947 1320.33 161.994C1320.21 162.042 1320.11 162.111 1320.03 162.198C1319.94 162.284 1319.87 162.387 1319.83 162.5C1319.78 162.613 1319.76 162.734 1319.76 162.856V167.235C1319.76 167.357 1319.78 167.478 1319.83 167.59C1319.87 167.703 1319.94 167.805 1320.03 167.892C1320.11 167.978 1320.21 168.046 1320.33 168.093C1320.44 168.14 1320.56 168.164 1320.68 168.164Z" fill="white"/>
<path d="M1320.69 176.664H1325.07C1325.32 176.664 1325.55 176.566 1325.73 176.392C1325.9 176.217 1326 175.981 1326 175.734V171.352C1326 171.105 1325.9 170.869 1325.73 170.694C1325.55 170.52 1325.32 170.422 1325.07 170.422H1320.69C1320.44 170.422 1320.2 170.52 1320.03 170.694C1319.86 170.869 1319.76 171.105 1319.76 171.352V175.734C1319.76 175.981 1319.86 176.217 1320.03 176.392C1320.2 176.566 1320.44 176.664 1320.69 176.664ZM1321.62 172.281H1324.14V174.805H1321.62V172.281Z" fill="white"/>
<path d="M1321.65 183.305H1321.62V180.781H1324.13C1324.14 181.026 1324.24 181.259 1324.41 181.43C1324.59 181.601 1324.82 181.697 1325.06 181.698C1325.31 181.698 1325.54 181.602 1325.72 181.431C1325.89 181.26 1325.99 181.028 1326 180.783V179.887C1326 179.636 1325.9 179.395 1325.73 179.215C1325.55 179.035 1325.31 178.93 1325.06 178.922H1320.68C1320.43 178.93 1320.2 179.036 1320.02 179.216C1319.85 179.397 1319.76 179.638 1319.76 179.887V184.267C1319.76 184.387 1319.78 184.506 1319.83 184.616C1319.88 184.727 1319.94 184.827 1320.03 184.911C1320.12 184.994 1320.22 185.06 1320.33 185.103C1320.44 185.147 1320.56 185.168 1320.68 185.164H1321.65C1321.9 185.164 1322.14 185.066 1322.31 184.892C1322.49 184.717 1322.58 184.481 1322.58 184.234C1322.58 183.988 1322.49 183.751 1322.31 183.577C1322.14 183.403 1321.9 183.305 1321.65 183.305Z" fill="white"/>
<path d="M1327.2 163.063L1324.48 165.785L1323.65 164.957C1323.56 164.871 1323.46 164.802 1323.35 164.756C1323.24 164.709 1323.11 164.685 1322.99 164.685C1322.87 164.685 1322.75 164.709 1322.64 164.756C1322.52 164.802 1322.42 164.871 1322.33 164.957C1322.25 165.043 1322.18 165.146 1322.13 165.259C1322.09 165.371 1322.06 165.492 1322.06 165.614C1322.06 165.737 1322.09 165.857 1322.13 165.97C1322.18 166.083 1322.25 166.186 1322.33 166.272L1323.82 167.758C1323.91 167.844 1324.01 167.912 1324.12 167.959C1324.24 168.006 1324.36 168.03 1324.48 168.03C1324.6 168.03 1324.72 168.006 1324.83 167.959C1324.95 167.912 1325.05 167.844 1325.14 167.758L1328.52 164.377C1328.69 164.203 1328.79 163.966 1328.79 163.72C1328.79 163.473 1328.69 163.237 1328.52 163.062C1328.34 162.888 1328.1 162.79 1327.86 162.79C1327.61 162.79 1327.38 162.888 1327.2 163.062L1327.2 163.063Z" fill="white"/>
<path d="M1327.2 180.228L1324.48 182.951L1323.65 182.123C1323.56 182.036 1323.46 181.968 1323.35 181.921C1323.24 181.874 1323.11 181.85 1322.99 181.85C1322.87 181.85 1322.75 181.874 1322.64 181.921C1322.52 181.968 1322.42 182.036 1322.33 182.123C1322.25 182.209 1322.18 182.311 1322.13 182.424C1322.09 182.537 1322.06 182.658 1322.06 182.78C1322.06 182.902 1322.09 183.023 1322.13 183.136C1322.18 183.249 1322.25 183.351 1322.33 183.437L1323.82 184.923C1323.91 185.009 1324.01 185.078 1324.12 185.125C1324.24 185.171 1324.36 185.195 1324.48 185.195C1324.6 185.195 1324.72 185.171 1324.83 185.125C1324.95 185.078 1325.05 185.009 1325.14 184.923L1328.52 181.543C1328.69 181.368 1328.79 181.132 1328.79 180.885C1328.79 180.639 1328.69 180.402 1328.52 180.228C1328.34 180.054 1328.1 179.956 1327.86 179.956C1327.61 179.956 1327.38 180.054 1327.2 180.228L1327.2 180.228Z" fill="white"/>
<path d="M1336.74 164.18H1330.9C1330.65 164.18 1330.42 164.278 1330.24 164.452C1330.07 164.626 1329.97 164.863 1329.97 165.109C1329.97 165.356 1330.07 165.592 1330.24 165.767C1330.42 165.941 1330.65 166.039 1330.9 166.039H1336.74C1336.99 166.039 1337.22 165.941 1337.4 165.767C1337.57 165.592 1337.67 165.356 1337.67 165.109C1337.67 164.863 1337.57 164.626 1337.4 164.452C1337.22 164.278 1336.99 164.18 1336.74 164.18Z" fill="white"/>
<path d="M1336.74 172.68H1330.9C1330.65 172.68 1330.42 172.778 1330.24 172.952C1330.07 173.126 1329.97 173.363 1329.97 173.609C1329.97 173.856 1330.07 174.092 1330.24 174.267C1330.42 174.441 1330.65 174.539 1330.9 174.539H1336.74C1336.99 174.539 1337.22 174.441 1337.4 174.267C1337.57 174.092 1337.67 173.856 1337.67 173.609C1337.67 173.363 1337.57 173.126 1337.4 172.952C1337.22 172.778 1336.99 172.68 1336.74 172.68Z" fill="white"/>
<path d="M1336.74 181.18H1330.9C1330.65 181.18 1330.42 181.278 1330.24 181.452C1330.07 181.626 1329.97 181.863 1329.97 182.109C1329.97 182.356 1330.07 182.592 1330.24 182.767C1330.42 182.941 1330.65 183.039 1330.9 183.039H1336.74C1336.99 183.039 1337.22 182.941 1337.4 182.767C1337.57 182.592 1337.67 182.356 1337.67 182.109C1337.67 181.863 1337.57 181.626 1337.4 181.452C1337.22 181.278 1336.99 181.18 1336.74 181.18Z" fill="white"/>
<defs>
<clipPath id="clip0">
<rect width="52" height="52" fill="white" transform="translate(934 128)"/>
</clipPath>
</defs>
</svg>
