<svg width="52" height="52" viewBox="0 0 52 52" fill="none" xmlns="http://www.w3.org/2000/svg">
  <g opacity="0.8" clip-path="url(#clip0)">
    <path d="M16.029 8.6709C15.6979 8.41141 15.219 8.46971 14.9597 8.8009L11.435 13.3009L9.47034 11.849C9.13203 11.5989 8.65509 11.6704 8.40505 12.0089C8.155 12.3472 8.2266 12.8241 8.56491 13.0741L11.1252 14.9664C11.4569 15.2115 11.9233 15.1482 12.1776 14.8235L16.159 9.74025C16.4184 9.40906 16.3602 8.93039 16.029 8.6709Z" fill="#4C70D6"/>
    <path d="M6.85529 4.53662C5.62445 4.53662 4.62305 5.53803 4.62305 6.76886V17.0822C4.62305 18.3131 5.62445 19.3145 6.85529 19.3145H17.1687C18.3995 19.3145 19.4009 18.3131 19.4009 17.0822V6.76886C19.4009 5.53793 18.3995 4.53662 17.1687 4.53662H6.85529ZM17.8776 6.76886V17.0822C17.8776 17.473 17.5596 17.791 17.1688 17.791H6.85529C6.46448 17.791 6.14648 17.473 6.14648 17.0822V6.76886C6.14648 6.37795 6.46448 6.06006 6.85529 6.06006H17.1687C17.5596 6.06006 17.8776 6.37795 17.8776 6.76886Z" fill="#4C70D6"/>
    <path d="M21.0196 50.4766H4.40956C2.95925 50.4766 1.7793 49.2966 1.7793 47.8463V4.1536C1.7793 2.70339 2.95915 1.52344 4.40956 1.52344H29.2329C29.3354 1.52344 29.4364 1.5337 29.5355 1.55035V6.76488C29.5355 9.05521 31.3989 10.9185 33.6891 10.9185H38.9036C38.9203 11.0177 38.9306 11.1186 38.9306 11.2211V17.5531C38.9306 17.9738 39.2716 18.3149 39.6923 18.3149C40.1129 18.3149 40.454 17.9738 40.454 17.5531V11.2211C40.454 10.3313 40.1075 9.49467 39.4783 8.86549L31.5884 0.975711C30.9592 0.346531 30.1226 0 29.2328 0H4.40956C2.11913 0 0.255859 1.86337 0.255859 4.1536V47.8463C0.255859 50.1366 2.11913 52 4.40956 52H21.0196C21.4403 52 21.7813 51.659 21.7813 51.2383C21.7813 50.8176 21.4403 50.4766 21.0196 50.4766ZM37.8534 9.39514H33.6891C32.2388 9.39514 31.059 8.21519 31.059 6.76498V2.60071L37.8534 9.39514Z" fill="#4C70D6"/>
    <path d="M47.9283 42.2513H43.2782C42.4041 39.9134 40.6417 39.1202 40.6417 35.9248V35.9067C40.6417 34.093 41.2485 32.3591 42.3505 31.0245C45.9524 26.6623 42.9537 20.0762 37.3858 19.8196C31.435 19.5438 28.0901 26.4073 31.7012 30.9344C32.8503 32.375 33.4833 34.1372 33.4833 35.8963V35.9248C33.4833 39.1221 31.7172 39.9228 30.8467 42.2513H26.1965C24.0925 42.2513 22.3809 43.963 22.3809 46.0669V47.7322C22.3809 48.4882 22.918 49.121 23.6308 49.2692V50.0834C23.6308 51.1402 24.4906 52.0001 25.5475 52.0001H48.5775C49.6343 52.0001 50.4942 51.1402 50.4942 50.0834V49.2692C51.2068 49.121 51.7441 48.4882 51.7441 47.7322V46.0669C51.7439 43.9629 50.0323 42.2513 47.9283 42.2513ZM35.0066 35.9248V35.8963C35.0066 33.7934 34.2556 31.6938 32.8922 29.9844C30.0835 26.4633 32.6851 21.1277 37.3156 21.3414C41.642 21.5408 43.9766 26.6621 41.1757 30.0545C39.8489 31.6615 39.1183 33.7397 39.1183 35.9067V35.9248C39.1183 39.3465 40.924 40.7756 41.6257 42.2513H32.4991C33.2046 40.7675 35.0066 39.353 35.0066 35.9248ZM23.9043 46.0669C23.9043 44.8029 24.9326 43.7747 26.1965 43.7747H47.9283C49.1922 43.7747 50.2205 44.803 50.2205 46.0669V47.7322C50.2205 47.7579 50.1995 47.7788 50.1738 47.7788H23.9509C23.9252 47.7788 23.9043 47.7579 23.9043 47.7322V46.0669ZM48.5774 50.4766H25.5474C25.3305 50.4766 25.1541 50.3002 25.1541 50.0834V49.3022H48.9705V50.0834C48.9706 50.3002 48.7942 50.4766 48.5774 50.4766Z" fill="#4C70D6"/>
  </g>
  <defs>
    <clipPath id="clip0">
      <rect width="52" height="52" fill="#4C70D6"/>
    </clipPath>
  </defs>
</svg>
