<svg width="69" height="70" viewBox="0 0 69 70" fill="none" xmlns="http://www.w3.org/2000/svg">
<ellipse cx="34.5" cy="35" rx="34.5" ry="35" fill="#D8EEFB"/>
<path d="M51.6034 39.7379L51.5955 39.7244C51.2353 39.1761 50.6855 38.7798 50.0514 38.6116C49.4172 38.4433 48.7433 38.5149 48.1586 38.8126L44.5541 40.6559C44.1224 40.0499 43.4873 39.6191 42.7645 39.4422C42.0417 39.2654 41.2794 39.3541 40.6166 39.6924L36.0773 42.0189C35.8405 42.1409 35.5777 42.2037 35.3114 42.202C35.045 42.2004 34.7831 42.1342 34.5478 42.0093L31.4541 40.3668C30.2833 39.7418 28.9622 39.4534 27.6374 39.5336C26.3127 39.6139 25.036 40.0596 23.9492 40.8213L23.5999 39.1552C23.5847 39.0827 23.5552 39.0139 23.5133 38.9528C23.4714 38.8917 23.4179 38.8394 23.3557 38.7991C23.2936 38.7587 23.2241 38.731 23.1512 38.7176C23.0783 38.7042 23.0035 38.7053 22.9311 38.7209L18.5689 39.662C18.4237 39.6933 18.2968 39.7808 18.2158 39.9054C18.1349 40.0299 18.1065 40.1815 18.1369 40.3269L20.6766 52.4279C20.7025 52.5548 20.7713 52.6688 20.8716 52.7508C20.9718 52.8328 21.0972 52.8777 21.2267 52.8779C21.2664 52.8777 21.306 52.8736 21.3448 52.8656L25.7093 51.9262C25.8546 51.8949 25.9816 51.8073 26.0626 51.6826C26.1435 51.5579 26.1718 51.4062 26.1413 51.2607L25.9163 50.1779L27.4075 49.8567C27.8421 49.7638 28.2895 49.7467 28.7299 49.8061L35.7431 50.5751C37.1992 50.7676 38.6755 50.4211 39.8938 49.6008L51.1286 42.0633C51.496 41.8147 51.7514 41.432 51.8401 40.9974C51.9288 40.5628 51.8439 40.1107 51.6034 39.7379ZM21.661 51.6438L19.3547 40.6441L22.6172 39.941L24.9235 50.9412L21.661 51.6438ZM50.5026 41.1307L39.2678 48.6682C38.2716 49.3364 37.0651 49.6165 35.8764 49.4557L28.8632 48.6867C28.2988 48.6107 27.7255 48.6335 27.1689 48.7542L25.6828 49.0737L24.2001 42.0189L24.5843 41.7511C25.5016 41.1056 26.5802 40.7273 27.6998 40.6584C28.8195 40.5894 29.9363 40.8326 30.9259 41.3607L34.0196 43.0032C34.415 43.2134 34.8554 43.3247 35.3031 43.3278C35.7508 43.3308 36.1926 43.2254 36.5908 43.0207L41.1313 40.6914C41.5852 40.4594 42.1108 40.4105 42.5997 40.5547C43.0886 40.699 43.5035 41.0253 43.7588 41.4665C43.8337 41.5957 43.8548 41.7491 43.8176 41.8937C43.7803 42.0383 43.6877 42.1625 43.5596 42.2394L37.3001 45.9519C36.2058 46.6046 34.9021 46.8111 33.6596 46.5284L28.0144 45.1784L27.7534 46.2731L33.4037 47.6231C34.9288 47.9725 36.5299 47.7205 37.8739 46.9194L44.1334 43.2069C44.3898 43.053 44.6007 42.8337 44.7445 42.5715C44.8883 42.3092 44.9599 42.0135 44.9518 41.7146L48.6688 39.8127C49.0054 39.6418 49.3931 39.6006 49.7581 39.697C50.1231 39.7933 50.4399 40.0205 50.6483 40.3353L50.6544 40.3449C50.7355 40.4701 50.765 40.6219 50.7366 40.7683C50.7083 40.9148 50.6245 41.0447 50.5026 41.1307Z" fill="#2C4DA7"/>
<path d="M21.767 41.2771L20.666 41.5083L20.897 42.6082L21.998 42.3769L21.767 41.2771Z" fill="#2C4DA7"/>
<path d="M34.6691 40.392C34.7653 40.4621 34.8813 40.4999 35.0004 40.4999C35.1195 40.4999 35.2355 40.4621 35.3317 40.392C40.9758 36.2751 44.4504 32.3494 45.7127 28.6875H48.6039C48.7366 29.0628 48.9977 29.3791 49.3411 29.5805C49.6844 29.782 50.0879 29.8555 50.4803 29.7882C50.8726 29.7209 51.2285 29.517 51.4851 29.2127C51.7417 28.9083 51.8824 28.5231 51.8824 28.125C51.8824 27.7269 51.7417 27.3417 51.4851 27.0373C51.2285 26.733 50.8726 26.5291 50.4803 26.4618C50.0879 26.3945 49.6844 26.468 49.3411 26.6695C48.9977 26.8709 48.7366 27.1872 48.6039 27.5625H46.0254C46.1212 27.1479 46.188 26.727 46.2251 26.3031C46.3244 25.4489 46.2504 24.5834 46.0074 23.7584C45.7644 22.9335 45.3575 22.1661 44.811 21.5021C44.2563 20.7631 43.537 20.1635 42.7102 19.7509C41.8834 19.3382 40.9718 19.124 40.0477 19.125C38.1905 19.1976 36.4121 19.8949 35.0004 21.1039C33.5887 19.8949 31.8103 19.1976 29.9531 19.125C29.0289 19.124 28.1172 19.3383 27.2902 19.7509C26.4632 20.1635 25.7437 20.7631 25.1887 21.5021C24.6424 22.1662 24.2357 22.9337 23.9928 23.7586C23.75 24.5835 23.6759 25.4489 23.7752 26.3031C24.1143 30.6259 27.7796 35.3666 34.6691 40.392ZM50.1879 27.5625C50.2992 27.5625 50.4079 27.5955 50.5004 27.6573C50.5929 27.7191 50.665 27.807 50.7076 27.9097C50.7502 28.0125 50.7613 28.1256 50.7396 28.2347C50.7179 28.3439 50.6643 28.4441 50.5857 28.5228C50.507 28.6014 50.4068 28.655 50.2976 28.6767C50.1885 28.6984 50.0754 28.6873 49.9726 28.6447C49.8699 28.6021 49.782 28.53 49.7202 28.4375C49.6584 28.345 49.6254 28.2363 49.6254 28.125C49.6254 27.9758 49.6847 27.8327 49.7902 27.7273C49.8956 27.6218 50.0387 27.5625 50.1879 27.5625ZM26.0252 22.2542C26.0514 22.2282 26.075 22.1995 26.0955 22.1687C26.5465 21.5726 27.1296 21.0891 27.7989 20.7562C28.4682 20.4233 29.2056 20.25 29.9531 20.25C32.5597 20.25 34.5825 22.2351 34.6027 22.2548C34.655 22.3071 34.717 22.3485 34.7853 22.3768C34.8536 22.4052 34.9268 22.4197 35.0007 22.4197C35.0746 22.4197 35.1478 22.4052 35.2161 22.3768C35.2844 22.3485 35.3464 22.3071 35.3987 22.2548C35.4189 22.2339 37.427 20.25 40.0477 20.25C40.7957 20.2472 41.5341 20.4192 42.2038 20.7523C42.8736 21.0854 43.4563 21.5705 43.9053 22.1687C43.9258 22.1995 43.9494 22.2282 43.9757 22.2542C44.4216 22.8034 44.7516 23.4373 44.9455 24.1177C45.1395 24.7981 45.1934 25.5107 45.104 26.2125C45.0666 26.6684 44.9895 27.1201 44.8734 27.5625H40.3892L38.3012 23.9063C38.2488 23.8139 38.1715 23.7382 38.078 23.688C37.9844 23.6377 37.8786 23.615 37.7727 23.6223C37.6669 23.6297 37.5652 23.6669 37.4795 23.7295C37.3939 23.7922 37.3277 23.8779 37.2887 23.9766L34.5071 30.9375L32.7251 25.1471C32.6931 25.0433 32.6318 24.9509 32.5485 24.8811C32.4651 24.8114 32.3634 24.7673 32.2555 24.7541C32.1476 24.741 32.0383 24.7594 31.9406 24.807C31.843 24.8547 31.7612 24.9297 31.7053 25.0228L30.1815 27.5625H26.5629V28.6875H30.5004C30.5975 28.6875 30.6929 28.6624 30.7773 28.6145C30.8618 28.5667 30.9325 28.4979 30.9825 28.4147L32.0192 26.6839L33.8985 32.7904C33.9332 32.9011 34.0013 32.9983 34.0934 33.0688C34.1856 33.1393 34.2972 33.1796 34.4132 33.1841H34.4379C34.5504 33.1842 34.6603 33.1505 34.7535 33.0874C34.8466 33.0243 34.9187 32.9348 34.9605 32.8303L37.9023 25.4745L39.5747 28.3995C39.6233 28.4864 39.6941 28.5589 39.7798 28.6095C39.8656 28.6601 39.9633 28.687 40.0629 28.6875H44.5067C43.4655 31.338 40.8757 34.893 35.0004 39.2394C27.0742 33.3759 25.128 28.9508 24.9002 26.2575C24.804 25.5488 24.8543 24.8278 25.0478 24.1393C25.2413 23.4507 25.5739 22.8091 26.0252 22.2542Z" fill="#2C4DA7"/>
<path d="M22.625 27.5625H18.125V28.6875H22.625V27.5625Z" fill="#2C4DA7"/>
</svg>
