<svg width="69" height="70" viewBox="0 0 69 70" fill="none" xmlns="http://www.w3.org/2000/svg">
<ellipse cx="34.5" cy="35" rx="34.5" ry="35" fill="#D8EEFB"/>
<g clip-path="url(#clip0)">
<path d="M34.79 45.5983C34.598 45.5983 34.406 45.5248 34.259 45.3793L24.6185 35.7388C24.3365 35.4568 24.3245 35.0053 24.5885 34.7083L31.814 26.6143C36.8645 20.7058 45.089 16.8823 52.2605 17.0038C52.661 17.0128 52.9835 17.3353 52.9925 17.7358C53.159 24.9118 49.292 33.1318 43.3685 38.1928L35.288 45.4078C35.147 45.5353 34.967 45.5983 34.79 45.5983ZM26.18 35.1793L34.8185 43.8178L42.383 37.0648C47.792 32.4418 51.3845 25.0738 51.4955 18.5023C44.924 18.6118 37.5575 22.2043 32.9435 27.6013L26.18 35.1793Z" fill="#2C4DA7"/>
<path d="M37.6649 51.0884C37.5929 51.0884 37.5194 51.0779 37.4504 51.0554C37.1804 50.9654 36.9584 50.7584 36.9194 50.4764L35.8904 43.2959C35.8319 42.8864 36.1169 42.5069 36.5264 42.4469C36.9359 42.3824 37.3154 42.6719 37.3754 43.0829L38.1794 48.6929C40.8074 45.5504 42.2684 41.5664 42.2684 37.5044C42.2684 37.0904 42.6044 36.7544 43.0184 36.7544C43.4324 36.7544 43.7684 37.0904 43.7684 37.5044C43.7684 42.4739 41.7554 47.3384 38.2454 50.8469C38.0954 50.9969 37.8764 51.0884 37.6649 51.0884Z" fill="#2C4DA7"/>
<path d="M26.8111 34.1179C26.7766 34.1179 26.7406 34.1164 26.7046 34.1104L19.5241 33.0814C19.2421 33.0409 19.0066 32.8444 18.9181 32.5729C18.8296 32.3029 18.9016 32.0044 19.1041 31.8049C22.6636 28.2454 27.5266 26.2324 32.4961 26.2324C32.9101 26.2324 33.2461 26.5684 33.2461 26.9824C33.2461 27.3964 32.9101 27.7324 32.4961 27.7324C28.4146 27.7324 24.4096 29.2069 21.3001 31.8199L26.9176 32.6254C27.3271 32.6854 27.6121 33.0634 27.5536 33.4744C27.4981 33.8479 27.1771 34.1179 26.8111 34.1179Z" fill="#2C4DA7"/>
<path d="M42.6989 31.0486C41.7374 31.0486 40.7774 30.6826 40.0469 29.9521C38.5859 28.4896 38.5859 26.1106 40.0469 24.6481C41.5094 23.1856 43.8884 23.1856 45.3509 24.6481C46.8119 26.1106 46.8119 28.4896 45.3509 29.9521C44.6189 30.6841 43.6589 31.0486 42.6989 31.0486ZM42.6989 25.0516C42.1229 25.0516 41.5454 25.2706 41.1074 25.7086C40.2314 26.5861 40.2314 28.0141 41.1074 28.8916C41.9849 29.7676 43.4129 29.7661 44.2904 28.8916C45.1664 28.0141 45.1664 26.5861 44.2904 25.7086C43.8509 25.2721 43.2749 25.0516 42.6989 25.0516ZM44.8199 29.4226H44.8349H44.8199Z" fill="#2C4DA7"/>
<path d="M17.7503 53.0001C17.5538 53.0001 17.3633 52.9236 17.2193 52.7811C17.0243 52.5861 16.9523 52.2996 17.0318 52.0356C17.2778 51.2151 19.4813 43.9641 21.0863 42.3591C22.8938 40.5516 25.8353 40.5501 27.6428 42.3591C29.4503 44.1666 29.4503 47.1081 27.6428 48.9156C26.0378 50.5206 18.7868 52.7241 17.9663 52.9701C17.8943 52.9896 17.8223 53.0001 17.7503 53.0001ZM24.3653 42.5016C23.5613 42.5016 22.7588 42.8076 22.1468 43.4181C21.2813 44.2851 19.8413 48.1566 18.8903 51.1101C21.8423 50.1591 25.7153 48.7191 26.5808 47.8536C27.8033 46.6311 27.8033 44.6406 26.5808 43.4181C25.9703 42.8076 25.1678 42.5016 24.3653 42.5016Z" fill="#2C4DA7"/>
</g>
<defs>
<clipPath id="clip0">
<rect width="36" height="36" fill="white" transform="translate(17 17)"/>
</clipPath>
</defs>
</svg>
