<svg width="69" height="70" viewBox="0 0 69 70" fill="none" xmlns="http://www.w3.org/2000/svg">
<ellipse cx="34.5" cy="35" rx="34.5" ry="35" fill="#D8EEFB"/>
<path d="M48.1683 24.5579C48.0313 24.3017 47.7623 24.1444 47.4719 24.1506H30.4979C30.0732 24.1506 29.7285 24.495 29.7285 24.9203V31.9176C29.7285 32.3425 30.0732 32.6873 30.4979 32.6873C30.9232 32.6873 31.2676 32.3425 31.2676 31.9176V25.69H42.2354L34.8505 27.9009C34.5248 27.9985 34.3017 28.298 34.3017 28.6379V50.3618H31.2676V44.407C31.2676 43.9818 30.9232 43.6376 30.4979 43.6376C30.0732 43.6376 29.7285 43.9818 29.7285 44.407V51.1315C29.7285 51.5568 30.0732 51.9012 30.4979 51.9012H34.3017V54.8495C34.3017 55.0929 34.4165 55.3215 34.6117 55.467C34.8067 55.6122 35.0589 55.6566 35.2921 55.5868L47.7099 51.8691C48.0359 51.7715 48.2589 51.4714 48.2589 51.1315V24.9379C48.2616 24.8058 48.2306 24.6747 48.1683 24.5579ZM46.7198 50.5587L35.8409 53.8158V29.2111L46.7198 25.9542V50.5587Z" fill="#2C4DA7"/>
<path d="M38.7379 41.5097C39.8716 41.5097 40.7902 40.5908 40.7902 39.4576C40.7902 38.3242 39.8716 37.4053 38.7379 37.4053C37.6045 37.4053 36.6855 38.3242 36.6855 39.4576C36.6869 40.5902 37.6053 41.5083 38.7379 41.5097ZM38.7379 38.9444C39.0214 38.9444 39.2508 39.1741 39.2508 39.4576C39.2508 39.7408 39.0214 39.9706 38.7379 39.9706C38.4547 39.9706 38.2249 39.7408 38.2249 39.4576C38.2252 39.1741 38.4549 38.9447 38.7379 38.9444Z" fill="#2C4DA7"/>
<path d="M39.4231 22.5787C41.6902 22.5787 43.5278 20.7409 43.5278 18.4743C43.5278 16.2075 41.6902 14.3696 39.4231 14.3696C37.1563 14.3696 35.3184 16.2075 35.3184 18.4743C35.3128 19.5644 35.7434 20.6119 36.5144 21.3832C37.2852 22.1543 38.3327 22.5849 39.4231 22.5787ZM39.4231 15.7379C40.9347 15.7379 42.1595 16.963 42.1595 18.4743C42.1595 19.9853 40.9347 21.2105 39.4231 21.2105C37.9118 21.2105 36.6866 19.9853 36.6866 18.4743C36.6866 16.963 37.9118 15.7379 39.4231 15.7379Z" fill="#2C4DA7"/>
<path d="M38.4053 18.1389L39.0418 18.547V20.0693C39.0418 20.4472 39.3483 20.7534 39.7259 20.7534C40.1038 20.7534 40.41 20.4472 40.41 20.0693V18.1726C40.41 17.9397 40.2915 17.7225 40.095 17.5965L39.1431 16.9865C38.8252 16.7827 38.4018 16.8755 38.198 17.1938C37.9942 17.512 38.0868 17.9351 38.4053 18.1389Z" fill="#2C4DA7"/>
<path d="M23.4926 38.7734H32.6669C33.0919 38.7734 33.4366 38.4287 33.4366 38.0037C33.4366 37.5785 33.0919 37.234 32.6669 37.234H23.4926L25.6859 35.0407C25.9862 34.7401 25.9862 34.2528 25.6859 33.9525C25.3853 33.6519 24.898 33.6519 24.5974 33.9525L21.0905 37.4594C20.7902 37.7598 20.7902 38.2471 21.0905 38.5479L24.5974 42.0549C24.898 42.3555 25.3853 42.3555 25.6859 42.0549C25.9862 41.7543 25.9862 41.2667 25.6859 40.9667L23.4926 38.7734Z" fill="#2C4DA7"/>
</svg>
