<svg width="70" height="70" viewBox="0 0 70 70" fill="none" xmlns="http://www.w3.org/2000/svg">
<ellipse cx="34.5" cy="35" rx="34.5" ry="35" fill="#D8EEFB"/>
<path d="M39.3013 41.9348C40.6323 40.9689 41.7377 39.7253 42.5408 38.2901C43.344 36.8549 43.8257 35.2624 43.9528 33.6227C44.0798 31.983 43.8491 30.3352 43.2767 28.7935C42.7042 27.2517 41.8037 25.8527 40.6373 24.6932C39.6211 23.6805 38.4121 22.8817 37.082 22.3441C35.7518 21.8065 34.3274 21.541 32.8929 21.5633C26.9364 21.6482 22.0999 26.6773 22.1113 32.7742C22.1103 34.5638 22.5349 36.3279 23.3501 37.9211C24.1653 39.5142 25.3477 40.8905 26.7997 41.9366C26.874 41.9927 26.934 42.0657 26.9746 42.1495C27.0152 42.2333 27.0353 42.3256 27.0332 42.4187V43.8788C26.4899 44.1921 26.0478 44.6546 25.7594 45.2115C25.4709 45.7684 25.3482 46.3963 25.4058 47.0208C25.4633 47.6453 25.6987 48.2402 26.0841 48.735C26.4695 49.2298 26.9887 49.6037 27.5801 49.8124V51.0936C27.5811 51.9635 27.9271 52.7976 28.5422 53.4127C29.1574 54.0279 29.9914 54.3739 30.8613 54.3749H35.2363C36.1063 54.3738 36.9403 54.0278 37.5554 53.4127C38.1706 52.7975 38.5166 51.9635 38.5176 51.0936V49.8117C39.109 49.603 39.6282 49.2291 40.0136 48.7343C40.399 48.2396 40.6344 47.6446 40.6919 47.0201C40.7495 46.3956 40.6268 45.7677 40.3383 45.2108C40.0499 44.6539 39.6078 44.1914 39.0645 43.8781V42.4185C39.0627 42.3249 39.0832 42.2322 39.1244 42.148C39.1656 42.0639 39.2262 41.9908 39.3013 41.9348ZM24.2994 32.7703C24.2901 27.8649 28.1594 23.8188 32.9247 23.7508C32.9657 23.7508 33.0078 23.7498 33.0495 23.7498C35.3187 23.7498 37.4953 24.6495 39.1021 26.2518C40.0412 27.1873 40.7662 28.3153 41.2272 29.5581C41.6881 30.8008 41.8741 32.1288 41.7723 33.4504C41.6704 34.772 41.2831 36.0557 40.6371 37.2132C39.9911 38.3706 39.1018 39.3742 38.0305 40.1547C37.6722 40.4134 37.3808 40.7538 37.1803 41.1475C36.9798 41.5413 36.876 41.9772 36.8775 42.4191V43.4373H29.2213V42.4187C29.223 41.9772 29.1196 41.5417 28.9194 41.1482C28.7193 40.7547 28.4282 40.4146 28.0704 40.1561C26.9012 39.3122 25.9495 38.2023 25.2938 36.9181C24.6382 35.6339 24.2973 34.2122 24.2994 32.7703ZM35.2369 52.1874H30.8619C30.5719 52.187 30.2939 52.0717 30.0889 51.8666C29.8838 51.6616 29.7685 51.3836 29.7681 51.0936V49.9999H36.3306V51.0936C36.3303 51.3836 36.215 51.6616 36.0099 51.8666C35.8049 52.0717 35.5269 52.187 35.2369 52.1874ZM37.4244 47.8124H28.6744C28.3843 47.8124 28.1061 47.6971 27.901 47.492C27.6959 47.2869 27.5806 47.0087 27.5806 46.7186C27.5806 46.4285 27.6959 46.1503 27.901 45.9452C28.1061 45.7401 28.3843 45.6248 28.6744 45.6248H37.4244C37.7145 45.6248 37.9927 45.7401 38.1978 45.9452C38.4029 46.1503 38.5181 46.4285 38.5181 46.7186C38.5181 47.0087 38.4029 47.2869 38.1978 47.492C37.9927 47.6971 37.7145 47.8124 37.4244 47.8124Z" fill="#2C4DA7"/>
<path d="M34.8226 28.4724C35.5104 28.761 36.1239 29.2015 36.6173 29.7608C37.1107 30.3202 37.4712 30.9839 37.6717 31.7023C37.7536 31.9776 37.9406 32.2097 38.1922 32.3483C38.4438 32.487 38.7398 32.5211 39.0163 32.4432C39.2929 32.3654 39.5277 32.1819 39.67 31.9324C39.8124 31.6829 39.8509 31.3874 39.7772 31.1097C39.4855 30.0717 38.9627 29.1131 38.2481 28.3058C37.5334 27.4984 36.6454 26.8632 35.6505 26.4476C35.382 26.3378 35.0809 26.3391 34.8133 26.4513C34.5458 26.5635 34.3338 26.7774 34.224 27.0459C34.1142 27.3143 34.1155 27.6155 34.2277 27.883C34.3399 28.1505 34.5537 28.3625 34.8222 28.4723L34.8226 28.4724Z" fill="#2C4DA7"/>
<path d="M34.1426 18.2812V16.0938C34.1426 15.8037 34.0273 15.5255 33.8222 15.3204C33.6171 15.1152 33.3389 15 33.0488 15C32.7587 15 32.4805 15.1152 32.2754 15.3204C32.0703 15.5255 31.9551 15.8037 31.9551 16.0938V18.2812C31.9551 18.5713 32.0703 18.8495 32.2754 19.0546C32.4805 19.2598 32.7587 19.375 33.0488 19.375C33.3389 19.375 33.6171 19.2598 33.8222 19.0546C34.0273 18.8495 34.1426 18.5713 34.1426 18.2812Z" fill="#2C4DA7"/>
<path d="M26.8206 20.6989C27.0028 20.6986 27.182 20.6528 27.342 20.5656C27.502 20.4785 27.6377 20.3528 27.7368 20.2C27.8359 20.0472 27.8953 19.872 27.9096 19.6904C27.9239 19.5088 27.8927 19.3265 27.8187 19.16L26.9289 17.1616C26.8109 16.8966 26.5925 16.6893 26.3217 16.5853C26.0509 16.4814 25.7498 16.4893 25.4848 16.6073C25.2198 16.7253 25.0125 16.9437 24.9086 17.2145C24.8046 17.4853 24.8125 17.7863 24.9305 18.0514L25.8203 20.0498C25.9063 20.2432 26.0466 20.4074 26.2242 20.5227C26.4018 20.6379 26.609 20.6991 26.8206 20.6989Z" fill="#2C4DA7"/>
<path d="M21.6685 24.4418C21.8897 24.4419 22.1058 24.3748 22.2882 24.2496C22.4705 24.1243 22.6106 23.9467 22.6899 23.7401C22.7692 23.5336 22.784 23.3078 22.7324 23.0927C22.6807 22.8775 22.565 22.6831 22.4006 22.5351L20.775 21.0714C20.5594 20.8773 20.2755 20.7768 19.9857 20.792C19.696 20.8073 19.4242 20.937 19.2301 21.1526C19.036 21.3682 18.9355 21.6522 18.9507 21.9419C18.966 22.2316 19.0957 22.5034 19.3113 22.6975L20.9369 24.1604C21.1374 24.3417 21.3981 24.442 21.6685 24.4418Z" fill="#2C4DA7"/>
<path d="M19.5255 29.1999C19.6151 28.924 19.5915 28.6238 19.4598 28.3653C19.328 28.1069 19.0991 27.9114 18.8232 27.8217L16.7427 27.1459C16.6059 27.1005 16.4614 27.0827 16.3176 27.0933C16.1738 27.104 16.0335 27.143 15.9048 27.2081C15.7761 27.2731 15.6616 27.363 15.5678 27.4725C15.474 27.5821 15.4027 27.709 15.3582 27.8462C15.3136 27.9833 15.2967 28.1279 15.3082 28.2717C15.3197 28.4154 15.3596 28.5554 15.4255 28.6837C15.4913 28.812 15.5819 28.926 15.692 29.0191C15.8021 29.1122 15.9295 29.1827 16.0669 29.2264L18.1474 29.9025C18.284 29.947 18.428 29.9642 18.5713 29.953C18.7145 29.9418 18.8541 29.9025 18.9821 29.8372C19.1102 29.772 19.2241 29.6821 19.3173 29.5728C19.4105 29.4635 19.4813 29.3368 19.5255 29.2001V29.1999Z" fill="#2C4DA7"/>
<path d="M17.7055 34.1069L15.5301 34.3356C15.3865 34.3497 15.2471 34.392 15.1199 34.4602C14.9928 34.5284 14.8804 34.621 14.7892 34.7328C14.698 34.8446 14.6298 34.9734 14.5886 35.1116C14.5473 35.2499 14.5339 35.395 14.549 35.5385C14.564 35.682 14.6074 35.821 14.6764 35.9477C14.7455 36.0744 14.8389 36.1862 14.9514 36.2766C15.0638 36.367 15.193 36.4342 15.3316 36.4745C15.4701 36.5147 15.6153 36.5272 15.7587 36.5111L17.9343 36.2824C18.2214 36.2504 18.4843 36.1061 18.6654 35.881C18.8466 35.6559 18.9313 35.3683 18.9011 35.0809C18.8709 34.7936 18.7282 34.5299 18.5042 34.3474C18.2802 34.1649 17.9931 34.0784 17.7055 34.1069Z" fill="#2C4DA7"/>
<path d="M48.1637 36.2818L50.3391 36.5105C50.6269 36.5394 50.9143 36.4531 51.1386 36.2706C51.3629 36.0881 51.5058 35.8242 51.5361 35.5367C51.5663 35.2491 51.4815 34.9612 51.3001 34.736C51.1186 34.5109 50.8554 34.3667 50.568 34.335L48.3924 34.1063C48.2491 34.0904 48.1041 34.1029 47.9656 34.1432C47.8272 34.1836 47.6981 34.2509 47.5858 34.3413C47.4734 34.4317 47.3801 34.5434 47.3111 34.67C47.2421 34.7966 47.1988 34.9356 47.1837 35.079C47.1687 35.2224 47.1821 35.3674 47.2232 35.5055C47.2644 35.6437 47.3325 35.7724 47.4235 35.8842C47.5146 35.996 47.6269 36.0887 47.7539 36.1569C47.8809 36.2251 48.0202 36.2676 48.1637 36.2818Z" fill="#2C4DA7"/>
<path d="M47.612 29.9559C47.7269 29.9559 47.841 29.9377 47.9502 29.9021L50.0307 29.2263C50.1673 29.1819 50.2938 29.111 50.403 29.0177C50.5122 28.9245 50.602 28.8106 50.6672 28.6826C50.7324 28.5546 50.7718 28.4151 50.7831 28.2719C50.7944 28.1287 50.7773 27.9847 50.7329 27.8481C50.6885 27.7115 50.6177 27.5849 50.5244 27.4757C50.4311 27.3665 50.3173 27.2767 50.1893 27.2115C50.0613 27.1463 49.9217 27.1069 49.7785 27.0957C49.6353 27.0844 49.4913 27.1014 49.3547 27.1458L47.2744 27.8216C47.0265 27.9019 46.8154 28.068 46.6791 28.2901C46.5428 28.5122 46.4903 28.7757 46.531 29.033C46.5717 29.2904 46.703 29.5248 46.9012 29.694C47.0993 29.8632 47.3514 29.9561 47.612 29.9559Z" fill="#2C4DA7"/>
<path d="M45.1598 24.1601L46.7853 22.6972C47.0009 22.5031 47.1305 22.2313 47.1457 21.9416C47.1609 21.6519 47.0603 21.368 46.8662 21.1524C46.6721 20.9368 46.4003 20.8072 46.1106 20.792C45.8209 20.7768 45.537 20.8774 45.3214 21.0715L43.696 22.5348C43.4844 22.7299 43.3583 23.0006 43.3449 23.2882C43.3316 23.5757 43.4322 23.8569 43.6248 24.0708C43.8174 24.2847 44.0866 24.414 44.374 24.4307C44.6613 24.4474 44.9437 24.3502 45.1598 24.1601Z" fill="#2C4DA7"/>
<path d="M39.2765 20.6989C39.4881 20.699 39.6952 20.6377 39.8726 20.5225C40.0501 20.4073 40.1903 20.2431 40.2763 20.0498L41.1661 18.0514C41.2841 17.7863 41.292 17.4853 41.188 17.2145C41.0841 16.9437 40.8768 16.7253 40.6118 16.6073C40.3468 16.4893 40.0457 16.4814 39.7749 16.5853C39.5041 16.6893 39.2857 16.8966 39.1677 17.1616L38.2779 19.16C38.2039 19.3265 38.1727 19.5088 38.187 19.6904C38.2013 19.872 38.2607 20.0472 38.3598 20.2C38.4589 20.3528 38.5946 20.4785 38.7546 20.5656C38.9146 20.6528 39.0938 20.6986 39.276 20.6989H39.2765Z" fill="#2C4DA7"/>
</svg>
