<svg xmlns="http://www.w3.org/2000/svg" width="70" height="70" viewBox="0 0 70 70" fill="none">
<ellipse cx="34.5" cy="35" rx="34.5" ry="35" fill="#D8EEFB"/>
<path d="M35.0007 17.75H36.9173C40.984 17.75 44.8841 19.3655 47.7596 22.241C50.6352 25.1166 52.2507 29.0167 52.2507 33.0833V35H35.0007V17.75ZM36.9173 33.0833H50.334C50.334 29.525 48.9205 26.1124 46.4043 23.5963C43.8882 21.0802 40.4756 19.6667 36.9173 19.6667V33.0833ZM31.1673 38.8333H46.5007C46.5007 41.866 45.6014 44.8305 43.9165 47.3521C42.2317 49.8736 39.8369 51.8389 37.0351 52.9995C34.2333 54.16 31.1503 54.4637 28.1759 53.872C25.2016 53.2804 22.4694 51.82 20.325 49.6756C18.1806 47.5312 16.7203 44.7991 16.1286 41.8247C15.537 38.8503 15.8406 35.7673 17.0012 32.9655C18.1617 30.1637 20.127 27.769 22.6486 26.0841C25.1701 24.3993 28.1347 23.5 31.1673 23.5V38.8333ZM29.2507 40.75V25.5508C25.8985 26.042 22.8561 27.7829 20.7342 30.4241C18.6123 33.0652 17.5678 36.4112 17.8104 39.7905C18.053 43.1698 19.5647 46.3322 22.0421 48.6432C24.5195 50.9542 27.7794 52.2427 31.1673 52.25C34.3941 52.2504 37.5129 51.0881 39.9523 48.976C42.3918 46.864 43.9885 43.9436 44.4498 40.75H29.2507Z" fill="#2C4DA7"/>
</svg>