<svg width="69" height="70" viewBox="0 0 69 70" fill="none" xmlns="http://www.w3.org/2000/svg">
<ellipse cx="34.5" cy="35" rx="34.5" ry="35" fill="#D8EEFB"/>
<path d="M39.2729 46.2003H39.175C36.9426 46.1241 33.9123 45.6652 32.1577 43.91C32.0593 43.8081 32.0048 43.6715 32.006 43.5298C32.0072 43.3881 32.0641 43.2525 32.1643 43.1523C32.2645 43.0521 32.4001 42.9952 32.5418 42.994C32.6836 42.9927 32.8201 43.0472 32.922 43.1457C34.5075 44.7311 37.5431 45.063 39.2123 45.1197C39.6514 45.1392 40.0824 44.9971 40.4239 44.7205C40.7654 44.4438 40.9937 44.0517 41.0658 43.6181C41.2464 42.6165 40.5669 41.7403 39.375 41.437L36.4453 40.6922C35.6043 40.4749 34.8003 40.1341 34.0593 39.6808C33.4285 39.2987 32.6404 38.857 31.7161 38.3673C28.2248 36.5181 24.7939 36.9895 21.7961 39.7316C21.7437 39.7796 21.6824 39.8167 21.6157 39.8409C21.5489 39.8651 21.4781 39.876 21.4072 39.8728C21.3362 39.8696 21.2666 39.8525 21.2023 39.8225C21.138 39.7924 21.0802 39.75 21.0323 39.6976C20.9844 39.6452 20.9473 39.5839 20.9231 39.5172C20.8988 39.4504 20.888 39.3796 20.8912 39.3086C20.8943 39.2377 20.9114 39.1681 20.9415 39.1038C20.9716 39.0395 21.014 38.9817 21.0664 38.9338C24.4318 35.8554 28.2896 35.3289 32.222 37.4116C33.1648 37.9111 33.9712 38.363 34.6193 38.756C35.2691 39.1538 35.9742 39.4531 36.7118 39.6441L39.641 40.3889C41.3896 40.8333 42.4129 42.2397 42.1275 43.8095C42.0045 44.478 41.652 45.0827 41.1309 45.5192C40.6097 45.9556 39.9526 46.1965 39.2729 46.2003Z" fill="#2C4DA7"/>
<path d="M36.0488 52.2805C34.5506 52.2792 33.084 51.8497 31.8217 51.0427L28.1017 48.6756C27.8733 48.5306 27.6135 48.4421 27.344 48.4173C27.0746 48.3926 26.8031 48.4324 26.552 48.5335L21.6331 50.5205C21.5009 50.5708 21.3542 50.5672 21.2246 50.5106C21.095 50.454 20.9927 50.3489 20.9397 50.2177C20.8868 50.0866 20.8873 49.9399 20.9412 49.8092C20.9952 49.6784 21.0982 49.574 21.2282 49.5183L26.1471 47.5313C26.5578 47.3658 27.0019 47.3006 27.4428 47.341C27.8837 47.3814 28.3086 47.5263 28.6823 47.7637L32.4023 50.1313C33.5433 50.8626 34.8779 51.2338 36.2326 51.1968C37.5873 51.1598 38.8996 50.7162 39.999 49.9237L52.0704 41.281C52.2869 41.1255 52.4671 40.9248 52.5983 40.6927C52.7295 40.4606 52.8086 40.2028 52.8302 39.9371C52.8518 39.6714 52.8154 39.4041 52.7234 39.1539C52.6313 38.9037 52.486 38.6765 52.2974 38.4881C52.0122 38.1959 51.6366 38.0085 51.2317 37.9564C50.8267 37.9043 50.4159 37.9905 50.0661 38.201L42.0012 43.5108C41.8814 43.5896 41.7352 43.6176 41.5948 43.5887C41.4543 43.5598 41.3311 43.4762 41.2523 43.3564C41.1734 43.2367 41.1454 43.0905 41.1743 42.95C41.2033 42.8096 41.2868 42.6864 41.4066 42.6075L49.4736 37.2983C50.1183 36.9004 50.8925 36.7687 51.6325 36.9311C52.3725 37.0936 53.0203 37.5373 53.4391 38.1686C53.8579 38.8 54.0149 39.5694 53.8767 40.3143C53.7386 41.0592 53.3163 41.7213 52.699 42.1605L40.6288 50.8021C39.2944 51.7619 37.6925 52.279 36.0488 52.2805Z" fill="#2C4DA7"/>
<path d="M39.5075 41.4524C39.3911 41.4524 39.2779 41.4149 39.1845 41.3454C39.0912 41.2759 39.0228 41.1782 38.9895 41.0667C38.9561 40.9552 38.9596 40.8359 38.9995 40.7266C39.0394 40.6173 39.1135 40.5238 39.2107 40.4599L44.5556 36.961C45.3655 36.4263 46.3402 36.1996 47.303 36.3219C48.2658 36.4443 49.1528 36.9077 49.8032 37.628C49.8972 37.7344 49.9456 37.8736 49.9379 38.0154C49.9302 38.1572 49.867 38.2902 49.762 38.3858C49.6569 38.4814 49.5185 38.5318 49.3766 38.5261C49.2348 38.5205 49.1008 38.4592 49.0037 38.3556C48.5257 37.8265 47.874 37.4862 47.1667 37.3962C46.4594 37.3063 45.7432 37.4727 45.148 37.8653L39.8032 41.3643C39.7153 41.4219 39.6125 41.4526 39.5075 41.4524Z" fill="#2C4DA7"/>
<path d="M36.1619 40.5867C36.0465 40.5868 35.9341 40.5499 35.8412 40.4815C35.7483 40.4131 35.6797 40.3168 35.6455 40.2066C35.6112 40.0965 35.6131 39.9782 35.6509 39.8692C35.6886 39.7602 35.7603 39.6661 35.8554 39.6008L40.5478 36.3748C41.2967 35.8653 42.2032 35.6404 43.1034 35.7406C44.0037 35.8408 44.8384 36.2596 45.457 36.9213C45.5064 36.9732 45.545 37.0344 45.5705 37.1013C45.596 37.1682 45.608 37.2396 45.6057 37.3112C45.6035 37.3828 45.587 37.4532 45.5572 37.5184C45.5275 37.5835 45.4851 37.6421 45.4325 37.6908C45.3799 37.7394 45.3182 37.7771 45.2509 37.8017C45.1836 37.8263 45.1121 37.8373 45.0406 37.834C44.969 37.8307 44.8988 37.8132 44.8341 37.7825C44.7694 37.7519 44.7114 37.7086 44.6635 37.6554C44.2221 37.1831 43.6263 36.8843 42.9839 36.8129C42.3415 36.7414 41.6946 36.902 41.1602 37.2656L36.4673 40.4921C36.3773 40.5537 36.2709 40.5867 36.1619 40.5867Z" fill="#2C4DA7"/>
<path d="M18.7161 52.5884H16.6226C16.4792 52.5884 16.3417 52.5314 16.2404 52.4301C16.139 52.3287 16.082 52.1912 16.082 52.0478V37.0835C16.082 36.9401 16.139 36.8027 16.2404 36.7013C16.3417 36.5999 16.4792 36.543 16.6226 36.543H18.7161C19.5798 36.5435 20.4079 36.8868 21.0187 37.4974C21.6295 38.108 21.9731 38.9361 21.9739 39.7997V49.3316C21.9731 50.1953 21.6295 51.0233 21.0187 51.6339C20.4079 52.2445 19.5798 52.5878 18.7161 52.5884ZM17.1631 51.5073H18.7161C19.2931 51.507 19.8465 51.2777 20.2546 50.8698C20.6627 50.4619 20.8923 49.9087 20.8928 49.3316V39.7997C20.8921 39.223 20.6627 38.67 20.2548 38.2623C19.8469 37.8545 19.2939 37.6252 18.7172 37.6246H17.1631V51.5073Z" fill="#2C4DA7"/>
<path d="M31.4573 34.5476C31.3262 34.5476 31.1996 34.5 31.1011 34.4136C30.7881 34.1395 23.4367 27.6482 23.1146 22.9065C23.064 22.1971 23.1612 21.4849 23.4 20.815C23.6389 20.1451 24.0142 19.5321 24.5021 19.0147C24.96 18.5169 25.5148 18.1181 26.1325 17.8427C26.7503 17.5674 27.4178 17.4213 28.094 17.4136C28.722 17.4182 29.3427 17.5477 29.9202 17.7945C30.4976 18.0414 31.0201 18.4006 31.4573 18.8514C31.8945 18.4006 32.417 18.0414 32.9944 17.7945C33.5718 17.5477 34.1926 17.4182 34.8205 17.4136C35.4968 17.4213 36.1643 17.5674 36.782 17.8427C37.3997 18.1181 37.9546 18.5169 38.4124 19.0147C38.9004 19.5321 39.2757 20.1451 39.5145 20.815C39.7534 21.4849 39.8506 22.1971 39.8 22.9065C39.4757 27.6482 32.1243 34.1395 31.8135 34.4136C31.7149 34.5 31.5883 34.5476 31.4573 34.5476ZM28.094 18.4936C27.5659 18.5009 27.0449 18.6163 26.563 18.8325C26.0811 19.0487 25.6485 19.3613 25.2919 19.7509C24.9055 20.1604 24.6083 20.6458 24.4191 21.1761C24.23 21.7065 24.153 22.2703 24.193 22.832C24.4476 26.5784 29.9848 31.9184 31.4573 33.2757C32.9292 31.9179 38.467 26.573 38.7216 22.8314C38.7616 22.2698 38.6845 21.7059 38.4954 21.1756C38.3062 20.6452 38.0091 20.1599 37.6227 19.7503C37.2661 19.3606 36.8336 19.0479 36.3517 18.8315C35.8698 18.6151 35.3487 18.4995 34.8205 18.492C34.2484 18.5009 33.686 18.6414 33.1768 18.9025C32.6677 19.1637 32.2254 19.5385 31.8843 19.9979C31.8318 20.0599 31.7664 20.1098 31.6926 20.144C31.6189 20.1782 31.5386 20.1959 31.4573 20.1959C31.376 20.1959 31.2957 20.1782 31.2219 20.144C31.1482 20.1098 31.0828 20.0599 31.0303 19.9979C30.6891 19.5386 30.2468 19.1639 29.7377 18.9028C29.2285 18.6418 28.6661 18.5014 28.094 18.4925V18.4936Z" fill="#2C4DA7"/>
<path d="M37.3752 36.0598C37.2441 36.0597 37.1175 36.0121 37.019 35.9257C35.7075 34.7473 34.4793 33.4794 33.3433 32.1311C33.2962 32.0769 33.2604 32.0139 33.238 31.9457C33.2156 31.8775 33.2069 31.8055 33.2126 31.7339C33.2183 31.6624 33.2382 31.5926 33.2711 31.5288C33.3041 31.465 33.3494 31.4085 33.4044 31.3624C33.4594 31.3163 33.5231 31.2816 33.5917 31.2604C33.6603 31.2391 33.7324 31.2318 33.8038 31.2387C33.8753 31.2457 33.9446 31.2668 34.0078 31.3009C34.071 31.3349 34.1268 31.3812 34.172 31.4371C35.1715 32.6181 36.242 33.7373 37.3774 34.7884C38.7233 33.5425 43.4314 28.9662 43.6476 25.7646C43.6817 25.2834 43.6154 24.8003 43.4532 24.346C43.2909 23.8917 43.0361 23.476 42.7049 23.1252C42.2914 22.6713 41.7579 22.3439 41.1661 22.1807C40.5742 22.0175 39.9482 22.0252 39.3606 22.203C39.2932 22.2255 39.222 22.2345 39.151 22.2295C39.0801 22.2245 39.0109 22.2055 38.9473 22.1738C38.8837 22.142 38.827 22.098 38.7804 22.0443C38.7338 21.9906 38.6982 21.9283 38.6757 21.8608C38.6532 21.7934 38.6442 21.7222 38.6493 21.6513C38.6543 21.5804 38.6732 21.5111 38.705 21.4475C38.7367 21.3839 38.7807 21.3272 38.8344 21.2806C38.8881 21.234 38.9505 21.1985 39.0179 21.176C39.802 20.9345 40.6385 20.9198 41.4306 21.1337C42.2227 21.3476 42.9381 21.7813 43.4941 22.3846C43.927 22.8433 44.2599 23.3868 44.4719 23.9808C44.6839 24.5748 44.7702 25.2063 44.7255 25.8354C44.4433 29.9976 38.0044 35.683 37.7309 35.923C37.6328 36.0103 37.5064 36.0589 37.3752 36.0598Z" fill="#2C4DA7"/>
</svg>
