<svg width="69" height="70" viewBox="0 0 69 70" fill="none" xmlns="http://www.w3.org/2000/svg">
<ellipse cx="34.5" cy="35" rx="34.5" ry="35" fill="#D8EEFB"/>
<path d="M51.6484 33.7096C53.0247 32.7424 53.9361 31.1336 53.9361 29.3202C53.9361 26.3536 51.5368 23.9544 48.5702 23.9544C45.6037 23.9544 43.2044 26.3536 43.2044 29.3202C43.2044 31.1336 44.1065 32.7424 45.4921 33.7096C44.311 34.1188 43.2323 34.7511 42.3209 35.5695C41.0655 34.5001 39.5869 33.6817 37.9687 33.1981C39.9309 32.0078 41.2515 29.841 41.2515 27.3766C41.2515 23.6196 38.2105 20.5786 34.4535 20.5786C30.6965 20.5786 27.6555 23.6289 27.6555 27.3766C27.6555 29.841 28.9668 32.0078 30.9383 33.1981C29.3387 33.6817 27.8787 34.4908 26.6326 35.5416C25.7212 34.7418 24.6611 34.1188 23.4986 33.7189C24.875 32.7517 25.7863 31.1429 25.7863 29.3295C25.7863 26.3629 23.387 23.9637 20.4205 23.9637C17.4539 23.9637 15.0546 26.3629 15.0546 29.3295C15.0546 31.1429 15.9567 32.7517 17.3423 33.7189C13.6504 34.9929 11 38.4989 11 42.6186V43.2324C11 43.251 11.0186 43.2696 11.0372 43.2696H22.4106C22.3455 43.781 22.3083 44.3111 22.3083 44.8412V45.4735C22.3083 48.2076 24.5216 50.4209 27.2556 50.4209H41.67C44.404 50.4209 46.6173 48.2076 46.6173 45.4735V44.8412C46.6173 44.3111 46.5801 43.781 46.515 43.2696H57.9628C57.9814 43.2696 58 43.251 58 43.2324V42.6186C57.9814 38.4896 55.3403 34.9836 51.6484 33.7096ZM44.6923 29.3109C44.6923 27.172 46.4313 25.433 48.5702 25.433C50.7091 25.433 52.4482 27.172 52.4482 29.3109C52.4482 31.4219 50.7463 33.1423 48.6446 33.1888C48.6167 33.1888 48.5981 33.1888 48.5702 33.1888C48.5423 33.1888 48.5237 33.1888 48.4958 33.1888C46.3848 33.1516 44.6923 31.4312 44.6923 29.3109ZM29.1249 27.3766C29.1249 24.4472 31.5055 22.0665 34.4349 22.0665C37.3643 22.0665 39.745 24.4472 39.745 27.3766C39.745 30.2037 37.5224 32.5193 34.7418 32.6773C34.6395 32.6773 34.5372 32.6773 34.4349 32.6773C34.3326 32.6773 34.2303 32.6773 34.128 32.6773C31.3474 32.5193 29.1249 30.2037 29.1249 27.3766ZM16.5146 29.3109C16.5146 27.172 18.2537 25.433 20.3926 25.433C22.5315 25.433 24.2705 27.172 24.2705 29.3109C24.2705 31.4219 22.5687 33.1423 20.467 33.1888C20.4391 33.1888 20.4205 33.1888 20.3926 33.1888C20.3647 33.1888 20.3461 33.1888 20.3182 33.1888C18.2165 33.1516 16.5146 31.4312 16.5146 29.3109ZM22.671 41.7723H12.5065C12.925 37.8107 16.2729 34.7047 20.3368 34.6768C20.3554 34.6768 20.374 34.6768 20.3926 34.6768C20.4112 34.6768 20.4298 34.6768 20.4484 34.6768C22.3827 34.6861 24.1496 35.4021 25.5166 36.5646C24.1775 38.0153 23.1824 39.8008 22.671 41.7723ZM45.1108 45.4735C45.1108 47.38 43.5578 48.933 41.6514 48.933H27.237C25.3306 48.933 23.7776 47.38 23.7776 45.4735V44.8412C23.7776 39.0661 28.3902 34.342 34.128 34.1746C34.2303 34.1839 34.3419 34.1839 34.4442 34.1839C34.5465 34.1839 34.6581 34.1839 34.7604 34.1746C40.4982 34.342 45.1108 39.0661 45.1108 44.8412V45.4735ZM46.2175 41.7723C45.706 39.8101 44.7295 38.0525 43.3997 36.6018C44.776 35.4114 46.5615 34.6954 48.5144 34.6768C48.533 34.6768 48.5516 34.6768 48.5702 34.6768C48.5888 34.6768 48.6074 34.6768 48.626 34.6768C52.69 34.7047 56.0378 37.8107 56.4563 41.7723H46.2175Z" fill="#2C4DA7"/>
</svg>
