<svg width="123" height="122" viewBox="0 0 123 122" fill="none" xmlns="http://www.w3.org/2000/svg">
<ellipse cx="61.5696" cy="60.9084" rx="61.3313" ry="60.9084" fill="white"/>
<g clip-path="url(#clip0)">
<path d="M23.3628 61.291V58.5802H14.8153C14.4467 58.5763 14.0814 58.6518 13.7434 58.8016C13.4055 58.9515 13.1025 59.1723 12.8544 59.4497C12.5508 59.7322 12.3157 60.0824 12.1674 60.4729C12.0191 60.8633 11.9617 61.2834 11.9997 61.7002C12.0745 62.4326 12.4145 63.1105 12.9535 63.6021C13.4925 64.0936 14.192 64.3637 14.9159 64.3598H23.3628V73.0035C23.355 73.3866 23.4272 73.767 23.5745 74.1197C23.7219 74.4723 23.941 74.7892 24.2175 75.0494C24.4963 75.3425 24.8334 75.5717 25.2062 75.7217C25.5791 75.8716 25.9791 75.9389 26.3796 75.9188C27.1086 75.8547 27.7873 75.514 28.2809 74.9645C28.7746 74.415 29.0471 73.6968 29.0444 72.9524V64.3598H26.3796C25.5795 64.3598 24.8121 64.0364 24.2464 63.4609C23.6806 62.8854 23.3628 62.1049 23.3628 61.291Z" fill="#094063"/>
<path d="M40.4086 61.2397C40.3338 60.5073 39.9938 59.8294 39.4548 59.3378C38.9158 58.8463 38.2163 58.5762 37.4924 58.5801H29.0455V49.9364C29.0533 49.5533 28.9811 49.1729 28.8338 48.8202C28.6864 48.4676 28.4673 48.1507 28.1908 47.8905C27.9025 47.5961 27.5565 47.3665 27.1754 47.2167C26.7943 47.0669 26.3865 47.0002 25.9785 47.0211C25.254 47.0858 24.5808 47.4283 24.0953 47.9791C23.6098 48.5299 23.3484 49.2479 23.3639 49.9875V58.5801H26.0287C26.8288 58.5801 27.5962 58.9035 28.1619 59.479C28.7277 60.0545 29.0455 60.835 29.0455 61.6489V64.3597H37.5427C37.9193 64.3676 38.2933 64.2942 38.6399 64.1443C38.9866 63.9944 39.2981 63.7715 39.5539 63.4902C39.846 63.1989 40.0734 62.8473 40.2208 62.4591C40.3683 62.071 40.4323 61.6552 40.4086 61.2397Z" fill="#89CBF0"/>
<path d="M26.0281 58.5803H23.3633V61.2911C23.3633 62.105 23.6811 62.8855 24.2469 63.461C24.8126 64.0365 25.5799 64.3599 26.38 64.3599H29.0448V61.6491C29.0448 60.8352 28.727 60.0547 28.1613 59.4791C27.5955 58.9036 26.8282 58.5803 26.0281 58.5803Z" fill="#5299D3"/>
<path d="M48.1016 47.7373H52.6267C55.0401 47.7373 57.0513 48.5556 57.0513 51.3687C57.0513 53.0054 56.1965 54.3352 54.5373 54.6421L57.5038 59.6544H54.4368L51.9731 54.8978H50.6658V59.6544H48.1016V47.7373ZM50.6658 52.6474H52.2245C53.1798 52.6474 54.3865 52.6474 54.3865 51.3176C54.3865 49.9877 53.3306 49.9366 52.3753 49.9366H50.6658V52.6474Z" fill="#094063"/>
<path d="M66.1517 58.2223C65.7359 58.7349 65.2137 59.1476 64.6226 59.4306C64.0314 59.7135 63.386 59.8598 62.7327 59.8589C60.269 59.8589 58.2578 58.1711 58.2578 55.5627C58.2578 52.9542 60.269 51.2664 62.7327 51.2664C65.1964 51.2664 66.5036 52.9542 66.5036 55.5627V56.3298H60.7718C60.844 56.7769 61.0714 57.1828 61.4128 57.4737C61.7541 57.7647 62.1868 57.9214 62.6321 57.9154C62.9816 57.9142 63.3253 57.8248 63.6324 57.6552C63.9396 57.4856 64.2005 57.2411 64.3919 56.9436L66.1517 58.2223ZM64.0399 54.642C64.047 54.4386 64.0127 54.2359 63.9394 54.0465C63.8661 53.8571 63.7553 53.6851 63.6138 53.5411C63.4723 53.3972 63.3032 53.2844 63.117 53.2099C62.9308 53.1353 62.7315 53.1005 62.5316 53.1076C62.3162 53.0866 62.0988 53.11 61.8925 53.1764C61.6862 53.2429 61.4952 53.3509 61.3309 53.4942C61.1666 53.6374 61.0324 53.8129 60.9364 54.0101C60.8403 54.2074 60.7843 54.4223 60.7718 54.642H64.0399Z" fill="#094063"/>
<path d="M68.0605 46.9189H70.5242V59.6544H68.0605V46.9189Z" fill="#094063"/>
<path d="M73.5923 47.4304C73.979 47.4304 74.3499 47.5867 74.6234 47.8649C74.8968 48.143 75.0504 48.5203 75.0504 48.9137C75.0374 49.2981 74.878 49.6624 74.606 49.9296C74.3339 50.1968 73.9705 50.346 73.5923 50.3458C73.2189 50.3458 72.8609 50.1949 72.5968 49.9263C72.3328 49.6577 72.1845 49.2935 72.1845 48.9137C72.1777 48.7213 72.2092 48.5296 72.2769 48.3499C72.3446 48.1702 72.4472 48.0062 72.5786 47.8678C72.71 47.7293 72.8675 47.6193 73.0417 47.5441C73.2159 47.469 73.4031 47.4303 73.5923 47.4304ZM72.3856 51.471H74.8493V59.6544H72.3856V51.471Z" fill="#094063"/>
<path d="M81.688 58.6313H81.6377C81.3595 59.0404 80.9814 59.3687 80.5406 59.5839C80.0998 59.7991 79.6115 59.8939 79.1237 59.8588C77.6154 59.8588 76.2578 58.9893 76.2578 57.3527C76.2578 54.4885 79.6265 54.4373 81.688 54.4373C81.6822 54.2333 81.635 54.0326 81.5494 53.848C81.4638 53.6633 81.3417 53.4986 81.1907 53.3642C81.0396 53.2298 80.863 53.1285 80.6717 53.0667C80.4804 53.005 80.2786 52.984 80.079 53.0052C79.6948 53.0101 79.316 53.0995 78.9689 53.2672C78.6218 53.4349 78.3144 53.6771 78.0679 53.977L76.7606 52.596C77.729 51.7206 78.9848 51.2461 80.2802 51.2662C83.1964 51.2662 83.9506 52.7495 83.9506 55.5114V59.6542H81.688V58.6313ZM81.0846 56.074C80.3304 56.074 78.6209 56.1251 78.6209 57.2504C78.6209 58.3756 79.2746 58.1199 79.7774 58.1199C80.2802 58.1199 81.688 57.6084 81.688 56.5855V56.074H81.0846Z" fill="#094063"/>
<path d="M85.5078 51.4708H87.9212V52.596H87.9715C88.1918 52.1727 88.5267 51.8225 88.9366 51.5868C89.3465 51.3512 89.8142 51.2399 90.2844 51.2662C92.7983 51.2662 93.3011 52.9541 93.3011 55.1534V59.6542H90.7871V55.6648C90.7871 54.6931 90.7872 53.4655 89.4799 53.4655C88.1726 53.4655 88.0218 54.5396 88.0218 55.5625V59.6542H85.5078V51.4708Z" fill="#094063"/>
<path d="M100.492 54.1306C100.349 53.9266 100.161 53.76 99.9422 53.6444C99.7237 53.5289 99.4814 53.4676 99.2351 53.4657C98.9668 53.4576 98.6998 53.5072 98.4516 53.6111C98.2034 53.715 97.9795 53.871 97.7945 54.0688C97.6095 54.2667 97.4675 54.502 97.3779 54.7594C97.2882 55.0167 97.2529 55.2905 97.2742 55.5627C97.2522 55.8326 97.2874 56.1042 97.3775 56.3592C97.4675 56.6141 97.6103 56.8464 97.7962 57.0403C97.9821 57.2343 98.2068 57.3854 98.455 57.4834C98.7032 57.5814 98.9693 57.6241 99.2351 57.6085C99.4765 57.6087 99.7148 57.5536 99.9324 57.4473C100.15 57.3411 100.341 57.1864 100.492 56.9948L102.101 58.7849C101.316 59.5029 100.29 59.8874 99.2351 59.859C96.7714 59.859 94.8105 58.1711 94.8105 55.5627C94.8105 52.9542 96.7714 51.2664 99.2351 51.2664C100.29 51.238 101.316 51.6224 102.101 52.3404L100.492 54.1306Z" fill="#094063"/>
<path d="M110.648 58.2223C110.232 58.7349 109.71 59.1476 109.119 59.4306C108.528 59.7135 107.882 59.8598 107.229 59.8589C104.765 59.8589 102.754 58.1711 102.754 55.5627C102.754 52.9542 104.765 51.2664 107.229 51.2664C109.692 51.2664 111 52.9542 111 55.5627V56.3298H105.268C105.34 56.7769 105.567 57.1828 105.909 57.4737C106.25 57.7647 106.683 57.9214 107.128 57.9154C107.478 57.9142 107.821 57.8248 108.129 57.6552C108.436 57.4856 108.697 57.2411 108.888 56.9436L110.648 58.2223ZM108.536 54.642C108.543 54.4386 108.509 54.2359 108.436 54.0465C108.362 53.8571 108.251 53.6851 108.11 53.5411C107.968 53.3972 107.799 53.2844 107.613 53.2099C107.427 53.1353 107.228 53.1005 107.028 53.1076C106.812 53.0866 106.595 53.11 106.389 53.1764C106.182 53.2429 105.991 53.3509 105.827 53.4942C105.663 53.6374 105.529 53.8129 105.432 54.0101C105.336 54.2074 105.28 54.4223 105.268 54.642H108.536Z" fill="#094063"/>
<path d="M48.0508 66.0989H52.6765V67.2752H49.3078V69.1677H52.4754V70.3952H49.3078V73.4128H48.0508V66.0989Z" fill="#5299D3"/>
<path d="M56.8487 72.7478H56.7984C56.6316 73.011 56.3999 73.225 56.1264 73.3686C55.8529 73.5122 55.5472 73.5803 55.2397 73.5662C54.3347 73.5662 53.4297 73.0547 53.4297 72.0318C53.4297 71.0088 55.29 70.3439 56.547 70.3439H56.8487V70.1905C56.8487 69.5767 56.3459 69.2699 55.6923 69.2699C55.2103 69.2755 54.7464 69.457 54.385 69.7813L53.7816 69.1164C54.0531 68.8455 54.3757 68.6333 54.73 68.4926C55.0843 68.352 55.463 68.2858 55.8431 68.2981C57.9548 68.2981 57.9548 69.8325 57.9548 70.5485V73.4127H56.8487V72.7478ZM56.7481 71.2134H56.4967C55.8431 71.2134 54.6867 71.2646 54.6867 71.9806C54.6867 72.6967 55.1392 72.5944 55.5414 72.5944C55.9437 72.5944 56.7481 72.1852 56.7481 71.4692V71.2134Z" fill="#5299D3"/>
<path d="M59.2129 68.4517H60.3693V69.2189C60.5057 68.9331 60.721 68.6938 60.9889 68.5304C61.2567 68.3669 61.5656 68.2862 61.8777 68.2983C62.1934 68.2638 62.5115 68.335 62.7837 68.5012C63.056 68.6673 63.2675 68.9193 63.3861 69.2189C63.5484 68.9327 63.7834 68.6963 64.0665 68.5343C64.3496 68.3723 64.6703 68.2908 64.995 68.2983C66.3023 68.2983 66.8051 69.2701 66.8051 70.4464V73.4129H65.5481V70.5999C65.5481 69.9861 65.3972 69.4235 64.6431 69.4235C63.8889 69.4235 63.5872 70.0884 63.5872 70.7022V73.4129H62.3805V70.4464C62.3805 69.8327 62.1291 69.4235 61.5257 69.4235C60.9224 69.4235 60.4196 70.0373 60.4196 70.7022V73.4129H59.2129V68.4517Z" fill="#5299D3"/>
<path d="M68.7149 65.9965C68.8181 65.9895 68.9216 66.0042 69.0189 66.0396C69.1163 66.075 69.2055 66.1304 69.281 66.2023C69.3564 66.2743 69.4165 66.3612 69.4575 66.4578C69.4985 66.5544 69.5196 66.6585 69.5193 66.7637C69.513 66.8645 69.487 66.9631 69.4431 67.0537C69.3992 67.1443 69.3381 67.2252 69.2633 67.2918C69.1886 67.3583 69.1017 67.4092 69.0075 67.4414C68.9134 67.4737 68.814 67.4867 68.7149 67.4798C68.6032 67.5098 68.4863 67.5134 68.373 67.4903C68.2598 67.4671 68.1533 67.4178 68.0618 67.3461C67.9703 67.2745 67.8961 67.1824 67.8451 67.077C67.7941 66.9716 67.7676 66.8556 67.7676 66.7381C67.7676 66.6207 67.7941 66.5047 67.8451 66.3993C67.8961 66.2939 67.9703 66.2018 68.0618 66.1302C68.1533 66.0585 68.2598 66.0092 68.373 65.986C68.4863 65.9628 68.6032 65.9664 68.7149 65.9965ZM68.1115 68.4515H69.3685V73.4127H68.1115V68.4515Z" fill="#5299D3"/>
<path d="M70.7773 65.5874H72.0343V73.4128H70.7773V65.5874Z" fill="#5299D3"/>
<path d="M72.7383 68.4517H74.0958L75.4534 71.8785H75.5036L76.7103 68.4517H77.9673L75.6545 74.4869C75.3025 75.4076 74.9003 75.919 73.7941 75.919C73.4863 75.9177 73.1807 75.8658 72.8891 75.7656L73.04 74.6915L73.6433 74.7938C74.2467 74.7938 74.3975 74.5892 74.5986 74.0778L74.85 73.464L72.7383 68.4517Z" fill="#5299D3"/>
<path d="M86.8155 67.7866C86.6212 67.5608 86.3815 67.38 86.1126 67.2564C85.8437 67.1329 85.5519 67.0695 85.2568 67.0706C84.9247 67.0703 84.5959 67.1384 84.2902 67.2706C83.9846 67.4029 83.7084 67.5967 83.4782 67.8404C83.2481 68.0841 83.0687 68.3726 82.951 68.6885C82.8333 69.0045 82.7796 69.3414 82.7932 69.679C82.7932 71.2646 83.7987 72.441 85.2568 72.441C85.5839 72.4253 85.9032 72.3343 86.1906 72.1748C86.478 72.0154 86.7261 71.7916 86.9161 71.5203L87.9719 72.2875C87.6575 72.7145 87.2466 73.0583 86.774 73.2897C86.3015 73.5212 85.7811 73.6336 85.2568 73.6173C84.7518 73.6464 84.2464 73.5675 83.7732 73.3857C83.3001 73.2039 82.8696 72.9232 82.5095 72.5618C82.1495 72.2004 81.8679 71.7662 81.683 71.2873C81.498 70.8084 81.4137 70.2954 81.4356 69.7813C81.4064 69.2631 81.4853 68.7444 81.667 68.2594C81.8487 67.7743 82.1292 67.3338 82.49 66.9668C82.8508 66.5997 83.2839 66.3144 83.7607 66.1296C84.2375 65.9447 84.7474 65.8645 85.2568 65.8942C85.7445 65.8761 86.2296 65.9729 86.6744 66.177C87.1192 66.381 87.5116 66.6868 87.8211 67.0706L86.8155 67.7866Z" fill="#5299D3"/>
<path d="M88.7266 65.5874H89.9835V73.4128H88.7266V65.5874Z" fill="#5299D3"/>
<path d="M91.9942 65.9965C92.0974 65.9895 92.2009 66.0042 92.2982 66.0396C92.3956 66.075 92.4848 66.1304 92.5603 66.2023C92.6357 66.2743 92.6958 66.3612 92.7368 66.4578C92.7778 66.5544 92.7989 66.6585 92.7986 66.7637C92.7922 66.8645 92.7664 66.9631 92.7224 67.0537C92.6785 67.1443 92.6174 67.2252 92.5426 67.2918C92.4679 67.3583 92.381 67.4092 92.2868 67.4414C92.1927 67.4737 92.0933 67.4867 91.9942 67.4798C91.8825 67.5098 91.7656 67.5134 91.6523 67.4903C91.5391 67.4671 91.4326 67.4178 91.3411 67.3461C91.2496 67.2745 91.1754 67.1824 91.1244 67.077C91.0734 66.9716 91.0469 66.8556 91.0469 66.7381C91.0469 66.6207 91.0734 66.5047 91.1244 66.3993C91.1754 66.2939 91.2496 66.2018 91.3411 66.1302C91.4326 66.0585 91.5391 66.0092 91.6523 65.986C91.7656 65.9628 91.8825 65.9664 91.9942 65.9965ZM91.3908 68.4515H92.5975V73.4127H91.3908V68.4515Z" fill="#5299D3"/>
<path d="M94.0059 68.4516H95.1623V69.2188H95.2126C95.3436 68.9287 95.5577 68.6856 95.8269 68.5214C96.096 68.3571 96.4076 68.2793 96.7209 68.2982C98.0282 68.2982 98.4807 69.27 98.4807 70.2929V73.4128H97.274V70.9067C97.274 70.344 97.2237 69.4234 96.369 69.4234C95.5142 69.4234 95.2628 70.0372 95.2628 70.7021V73.4128H94.0059V68.4516Z" fill="#5299D3"/>
<path d="M100.491 65.9966C100.594 65.9896 100.697 66.0042 100.795 66.0396C100.892 66.075 100.981 66.1304 101.057 66.2024C101.132 66.2743 101.192 66.3613 101.233 66.4579C101.274 66.5544 101.295 66.6586 101.295 66.7638C101.289 66.8646 101.263 66.9632 101.219 67.0538C101.175 67.1444 101.114 67.2253 101.039 67.2918C100.964 67.3584 100.877 67.4092 100.783 67.4415C100.689 67.4737 100.59 67.4868 100.491 67.4798C100.299 67.4803 100.114 67.4065 99.9742 67.2735C99.8342 67.1405 99.7491 66.9583 99.7363 66.7638C99.7363 66.5603 99.8158 66.3652 99.9572 66.2213C100.099 66.0774 100.29 65.9966 100.491 65.9966ZM99.8872 68.4516H101.094V73.4128H99.8872V68.4516Z" fill="#5299D3"/>
<path d="M105.872 69.9348C105.754 69.7898 105.608 69.67 105.444 69.5822C105.28 69.4944 105.101 69.4404 104.917 69.4233C104.57 69.4885 104.257 69.6751 104.031 69.9507C103.806 70.2263 103.682 70.5736 103.682 70.9321C103.682 71.2907 103.806 71.6379 104.031 71.9135C104.257 72.1891 104.57 72.3758 104.917 72.4409C105.099 72.4394 105.279 72.3974 105.444 72.3179C105.609 72.2384 105.755 72.1233 105.872 71.9806L106.727 72.8501C106.224 73.2958 105.584 73.549 104.917 73.5662C104.481 73.579 104.05 73.481 103.661 73.2812C103.273 73.0813 102.94 72.786 102.692 72.4218C102.444 72.0577 102.289 71.6364 102.242 71.1961C102.195 70.7559 102.256 70.3106 102.421 69.9006C102.586 69.4907 102.849 69.1292 103.186 68.8488C103.523 68.5684 103.924 68.3781 104.351 68.2951C104.779 68.2122 105.22 68.2391 105.635 68.3736C106.05 68.5081 106.425 68.7459 106.727 69.0653L105.872 69.9348Z" fill="#5299D3"/>
<path d="M110.046 69.8325C109.943 69.6714 109.801 69.5397 109.633 69.4502C109.466 69.3607 109.279 69.3162 109.09 69.3211C108.738 69.3211 108.386 69.4745 108.386 69.8325C108.386 70.1905 111.001 69.986 111.001 71.9295C111.001 73.8731 109.895 73.5662 108.889 73.5662C108.535 73.5892 108.18 73.5323 107.85 73.3997C107.519 73.2671 107.222 73.062 106.979 72.799L107.833 71.9807C107.963 72.1703 108.136 72.3251 108.337 72.432C108.539 72.5389 108.763 72.5946 108.99 72.5944C109.342 72.5944 109.794 72.441 109.794 72.0318C109.794 71.6226 107.129 71.8272 107.129 69.9348C107.129 68.8096 108.135 68.2981 109.141 68.2981C109.465 68.2758 109.79 68.3339 110.088 68.4675C110.386 68.6012 110.647 68.8063 110.85 69.0653L110.046 69.8325Z" fill="#5299D3"/>
</g>
<defs>
<clipPath id="clip0">
<rect width="99" height="29" fill="white" transform="translate(12 46.9189)"/>
</clipPath>
</defs>
</svg>
