<svg width="70" height="70" viewBox="0 0 70 70" fill="none" xmlns="http://www.w3.org/2000/svg">
<path d="M68.8333 21H67.6667V8.16667C67.6667 7.52238 67.1443 7 66.5 7H46.6667V1.16667C46.6667 0.522379 46.1443 0 45.5 0H24.5C23.8557 0 23.3333 0.522379 23.3333 1.16667V7H3.5C2.85571 7 2.33333 7.52238 2.33333 8.16667V21H1.16667C0.522379 21 0 21.5224 0 22.1667V26.8333C0 27.4776 0.522379 28 1.16667 28H2.33333V68.8333C2.33333 69.4776 2.85571 70 3.5 70H66.5C67.1443 70 67.6667 69.4776 67.6667 68.8333V28H68.8333C69.4776 28 70 27.4776 70 26.8333V22.1667C70 21.5224 69.4776 21 68.8333 21ZM46.6667 9.33333H65.3333V21H46.6667V9.33333ZM25.6667 2.33333H44.3333V21H25.6667V2.33333ZM4.66667 9.33333H23.3333V21H4.66667V9.33333ZM57.1667 67.6667H42V58.3333H57.1667V67.6667ZM57.1667 56H42V44.3333H57.1667V56ZM57.1667 42H42V36.1667H57.1667V42ZM65.3333 67.6667H59.5V35C59.5 34.3557 58.9776 33.8333 58.3333 33.8333H40.8333C40.189 33.8333 39.6667 34.3557 39.6667 35V67.6667H4.66667V28H65.3333V67.6667ZM67.6667 25.6667H2.33333V23.3333H67.6667V25.6667Z" fill="#A260B7"/>
<path d="M11.6667 59.4999H32.6667C33.311 59.4999 33.8333 58.9775 33.8333 58.3333V52.4999C33.8333 51.8556 33.311 51.3333 32.6667 51.3333H31.5V34.9999C31.5 34.3556 30.9776 33.8333 30.3333 33.8333H14C13.3557 33.8333 12.8333 34.3556 12.8333 34.9999V51.3333H11.6667C11.0224 51.3333 10.5 51.8556 10.5 52.4999V58.3333C10.5 58.9775 11.0224 59.4999 11.6667 59.4999ZM15.1667 36.1666H29.1667V51.3333H15.1667V36.1666ZM12.8333 53.6666H31.5V57.1666H12.8333V53.6666Z" fill="#A260B7"/>
<path d="M53.6667 51.3333C54.311 51.3333 54.8333 50.8109 54.8333 50.1666V48.9999C54.8333 48.3556 54.311 47.8333 53.6667 47.8333C53.0224 47.8333 52.5 48.3556 52.5 48.9999V50.1666C52.5 50.8109 53.0224 51.3333 53.6667 51.3333Z" fill="#A260B7"/>
<path d="M40.8333 8.16663H38.5V5.83329C38.5 5.18901 37.9776 4.66663 37.3333 4.66663H32.6667C32.0224 4.66663 31.5 5.18901 31.5 5.83329V8.16663H29.1667C28.5224 8.16663 28 8.68901 28 9.33329V14C28 14.6442 28.5224 15.1666 29.1667 15.1666H31.5V17.5C31.5 18.1442 32.0224 18.6666 32.6667 18.6666H37.3333C37.9776 18.6666 38.5 18.1442 38.5 17.5V15.1666H40.8333C41.4776 15.1666 42 14.6442 42 14V9.33329C42 8.68901 41.4776 8.16663 40.8333 8.16663ZM39.6667 12.8333H37.3333C36.689 12.8333 36.1667 13.3557 36.1667 14V16.3333H33.8333V14C33.8333 13.3557 33.311 12.8333 32.6667 12.8333H30.3333V10.5H32.6667C33.311 10.5 33.8333 9.97758 33.8333 9.33329V6.99996H36.1667V9.33329C36.1667 9.97758 36.689 10.5 37.3333 10.5H39.6667V12.8333Z" fill="#A260B7"/>
<path d="M19.4921 43.9915L22.9921 40.4915C23.4342 40.0335 23.4279 39.306 22.9779 38.856C22.5279 38.4059 21.8004 38.3997 21.3424 38.8417L17.8424 42.3417C17.5393 42.6345 17.4174 43.0686 17.5245 43.4765C17.6311 43.8844 17.9495 44.2028 18.3574 44.3093C18.7652 44.4164 19.1993 44.2945 19.4921 43.9915Z" fill="#A260B7"/>
<path d="M24.8417 41.1751L19.0084 47.0084C18.7054 47.3013 18.5834 47.7353 18.6905 48.1432C18.7971 48.5511 19.1155 48.8695 19.5234 48.9761C19.9313 49.0832 20.3653 48.9612 20.6582 48.6582L26.4915 42.8249C26.9335 42.3668 26.9273 41.6394 26.4772 41.1894C26.0272 40.7393 25.2998 40.7331 24.8417 41.1751Z" fill="#A260B7"/>
</svg>
