<svg width="61" height="61" viewBox="0 0 61 61" fill="none" xmlns="http://www.w3.org/2000/svg">
<g clip-path="url(#clip0)">
<path d="M22.8028 25.4659C15.8177 25.4659 10.1348 19.783 10.1348 12.7978C10.1348 5.81266 15.8177 0.129761 22.8028 0.129761C29.788 0.129761 35.4709 5.81266 35.4709 12.7978C35.4709 19.783 29.788 25.4659 22.8028 25.4659ZM22.8028 2.66337C17.2137 2.66337 12.6684 7.20868 12.6684 12.7978C12.6684 18.387 17.2137 22.9323 22.8028 22.9323C28.392 22.9323 32.9373 18.387 32.9373 12.7978C32.9373 7.20868 28.392 2.66337 22.8028 2.66337Z" fill="#66C6A1"/>
<path d="M16.4685 53.3356H1.26681C0.567529 53.3356 0 52.7681 0 52.0688V41.9343C0 35.6484 5.11537 30.5331 11.4013 30.5331H34.2038C37.3125 30.5331 40.3047 31.8126 42.4203 34.0447C42.9017 34.5514 42.8814 35.3545 42.3722 35.8359C41.8654 36.3199 41.0623 36.2971 40.5809 35.7878C38.9442 34.0599 36.6183 33.0667 34.2038 33.0667H11.4013C6.51139 33.0667 2.53361 37.0445 2.53361 41.9343V50.802H16.4685C17.1678 50.802 17.7353 51.3695 17.7353 52.0688C17.7353 52.7681 17.1678 53.3356 16.4685 53.3356Z" fill="#66C6A1"/>
<path d="M36.7357 60.9372C36.2568 60.9372 35.8185 60.6687 35.6031 60.238L30.8855 50.8028H24.0676C23.3683 50.8028 22.8008 50.2353 22.8008 49.536C22.8008 48.8367 23.3683 48.2692 24.0676 48.2692H31.6684C32.1473 48.2692 32.5856 48.5403 32.801 48.9685L36.647 56.6605L43.171 41.436C43.3661 40.9825 43.8044 40.6835 44.2985 40.6683C44.7875 40.6861 45.2486 40.9268 45.469 41.3676L52.7202 55.87H59.5382C60.2375 55.87 60.805 56.4375 60.805 57.1368C60.805 57.8361 60.2375 58.4036 59.5382 58.4036H51.9373C51.4585 58.4036 51.0202 58.1325 50.8048 57.7044L44.4252 44.9451L37.9011 60.1696C37.706 60.6231 37.2677 60.922 36.7737 60.9372C36.761 60.9372 36.7483 60.9372 36.7357 60.9372Z" fill="#66C6A1"/>
</g>
<defs>
<clipPath id="clip0">
<rect width="60.8067" height="60.8067" fill="white" transform="translate(0 0.130615)"/>
</clipPath>
</defs>
</svg>
