<svg width="62" height="62" viewBox="0 0 62 62" fill="none" xmlns="http://www.w3.org/2000/svg">
<g clip-path="url(#clip0)">
<path d="M20.0858 29.2048C20.0901 29.2048 20.0942 29.2048 20.0985 29.2048H25.2756V24.015C25.2686 22.9683 26.1115 22.1139 27.1582 22.1069C27.1625 22.1069 27.1668 22.1069 27.1709 22.1069H34.6504C35.6971 22.1069 36.5457 22.9555 36.5457 24.0022V29.1921H41.7228C42.7695 29.1851 43.6239 30.0278 43.6309 31.0745C43.6309 31.0831 43.6309 31.0915 43.6309 31.1001V38.5669C43.6309 39.6136 42.7823 40.4622 41.7355 40.4622H36.5457V45.6393C36.5527 46.686 35.7098 47.5403 34.6631 47.5473C34.6588 47.5473 34.6545 47.5473 34.6504 47.5473H27.1836C26.1369 47.5473 25.2883 46.6987 25.2883 45.652V40.4622H20.0985C19.0518 40.4692 18.1975 39.6263 18.1905 38.5796C18.1905 38.5753 18.1905 38.571 18.1905 38.5669V31.1001C18.1905 30.0534 19.0389 29.2048 20.0858 29.2048ZM20.7345 37.9181H26.5476C27.2501 37.9181 27.8197 38.4877 27.8197 39.1902V45.0033H34.0017V39.1902C34.0017 38.4877 34.5712 37.9181 35.2737 37.9181H41.0868V31.7488H35.2737C34.5712 31.7488 34.0017 31.1793 34.0017 30.4768V24.651H27.8324V30.4641C27.8324 31.1666 27.2628 31.7361 26.5604 31.7361H20.7345V37.9181Z" fill="#EF8C6B"/>
<path d="M8.77707 12.5921H19.2585V8.11462C19.1925 6.07144 20.7954 4.36153 22.8386 4.29554C22.9428 4.2922 23.0469 4.29316 23.1509 4.29856H38.6695C40.7111 4.19219 42.4524 5.76091 42.5589 7.80234C42.5643 7.90633 42.5654 8.01048 42.5619 8.11462V12.5667H53.0434C57.0884 12.5667 61.8203 14.869 61.8203 21.3436V49.0101C61.8203 55.4846 57.0884 57.787 53.0434 57.787H8.77707C4.73204 57.787 0.000133514 55.4846 0.000133514 49.0101V21.3691C0.000133514 14.8945 4.71932 12.5921 8.77707 12.5921ZM40.0179 8.11462C40.0179 7.74574 40.0179 6.75356 38.6568 6.75356H23.1509C21.7898 6.75356 21.7898 7.73302 21.7898 8.11462V12.5667H40.0179V8.11462ZM2.54417 49.0101C2.54417 54.6324 6.89448 55.243 8.77707 55.243H53.0434C54.9132 55.243 59.2763 54.6324 59.2763 49.0101V21.3691C59.2763 15.7467 54.926 15.1362 53.0434 15.1362H8.77707C6.9072 15.1362 2.54417 15.7467 2.54417 21.3691V49.0101Z" fill="#EF8C6B"/>
</g>
<defs>
<clipPath id="clip0">
<rect width="61.8202" height="61.8202" fill="white" transform="matrix(-1 0 0 1 61.8203 0.130249)"/>
</clipPath>
</defs>
</svg>
