<svg width="60" height="60" viewBox="0 0 60 60" fill="none" xmlns="http://www.w3.org/2000/svg">
<g clip-path="url(#clip0)">
<path d="M14.514 15.0562C13.8767 15.0562 13.3594 15.5734 13.3594 16.2108C13.3594 16.8482 13.8767 17.3654 14.514 17.3654C15.1514 17.3654 15.6687 16.8482 15.6687 16.2108C15.6687 15.5734 15.1514 15.0562 14.514 15.0562Z" fill="#4C70D6"/>
<path d="M24.9049 36.6469H21.4412V33.1832C21.4412 32.5456 20.9241 32.0286 20.2865 32.0286C19.6489 32.0286 19.132 32.5456 19.132 33.1832V36.6469H15.6683C15.0307 36.6469 14.5137 37.1639 14.5137 37.8014C14.5137 38.4389 15.0307 38.9561 15.6683 38.9561H19.132V42.4198C19.132 43.0574 19.6491 43.5744 20.2865 43.5744C20.924 43.5744 21.4412 43.0574 21.4412 42.4198V38.9561H24.9049C25.5425 38.9561 26.0595 38.439 26.0595 37.8014C26.0595 37.1638 25.5426 36.6469 24.9049 36.6469Z" fill="#4C70D6"/>
<path d="M56.0665 37.6862C53.5141 33.2655 47.8707 31.7526 43.4492 34.3055L38.7593 37.0131V26.9867C38.7593 25.7472 38.3494 24.5171 37.6048 23.523L31.8319 15.826V12.5485C33.1757 12.0718 34.1411 10.7885 34.1411 9.28324V3.97224C34.1409 2.06235 32.587 0.508545 30.6772 0.508545H9.89464C7.98475 0.508545 6.43084 2.06235 6.43084 3.97224V9.28336C6.43084 10.7884 7.39623 12.0719 8.74 12.5486V15.8261L2.96668 23.5236C2.2224 24.5172 1.8125 25.7472 1.8125 26.9867V49.3475C1.8125 52.5307 4.40225 55.1203 7.58536 55.1203H26.1407C28.7295 59.4598 34.3117 60.9121 38.6875 58.3855L52.6859 50.3034C57.0683 47.7726 58.6316 42.1309 56.0665 37.6862ZM8.74 3.97224C8.74 3.33557 9.25798 2.8176 9.89453 2.8176H30.677C31.3137 2.8176 31.8317 3.33557 31.8317 3.97224V9.28336C31.8317 9.92003 31.3137 10.4379 30.677 10.4379H9.89464C9.25798 10.4379 8.74012 9.91991 8.74012 9.28336V3.97224H8.74ZM4.81457 24.9083L10.8182 16.9036C10.9681 16.7039 11.0492 16.4607 11.0492 16.2109V12.7472H29.5225V15.0563H19.1313C18.4937 15.0563 17.9767 15.5734 17.9767 16.211C17.9767 16.8486 18.4937 17.3656 19.1313 17.3656H30.0998L35.7568 24.908C36.1265 25.4016 36.3561 25.9922 36.4255 26.6023H4.14626C4.21554 25.9921 4.4452 25.4015 4.81457 24.9083ZM7.58548 52.8111C5.67558 52.8111 4.12178 51.2574 4.12178 49.3475V48.1814H25.0987C24.7326 49.6784 24.735 51.2773 25.1543 52.8113H7.58548V52.8111ZM26.0043 45.8836H4.12167V28.9112H36.45V38.3461L29.4507 42.3876C27.9913 43.2306 26.8118 44.4306 26.0043 45.8836ZM37.5331 56.3857C34.2196 58.299 29.9855 57.1675 28.0709 53.8517C26.1472 50.5039 27.313 46.289 30.6056 44.3872L36.8726 40.7688L43.8001 52.7673L37.5331 56.3857ZM51.5313 48.3037L45.8 51.6127L38.8723 39.6141L44.6038 36.3053C47.9194 34.3912 52.152 35.5247 54.0666 38.8406C55.9897 42.1731 54.8203 46.4044 51.5313 48.3037Z" fill="#4C70D6"/>
</g>
<defs>
<clipPath id="clip0">
<rect width="59.1176" height="59.1176" fill="white" transform="translate(0 0.508423)"/>
</clipPath>
</defs>
</svg>
