<svg width="222" height="66" viewBox="0 0 222 66" fill="none" xmlns="http://www.w3.org/2000/svg">
<g clip-path="url(#clip0)">
<path d="M14.6591 65.4217C14.0957 65.4217 13.5324 65.4217 12.969 65.4028C11.7931 65.3889 10.62 65.2957 9.45918 65.1241C8.37368 64.9533 7.32232 64.6356 6.33998 64.1816C5.36676 63.7342 4.47904 63.1468 3.71091 62.4422C2.93761 61.7476 2.29381 60.9429 1.80484 60.0597C1.30797 59.168 0.964074 58.2122 0.785138 57.2256C0.591629 56.1654 0.486791 55.0933 0.471528 54.0186C0.46026 53.6577 0.443359 52.4571 0.443359 52.4571V12.9458C0.443359 12.9458 0.46026 11.7639 0.471528 11.415C0.486144 10.3421 0.590356 9.27172 0.78326 8.2132C0.962994 7.22437 1.30749 6.26635 1.80484 5.37227C2.29408 4.4856 2.93778 3.67696 3.71091 2.97775C4.48189 2.27739 5.36832 1.69106 6.3381 1.24002C7.31581 0.790006 8.36222 0.476357 9.44228 0.309577C10.607 0.133216 11.7846 0.0365942 12.9652 0.0205245L14.6553 0H207.649L209.364 0.0222348C210.533 0.0351569 211.699 0.128351 212.853 0.301025C213.944 0.46987 215.002 0.785761 215.991 1.23831C217.94 2.15315 219.526 3.60046 220.526 5.3774C221.015 6.26602 221.354 7.21691 221.531 8.1978C221.726 9.26496 221.835 10.3436 221.858 11.4253C221.858 11.9093 221.858 12.4293 221.858 12.9475C221.873 13.5889 221.873 14.1995 221.873 14.8152V50.6099C221.873 51.2307 221.873 51.8379 221.858 52.4485C221.858 53.0044 221.858 53.5141 221.858 54.0391C221.836 55.1019 221.728 56.1617 221.537 57.2102C221.361 58.204 221.019 59.1674 220.522 60.0665C220.027 60.9432 219.383 61.7432 218.615 62.4371C217.847 63.1446 216.959 63.7348 215.985 64.1851C214.999 64.6401 213.943 64.9572 212.853 65.1258C211.692 65.2984 210.519 65.3916 209.343 65.4046C208.793 65.4165 208.217 65.4234 207.653 65.4234H205.618L14.6591 65.4217Z" fill="black"/>
<path d="M47.8933 32.5209C47.9143 31.0362 48.3473 29.5804 49.152 28.2892C49.9568 26.9979 51.1072 25.913 52.4961 25.1355C51.614 23.9881 50.4503 23.0437 49.0975 22.3775C47.7447 21.7112 46.2399 21.3414 44.7028 21.2974C41.4239 20.9844 38.2446 23.0848 36.5733 23.0848C34.8701 23.0848 32.2973 21.3282 29.5274 21.3744C27.7354 21.4272 25.989 21.902 24.4583 22.7523C22.9277 23.6027 21.665 24.7997 20.7933 26.2267C17.0168 32.1822 19.8337 40.9359 23.4524 45.7489C25.2627 48.1058 27.3772 50.7397 30.1452 50.6457C32.8532 50.543 33.8654 49.0721 37.1348 49.0721C40.3742 49.0721 41.3225 50.6457 44.1469 50.5858C47.0539 50.543 48.8849 48.2186 50.6313 45.8378C51.9318 44.1581 52.9326 42.3017 53.5965 40.3373C51.9088 39.6876 50.4683 38.6002 49.4542 37.2103C48.4401 35.8205 47.8973 34.1896 47.8933 32.5209Z" fill="white"/>
<path d="M42.5537 18.1334C44.1385 16.4007 44.9193 14.1734 44.7302 11.9248C42.3093 12.1567 40.0732 13.2107 38.4674 14.8769C37.6811 15.6919 37.0791 16.6402 36.696 17.6674C36.3128 18.6946 36.156 19.7807 36.2345 20.8632C37.446 20.8733 38.6441 20.6329 39.7387 20.1601C40.8333 19.6872 41.7958 18.9943 42.5537 18.1334Z" fill="white"/>
<path d="M78.2363 44.9232H69.35L67.2167 50.67H63.4609L71.8702 29.4238H75.7819L84.2024 50.67H80.3733L78.2363 44.9232ZM70.2683 42.2738H77.3142L73.8401 32.9575H73.7425L70.2683 42.2738Z" fill="white"/>
<path d="M102.384 42.9219C102.384 47.7331 99.5558 50.8255 95.2892 50.8255C94.208 50.8772 93.1328 50.6505 92.1865 50.1713C91.2403 49.6922 90.4614 48.98 89.939 48.1163H89.8583V55.7856H86.3691V35.1773H89.7494V37.7531H89.8132C90.3598 36.8939 91.1519 36.1857 92.1053 35.7038C93.0586 35.222 94.1375 34.9844 95.2272 35.0165C99.5407 35.0165 102.384 38.1226 102.384 42.9219ZM98.7971 42.9219C98.7971 39.7868 97.0187 37.7258 94.3033 37.7258C91.6367 37.7258 89.8433 39.8295 89.8433 42.9219C89.8433 46.0416 91.6367 48.1317 94.3033 48.1317C97.0168 48.1317 98.7971 46.0792 98.7971 42.9219Z" fill="white"/>
<path d="M121.099 42.9219C121.099 47.7331 118.271 50.8255 114.002 50.8255C112.922 50.8762 111.848 50.649 110.903 50.1699C109.958 49.6908 109.18 48.9791 108.658 48.1163H108.577V55.7856H105.09V35.1773H108.47V37.7531H108.534C109.081 36.8939 109.873 36.1857 110.826 35.7038C111.779 35.222 112.858 34.9844 113.948 35.0165C118.252 35.0165 121.099 38.1226 121.099 42.9219ZM117.51 42.9219C117.51 39.7868 115.732 37.7258 113.016 37.7258C110.35 37.7258 108.556 39.8295 108.556 42.9219C108.556 46.0416 110.35 48.1317 113.016 48.1317C115.73 48.1317 117.51 46.0792 117.51 42.9219Z" fill="white"/>
<path d="M133.464 44.7456C133.724 46.8511 135.969 48.2348 139.04 48.2348C141.981 48.2348 144.097 46.8511 144.097 44.9526C144.097 43.3038 142.82 42.3169 139.799 41.6396L136.777 40.976C132.495 40.0335 130.507 38.2103 130.507 35.2496C130.507 31.5843 134.013 29.0684 138.991 29.0684C143.921 29.0684 147.299 31.586 147.412 35.2496H143.889C143.678 33.1305 141.753 31.8511 138.942 31.8511C136.131 31.8511 134.208 33.1459 134.208 35.029C134.208 36.5307 135.436 37.415 138.443 38.0906L141.012 38.6652C145.797 39.6915 147.782 41.4463 147.782 44.5523C147.782 48.5255 144.307 51.0141 138.781 51.0141C133.609 51.0141 130.118 48.5837 129.893 44.7422L133.464 44.7456Z" fill="white"/>
<path d="M155.317 31.5137V35.179H158.551V37.6967H155.317V46.2331C155.317 47.5587 155.965 48.1778 157.383 48.1778C157.768 48.1718 158.152 48.1473 158.534 48.1043V50.6065C157.895 50.7153 157.246 50.7646 156.596 50.7536C153.154 50.7536 151.811 49.5769 151.811 46.5735V37.6949H149.34V35.1773H151.811V31.5137H155.317Z" fill="white"/>
<path d="M160.42 42.9217C160.42 38.0489 163.571 34.9873 168.484 34.9873C173.396 34.9873 176.549 38.0489 176.549 42.9217C176.549 47.7945 173.43 50.8561 168.484 50.8561C163.537 50.8561 160.42 47.8065 160.42 42.9217ZM173.002 42.9217C173.002 39.5796 171.312 37.6076 168.495 37.6076C165.678 37.6076 163.988 39.595 163.988 42.9217C163.988 46.2775 165.678 48.2341 168.495 48.2341C171.312 48.2341 173.002 46.2757 173.002 42.9217Z" fill="white"/>
<path d="M179.426 35.1769H182.753V37.8126H182.834C183.059 36.9892 183.589 36.2615 184.334 35.7519C185.078 35.2423 185.993 34.9819 186.924 35.0144C187.327 35.0129 187.728 35.0525 188.12 35.1325V38.1051C187.613 37.964 187.083 37.8993 186.552 37.9135C186.045 37.8948 185.54 37.9762 185.071 38.1521C184.601 38.3281 184.18 38.5944 183.834 38.9329C183.488 39.2713 183.227 39.6739 183.069 40.1129C182.91 40.5519 182.858 41.017 182.915 41.4762V50.6695H179.426V35.1769Z" fill="white"/>
<path d="M204.212 46.1147C203.742 48.9266 200.736 50.8542 196.888 50.8542C191.941 50.8542 188.871 47.8354 188.871 42.9865C188.871 38.1376 191.958 34.9785 196.74 34.9785C201.434 34.9785 204.401 37.9221 204.401 42.617V43.7065H192.392V43.8981C192.337 44.468 192.415 45.0421 192.622 45.5823C192.829 46.1224 193.16 46.6163 193.593 47.0311C194.026 47.4458 194.55 47.772 195.132 47.988C195.714 48.2039 196.339 48.3046 196.967 48.2835C197.791 48.3541 198.619 48.1803 199.327 47.788C200.034 47.3957 200.584 46.8058 200.893 46.1062L204.212 46.1147ZM192.415 41.4967H200.914C200.946 40.984 200.861 40.4707 200.665 39.9892C200.469 39.5077 200.165 39.0684 199.773 38.699C199.382 38.3295 198.91 38.0379 198.389 37.8423C197.867 37.6468 197.307 37.5517 196.743 37.5629C196.175 37.5597 195.611 37.6592 195.085 37.8557C194.558 38.0521 194.08 38.3416 193.677 38.7074C193.275 39.0732 192.956 39.508 192.739 39.9868C192.522 40.4656 192.411 40.9788 192.413 41.4967H192.415Z" fill="white"/>
<path d="M69.9785 13.4364C70.7109 13.3885 71.4459 13.4892 72.1304 13.7315C72.8148 13.9739 73.4316 14.3516 73.9362 14.8375C74.4408 15.3234 74.8205 15.9054 75.048 16.5413C75.2755 17.1772 75.3451 17.8512 75.2517 18.5145C75.2517 21.7745 73.3174 23.6456 69.9785 23.6456H65.9316V13.4364H69.9785ZM67.6762 22.1987H69.7888C70.3117 22.2272 70.8349 22.1491 71.3205 21.9702C71.806 21.7913 72.2417 21.516 72.5957 21.1644C72.9497 20.8128 73.2132 20.3938 73.3669 19.9377C73.5207 19.4817 73.5609 19.0002 73.4846 18.5282C73.5554 18.0581 73.5113 17.5795 73.3552 17.1268C73.1991 16.674 72.935 16.2583 72.5818 15.9095C72.2285 15.5606 71.795 15.2873 71.3121 15.109C70.8293 14.9307 70.3091 14.8519 69.7888 14.8783H67.6762V22.1987Z" fill="white"/>
<path d="M77.0744 19.7871C77.0218 19.2813 77.0858 18.771 77.2623 18.289C77.4388 17.807 77.7239 17.3639 78.0993 16.9881C78.4747 16.6122 78.9321 16.312 79.4424 16.1065C79.9526 15.9011 80.5043 15.7949 81.0621 15.7949C81.62 15.7949 82.1717 15.9011 82.6819 16.1065C83.1921 16.312 83.6496 16.6122 84.025 16.9881C84.4004 17.3639 84.6855 17.807 84.862 18.289C85.0385 18.771 85.1025 19.2813 85.0499 19.7871C85.1053 20.2944 85.0435 20.8066 84.8683 21.2908C84.6932 21.7751 84.4086 22.2205 84.0329 22.5984C83.6572 22.9763 83.1988 23.2784 82.6871 23.4851C82.1754 23.6918 81.6219 23.7986 81.0621 23.7986C80.5024 23.7986 79.9488 23.6918 79.4372 23.4851C78.9255 23.2784 78.4671 22.9763 78.0914 22.5984C77.7157 22.2205 77.4311 21.7751 77.2559 21.2908C77.0808 20.8066 77.0189 20.2944 77.0744 19.7871ZM83.3335 19.7871C83.3335 18.1178 82.5109 17.1411 81.065 17.1411C79.619 17.1411 78.7983 18.1178 78.7983 19.7871C78.7983 21.4564 79.6152 22.4382 81.065 22.4382C82.5147 22.4382 83.3335 21.4632 83.3335 19.7871Z" fill="white"/>
<path d="M95.651 23.6459H93.9196L92.1713 17.9743H92.0398L90.3009 23.6459H88.5863L86.2559 15.9492H87.946L89.4614 21.8261H89.5854L91.3243 15.9492H92.9262L94.6651 21.8261H94.7966L96.2989 15.9492H97.9683L95.651 23.6459Z" fill="white"/>
<path d="M99.9335 15.9412H101.539V17.1641H101.663C101.875 16.7253 102.232 16.3577 102.685 16.1125C103.137 15.8673 103.662 15.7566 104.187 15.7958C104.598 15.7677 105.012 15.8242 105.396 15.9612C105.78 16.0982 106.126 16.3122 106.407 16.5873C106.688 16.8625 106.898 17.1917 107.02 17.5506C107.143 17.9095 107.175 18.2889 107.115 18.6607V23.6464H105.445V19.0387C105.445 17.8004 104.856 17.1864 103.62 17.1864C103.341 17.1746 103.062 17.2179 102.803 17.3134C102.543 17.409 102.31 17.5544 102.118 17.7397C101.926 17.9251 101.781 18.146 101.692 18.3873C101.602 18.6286 101.572 18.8847 101.601 19.1379V23.6464H99.9316L99.9335 15.9412Z" fill="white"/>
<path d="M109.773 12.9336H111.443V23.6456H109.773V12.9336Z" fill="white"/>
<path d="M113.761 19.7877C113.71 19.2825 113.775 18.7732 113.952 18.2922C114.129 17.8113 114.415 17.3693 114.79 16.9944C115.166 16.6196 115.623 16.3202 116.132 16.1154C116.642 15.9105 117.193 15.8047 117.75 15.8047C118.307 15.8047 118.858 15.9105 119.367 16.1154C119.877 16.3202 120.334 16.6196 120.709 16.9944C121.084 17.3693 121.37 17.8113 121.547 18.2922C121.724 18.7732 121.789 19.2825 121.738 19.7877C121.792 20.2944 121.729 20.8058 121.554 21.289C121.378 21.7722 121.093 22.2166 120.717 22.5936C120.342 22.9705 119.883 23.2718 119.372 23.4779C118.861 23.6841 118.309 23.7906 117.75 23.7906C117.191 23.7906 116.638 23.6841 116.127 23.4779C115.616 23.2718 115.158 22.9705 114.782 22.5936C114.406 22.2166 114.122 21.7722 113.946 21.289C113.77 20.8058 113.707 20.2944 113.761 19.7877ZM120.02 19.7877C120.02 18.1184 119.197 17.1417 117.752 17.1417C116.306 17.1417 115.485 18.1184 115.485 19.7877C115.485 21.457 116.302 22.4388 117.752 22.4388C119.201 22.4388 120.02 21.4639 120.02 19.7877Z" fill="white"/>
<path d="M123.494 21.4633C123.494 20.0762 124.621 19.2775 126.64 19.1646L128.931 19.0449V18.3795C128.931 17.5654 128.341 17.107 127.199 17.107C126.26 17.107 125.622 17.4183 125.438 17.9622H123.823C123.994 16.6401 125.359 15.79 127.278 15.79C129.398 15.79 130.595 16.7513 130.595 18.3778V23.6458H128.989V22.5631H128.857C128.589 22.9515 128.213 23.268 127.766 23.4805C127.32 23.6929 126.82 23.7937 126.317 23.7723C125.962 23.8058 125.603 23.7711 125.264 23.6706C124.924 23.5701 124.612 23.4059 124.347 23.1887C124.081 22.9715 123.869 22.706 123.723 22.4094C123.577 22.1129 123.501 21.7917 123.5 21.4668L123.494 21.4633ZM128.94 20.8066V20.1635L126.874 20.2832C125.71 20.355 125.184 20.7142 125.184 21.3932C125.184 22.0722 125.845 22.4896 126.752 22.4896C127.018 22.514 127.287 22.4894 127.542 22.4174C127.797 22.3454 128.034 22.2274 128.238 22.0704C128.442 21.9133 128.609 21.7206 128.73 21.5034C128.851 21.2863 128.922 21.0493 128.94 20.8066Z" fill="white"/>
<path d="M132.785 19.787C132.785 17.3532 134.158 15.8121 136.295 15.8121C136.823 15.7899 137.348 15.9052 137.807 16.1445C138.267 16.3837 138.641 16.7371 138.888 17.1633H139.012V12.9336H140.682V23.6456H139.08V22.4296H138.948C138.683 22.853 138.295 23.202 137.827 23.439C137.359 23.676 136.828 23.7918 136.293 23.7739C134.145 23.7688 132.785 22.2277 132.785 19.787ZM134.509 19.787C134.509 21.4205 135.354 22.4039 136.763 22.4039C138.171 22.4039 139.039 21.4068 139.039 19.7939C139.039 18.181 138.16 17.177 136.763 17.177C135.365 17.177 134.509 18.1673 134.509 19.787Z" fill="white"/>
<path d="M147.586 19.7871C147.534 19.2813 147.598 18.771 147.774 18.289C147.95 17.807 148.236 17.3639 148.611 16.9881C148.986 16.6122 149.444 16.312 149.954 16.1065C150.464 15.9011 151.016 15.7949 151.574 15.7949C152.132 15.7949 152.683 15.9011 153.194 16.1065C153.704 16.312 154.161 16.6122 154.537 16.9881C154.912 17.3639 155.197 17.807 155.374 18.289C155.55 18.771 155.614 19.2813 155.562 19.7871C155.617 20.2944 155.555 20.8066 155.38 21.2908C155.205 21.7751 154.92 22.2205 154.545 22.5984C154.169 22.9763 153.71 23.2784 153.199 23.4851C152.687 23.6918 152.134 23.7986 151.574 23.7986C151.014 23.7986 150.461 23.6918 149.949 23.4851C149.437 23.2784 148.979 22.9763 148.603 22.5984C148.227 22.2205 147.943 21.7751 147.768 21.2908C147.593 20.8066 147.531 20.2944 147.586 19.7871ZM153.845 19.7871C153.845 18.1178 153.023 17.1411 151.577 17.1411C150.131 17.1411 149.31 18.1178 149.31 19.7871C149.31 21.4564 150.127 22.4382 151.577 22.4382C153.026 22.4382 153.845 21.4632 153.845 19.7871Z" fill="white"/>
<path d="M157.801 15.9412H159.406V17.1641H159.53C159.742 16.7253 160.1 16.3577 160.552 16.1125C161.004 15.8673 161.529 15.7566 162.054 15.7958C162.466 15.7677 162.879 15.8242 163.263 15.9612C163.647 16.0982 163.993 16.3122 164.274 16.5873C164.555 16.8625 164.765 17.1917 164.887 17.5506C165.01 17.9095 165.042 18.2889 164.982 18.6607V23.6464H163.312V19.0387C163.312 17.8004 162.723 17.1864 161.487 17.1864C161.208 17.1746 160.929 17.2179 160.67 17.3134C160.411 17.409 160.177 17.5544 159.985 17.7397C159.794 17.9251 159.648 18.146 159.559 18.3873C159.47 18.6286 159.439 18.8847 159.468 19.1379V23.6464H157.799L157.801 15.9412Z" fill="white"/>
<path d="M174.413 14.0234V15.9767H176.245V17.2577H174.413V21.2173C174.413 22.0245 174.777 22.3769 175.609 22.3769C175.822 22.376 176.034 22.364 176.245 22.341V23.6066C175.946 23.6552 175.643 23.6809 175.338 23.6836C173.483 23.6836 172.743 23.0884 172.743 21.6038V17.256H171.4V15.975H172.743V14.0234H174.413Z" fill="white"/>
<path d="M178.516 12.9336H180.17V17.177H180.302C180.523 16.7334 180.89 16.3629 181.351 16.1159C181.813 15.8689 182.346 15.7575 182.88 15.7968C183.289 15.7763 183.699 15.8384 184.079 15.9787C184.459 16.119 184.8 16.334 185.078 16.6083C185.356 16.8826 185.565 17.2095 185.688 17.5656C185.812 17.9218 185.847 18.2984 185.792 18.6685V23.6456H184.121V19.0447C184.121 17.815 183.492 17.1924 182.313 17.1924C182.026 17.1709 181.737 17.2068 181.467 17.2976C181.197 17.3884 180.952 17.5318 180.749 17.7179C180.546 17.9039 180.391 18.1281 180.293 18.3747C180.195 18.6214 180.158 18.8845 180.183 19.1457V23.6456H178.516V12.9336Z" fill="white"/>
<path d="M195.532 21.5632C195.304 22.2661 194.812 22.8739 194.143 23.2803C193.473 23.6867 192.668 23.8659 191.868 23.7866C191.311 23.8001 190.757 23.703 190.245 23.502C189.734 23.301 189.276 23.001 188.905 22.6228C188.533 22.2446 188.256 21.7973 188.093 21.3118C187.93 20.8264 187.886 20.3145 187.962 19.8117C187.888 19.3073 187.933 18.7943 188.096 18.3074C188.258 17.8204 188.533 17.3709 188.903 16.9893C189.273 16.6077 189.728 16.3029 190.238 16.0955C190.748 15.8881 191.302 15.783 191.86 15.7872C194.213 15.7872 195.633 17.2513 195.633 19.6698V20.2H189.661V20.2855C189.635 20.5683 189.674 20.8529 189.776 21.1211C189.878 21.3893 190.04 21.6352 190.252 21.843C190.464 22.0507 190.722 22.2158 191.008 22.3275C191.294 22.4393 191.603 22.4953 191.915 22.4919C192.314 22.5355 192.718 22.47 193.076 22.3037C193.435 22.1374 193.73 21.8778 193.926 21.558L195.532 21.5632ZM189.661 19.0814H193.932C193.953 18.8229 193.915 18.5632 193.819 18.319C193.724 18.0747 193.573 17.8515 193.377 17.6634C193.181 17.4754 192.944 17.3269 192.681 17.2273C192.418 17.1278 192.136 17.0794 191.851 17.0854C191.562 17.0822 191.276 17.1316 191.008 17.2308C190.741 17.33 190.498 17.4769 190.294 17.663C190.09 17.849 189.929 18.0703 189.82 18.3139C189.712 18.5575 189.658 18.8185 189.661 19.0814Z" fill="white"/>
</g>
<defs>
<clipPath id="clip0">
<rect width="221.439" height="65.4251" fill="white" transform="translate(0.439453)"/>
</clipPath>
</defs>
</svg>
