<svg width="223" height="66" viewBox="0 0 223 66" fill="none" xmlns="http://www.w3.org/2000/svg">
<g clip-path="url(#clip0_47496_419)">
<path d="M13.2376 64.9031L13.2376 64.903L13.2268 64.9029C12.0742 64.8892 10.9242 64.798 9.7865 64.6298C8.74678 64.466 7.74073 64.1617 6.80169 63.7278L6.80081 63.7274C5.87351 63.301 5.02961 62.7422 4.30088 62.0737L4.29697 62.0702C3.56387 61.4118 2.95544 60.6506 2.49423 59.8175L2.49356 59.8163C2.02295 58.9717 1.69802 58.0679 1.52907 57.1363L1.52897 57.1358C1.34042 56.1028 1.2383 55.0584 1.22343 54.0115L1.2235 54.0115L1.22324 54.003C1.21775 53.8271 1.21076 53.4409 1.2051 53.0943C1.20229 52.922 1.19983 52.7609 1.19807 52.6429L1.19601 52.5021L1.19545 52.4635L1.19531 52.4571V52.4535V12.9494L1.19545 12.9397L1.19601 12.9017L1.19807 12.7632C1.19983 12.6472 1.20229 12.4888 1.2051 12.3196C1.21076 11.9791 1.21774 11.6008 1.22322 11.4311L1.22331 11.4312L1.22343 11.4218C1.23767 10.3768 1.33918 9.3341 1.52711 8.30284L1.52715 8.30262C1.69692 7.36865 2.02253 6.46243 2.49374 5.61533L2.49457 5.61383C2.95629 4.77705 3.56494 4.01178 4.29824 3.34859L4.29906 3.34785C5.03147 2.68252 5.87509 2.12409 6.80003 1.69379C7.73443 1.26382 8.73553 0.963611 9.76981 0.803832C10.9116 0.630976 12.0661 0.536254 13.2236 0.520483C13.2238 0.520481 13.2239 0.52048 13.224 0.520478L14.9103 0.5H207.898H207.901L209.609 0.522194L209.61 0.522204C210.756 0.534869 211.899 0.626177 213.03 0.79533C214.075 0.95716 215.087 1.25953 216.033 1.69191C217.891 2.56483 219.395 3.94105 220.341 5.6205C220.804 6.46186 221.124 7.36069 221.291 8.28651L221.291 8.28767C221.481 9.327 221.587 10.3774 221.61 11.4306V11.4309V11.4338V11.4366V11.4395V11.4423V11.4451V11.448V11.4508V11.4537V11.4565V11.4594V11.4622V11.4651V11.4679V11.4708V11.4736V11.4765V11.4793V11.4822V11.485V11.4879V11.4907V11.4936V11.4964V11.4993V11.5021V11.505V11.5079V11.5107V11.5136V11.5164V11.5193V11.5222V11.525V11.5279V11.5308V11.5336V11.5365V11.5394V11.5422V11.5451V11.548V11.5508V11.5537V11.5566V11.5595V11.5623V11.5652V11.5681V11.5709V11.5738V11.5767V11.5796V11.5825V11.5853V11.5882V11.5911V11.594V11.5969V11.5997V11.6026V11.6055V11.6084V11.6113V11.6142V11.6171V11.6199V11.6228V11.6257V11.6286V11.6315V11.6344V11.6373V11.6402V11.6431V11.646V11.6489V11.6518V11.6547V11.6575V11.6604V11.6633V11.6662V11.6691V11.672V11.6749V11.6778V11.6807V11.6837V11.6866V11.6895V11.6924V11.6953V11.6982V11.7011V11.704V11.7069V11.7098V11.7127V11.7156V11.7185V11.7214V11.7244V11.7273V11.7302V11.7331V11.736V11.7389V11.7418V11.7448V11.7477V11.7506V11.7535V11.7564V11.7594V11.7623V11.7652V11.7681V11.771V11.774V11.7769V11.7798V11.7827V11.7857V11.7886V11.7915V11.7944V11.7974V11.8003V11.8032V11.8062V11.8091V11.812V11.815V11.8179V11.8208V11.8238V11.8267V11.8296V11.8326V11.8355V11.8384V11.8414V11.8443V11.8472V11.8502V11.8531V11.8561V11.859V11.8619V11.8649V11.8678V11.8708V11.8737V11.8766V11.8796V11.8825V11.8855V11.8884V11.8914V11.8943V11.8973V11.9002V11.9032V11.9061V11.9091V11.912V11.915V11.9179V11.9209V11.9238V11.9268V11.9297V11.9327V11.9356V11.9386V11.9415V11.9445V11.9475V11.9504V11.9534V11.9563V11.9593V11.9623V11.9652V11.9682V11.9711V11.9741V11.9771V11.98V11.983V11.9859V11.9889V11.9919V11.9948V11.9978V12.0008V12.0037V12.0067V12.0097V12.0126V12.0156V12.0186V12.0215V12.0245V12.0275V12.0305V12.0334V12.0364V12.0394V12.0423V12.0453V12.0483V12.0513V12.0542V12.0572V12.0602V12.0632V12.0661V12.0691V12.0721V12.0751V12.078V12.081V12.084V12.087V12.09V12.0929V12.0959V12.0989V12.1019V12.1049V12.1078V12.1108V12.1138V12.1168V12.1198V12.1228V12.1257V12.1287V12.1317V12.1347V12.1377V12.1407V12.1437V12.1467V12.1496V12.1526V12.1556V12.1586V12.1616V12.1646V12.1676V12.1706V12.1736V12.1766V12.1795V12.1825V12.1855V12.1885V12.1915V12.1945V12.1975V12.2005V12.2035V12.2065V12.2095V12.2125V12.2155V12.2185V12.2215V12.2245V12.2275V12.2305V12.2335V12.2365V12.2395V12.2425V12.2455V12.2485V12.2515V12.2545V12.2575V12.2605V12.2635V12.2665V12.2695V12.2725V12.2755V12.2785V12.2815V12.2845V12.2875V12.2905V12.2935V12.2965V12.2995V12.3025V12.3055V12.3085V12.3116V12.3146V12.3176V12.3206V12.3236V12.3266V12.3296V12.3326V12.3356V12.3386V12.3416V12.3447V12.3477V12.3507V12.3537V12.3567V12.3597V12.3627V12.3657V12.3688V12.3718V12.3748V12.3778V12.3808V12.3838V12.3868V12.3899V12.3929V12.3959V12.3989V12.4019V12.4049V12.408V12.411V12.414V12.417V12.42V12.423V12.4261V12.4291V12.4321V12.4351V12.4381V12.4412V12.4442V12.4472V12.4502V12.4532V12.4563V12.4593V12.4623V12.4653V12.4683V12.4714V12.4744V12.4774V12.4804V12.4835V12.4865V12.4895V12.4925V12.4955V12.4986V12.5016V12.5046V12.5076V12.5107V12.5137V12.5167V12.5197V12.5228V12.5258V12.5288V12.5318V12.5349V12.5379V12.5409V12.544V12.547V12.55V12.553V12.5561V12.5591V12.5621V12.5651V12.5682V12.5712V12.5742V12.5773V12.5803V12.5833V12.5863V12.5894V12.5924V12.5954V12.5985V12.6015V12.6045V12.6076V12.6106V12.6136V12.6166V12.6197V12.6227V12.6257V12.6288V12.6318V12.6348V12.6379V12.6409V12.6439V12.647V12.65V12.653V12.6561V12.6591V12.6621V12.6652V12.6682V12.6712V12.6743V12.6773V12.6803V12.6834V12.6864V12.6894V12.6925V12.6955V12.6985V12.7016V12.7046V12.7076V12.7107V12.7137V12.7167V12.7198V12.7228V12.7258V12.7289V12.7319V12.7349V12.738V12.741V12.744V12.7471V12.7501V12.7532V12.7562V12.7592V12.7623V12.7653V12.7683V12.7714V12.7744V12.7774V12.7805V12.7835V12.7866V12.7896V12.7926V12.7957V12.7987V12.8017V12.8048V12.8078V12.8108V12.8139V12.8169V12.82V12.823V12.826V12.8291V12.8321V12.8351V12.8382V12.8412V12.8442V12.8473V12.8503V12.8534V12.8564V12.8594V12.8625V12.8655V12.8685V12.8716V12.8746V12.8777V12.8807V12.8837V12.8868V12.8898V12.8928V12.8959V12.8989V12.9019V12.905V12.908V12.9111V12.9141V12.9171V12.9202V12.9232V12.9262V12.9293V12.9323V12.9354V12.9384V12.9414V12.9445L221.609 12.9475L221.61 12.9592C221.625 13.5938 221.625 14.1987 221.625 14.8152V50.6099C221.625 51.2318 221.625 51.8328 221.61 52.4362L221.61 52.4362V52.4485V52.4518V52.455V52.4583V52.4615V52.4648V52.468V52.4713V52.4745V52.4778V52.481V52.4843V52.4875V52.4908V52.494V52.4972V52.5005V52.5037V52.507V52.5102V52.5134V52.5167V52.5199V52.5231V52.5264V52.5296V52.5328V52.5361V52.5393V52.5425V52.5457V52.549V52.5522V52.5554V52.5586V52.5619V52.5651V52.5683V52.5715V52.5747V52.578V52.5812V52.5844V52.5876V52.5908V52.594V52.5973V52.6005V52.6037V52.6069V52.6101V52.6133V52.6165V52.6197V52.6229V52.6261V52.6293V52.6325V52.6357V52.6389V52.6421V52.6453V52.6485V52.6517V52.6549V52.6581V52.6613V52.6645V52.6677V52.6709V52.6741V52.6773V52.6804V52.6836V52.6868V52.69V52.6932V52.6964V52.6996V52.7027V52.7059V52.7091V52.7123V52.7155V52.7186V52.7218V52.725V52.7282V52.7313V52.7345V52.7377V52.7409V52.744V52.7472V52.7504V52.7535V52.7567V52.7599V52.7631V52.7662V52.7694V52.7725V52.7757V52.7789V52.782V52.7852V52.7884V52.7915V52.7947V52.7978V52.801V52.8041V52.8073V52.8105V52.8136V52.8168V52.8199V52.8231V52.8262V52.8294V52.8325V52.8357V52.8388V52.842V52.8451V52.8483V52.8514V52.8546V52.8577V52.8609V52.864V52.8671V52.8703V52.8734V52.8766V52.8797V52.8828V52.886V52.8891V52.8923V52.8954V52.8985V52.9017V52.9048V52.9079V52.9111V52.9142V52.9173V52.9205V52.9236V52.9267V52.9298V52.933V52.9361V52.9392V52.9424V52.9455V52.9486V52.9517V52.9549V52.958V52.9611V52.9642V52.9673V52.9705V52.9736V52.9767V52.9798V52.9829V52.9861V52.9892V52.9923V52.9954V52.9985V53.0016V53.0048V53.0079V53.011V53.0141V53.0172V53.0203V53.0234V53.0265V53.0297V53.0328V53.0359V53.039V53.0421V53.0452V53.0483V53.0514V53.0545V53.0576V53.0607V53.0638V53.0669V53.07V53.0731V53.0762V53.0793V53.0824V53.0855V53.0886V53.0917V53.0948V53.0979V53.101V53.1041V53.1072V53.1103V53.1134V53.1165V53.1196V53.1227V53.1258V53.1289V53.132V53.1351V53.1382V53.1413V53.1444V53.1474V53.1505V53.1536V53.1567V53.1598V53.1629V53.166V53.1691V53.1722V53.1753V53.1783V53.1814V53.1845V53.1876V53.1907V53.1938V53.1968V53.1999V53.203V53.2061V53.2092V53.2123V53.2153V53.2184V53.2215V53.2246V53.2277V53.2307V53.2338V53.2369V53.24V53.2431V53.2461V53.2492V53.2523V53.2554V53.2584V53.2615V53.2646V53.2677V53.2707V53.2738V53.2769V53.28V53.283V53.2861V53.2892V53.2923V53.2953V53.2984V53.3015V53.3046V53.3076V53.3107V53.3138V53.3168V53.3199V53.323V53.326V53.3291V53.3322V53.3353V53.3383V53.3414V53.3445V53.3475V53.3506V53.3537V53.3567V53.3598V53.3629V53.3659V53.369V53.3721V53.3751V53.3782V53.3812V53.3843V53.3874V53.3904V53.3935V53.3966V53.3996V53.4027V53.4058V53.4088V53.4119V53.4149V53.418V53.4211V53.4241V53.4272V53.4303V53.4333V53.4364V53.4394V53.4425V53.4456V53.4486V53.4517V53.4547V53.4578V53.4609V53.4639V53.467V53.47V53.4731V53.4761V53.4792V53.4823V53.4853V53.4884V53.4914V53.4945V53.4976V53.5006V53.5037V53.5067V53.5098V53.5128V53.5159V53.519V53.522V53.5251V53.5281V53.5312V53.5342V53.5373V53.5403V53.5434V53.5465V53.5495V53.5526V53.5556V53.5587V53.5617V53.5648V53.5678V53.5709V53.574V53.577V53.5801V53.5831V53.5862V53.5892V53.5923V53.5953V53.5984V53.6014V53.6045V53.6076V53.6106V53.6137V53.6167V53.6198V53.6228V53.6259V53.6289V53.632V53.635V53.6381V53.6412V53.6442V53.6473V53.6503V53.6534V53.6564V53.6595V53.6625V53.6656V53.6686V53.6717V53.6747V53.6778V53.6809V53.6839V53.687V53.69V53.6931V53.6961V53.6992V53.7022V53.7053V53.7083V53.7114V53.7145V53.7175V53.7206V53.7236V53.7267V53.7297V53.7328V53.7358V53.7389V53.742V53.745V53.7481V53.7511V53.7542V53.7572V53.7603V53.7633V53.7664V53.7695V53.7725V53.7756V53.7786V53.7817V53.7847V53.7878V53.7908V53.7939V53.797V53.8V53.8031V53.8061V53.8092V53.8123V53.8153V53.8184V53.8214V53.8245V53.8275V53.8306V53.8337V53.8367V53.8398V53.8428V53.8459V53.849V53.852V53.8551V53.8581V53.8612V53.8643V53.8673V53.8704V53.8734V53.8765V53.8796V53.8826V53.8857V53.8888V53.8918V53.8949V53.8979V53.901V53.9041V53.9071V53.9102V53.9133V53.9163V53.9194V53.9225V53.9255V53.9286V53.9317V53.9347V53.9378V53.9409V53.9439V53.947V53.9501V53.9531V53.9562V53.9593V53.9623V53.9654V53.9685V53.9715V53.9746V53.9777V53.9808V53.9838V53.9869V53.99V53.993V53.9961V53.9992V54.0023V54.0053V54.0084V54.0115V54.0145V54.0176V54.0207V54.0238V54.0268V54.0299V54.033V54.034C221.588 55.0682 221.483 56.0996 221.297 57.1202L221.296 57.1234C221.131 58.061 220.808 58.9714 220.338 59.8224C219.87 60.6501 219.261 61.4075 218.531 62.0658L218.528 62.0694C217.799 62.7406 216.956 63.302 216.028 63.7311C215.085 64.1662 214.074 64.4699 213.03 64.6315C211.892 64.8006 210.742 64.8919 209.59 64.9046L209.584 64.9047C209.037 64.9166 208.465 64.9234 207.905 64.9234H205.869L14.9111 64.9217C14.3463 64.9217 13.7913 64.9216 13.2376 64.9031Z" fill="white" stroke="black"/>
<path d="M45.9988 32.5209C46.0197 31.0362 46.4528 29.5804 47.2575 28.2892C48.0623 26.9979 49.2126 25.913 50.6015 25.1355C49.7195 23.9881 48.5558 23.0437 47.203 22.3775C45.8502 21.7112 44.3454 21.3414 42.8082 21.2974C39.5294 20.9844 36.3501 23.0848 34.6788 23.0848C32.9755 23.0848 30.4028 21.3282 27.6329 21.3744C25.8409 21.4272 24.0945 21.902 22.5638 22.7523C21.0331 23.6027 19.7704 24.7997 18.8988 26.2267C15.1223 32.1822 17.9391 40.9359 21.5579 45.7489C23.3682 48.1058 25.4827 50.7397 28.2507 50.6457C30.9587 50.543 31.9708 49.0721 35.2403 49.0721C38.4797 49.0721 39.428 50.6457 42.2524 50.5858C45.1594 50.543 46.9903 48.2186 48.7368 45.8378C50.0373 44.1581 51.0381 42.3017 51.702 40.3373C50.0143 39.6876 48.5737 38.6002 47.5596 37.2103C46.5455 35.8205 46.0027 34.1896 45.9988 32.5209Z" fill="black"/>
<path d="M40.6591 18.1334C42.244 16.4007 43.0247 14.1734 42.8356 11.9248C40.4148 12.1567 38.1787 13.2107 36.5728 14.8769C35.7866 15.6919 35.1846 16.6402 34.8015 17.6674C34.4183 18.6946 34.2615 19.7807 34.34 20.8632C35.5514 20.8733 36.7496 20.6329 37.8442 20.1601C38.9388 19.6872 39.9013 18.9943 40.6591 18.1334Z" fill="black"/>
<path d="M78.4863 44.9232H69.6L67.4667 50.67H63.7109L72.1202 29.4238H76.0319L84.4524 50.67H80.6233L78.4863 44.9232ZM70.5183 42.2738H77.5642L74.0901 32.9575H73.9925L70.5183 42.2738Z" fill="black"/>
<path d="M102.636 42.9219C102.636 47.7331 99.8077 50.8255 95.5411 50.8255C94.46 50.8772 93.3847 50.6505 92.4385 50.1713C91.4923 49.6922 90.7134 48.98 90.191 48.1163H90.1102V55.7856H86.6211V35.1773H90.0013V37.7531H90.0652C90.6118 36.8939 91.4039 36.1857 92.3572 35.7038C93.3105 35.222 94.3894 34.9844 95.4792 35.0165C99.7927 35.0165 102.636 38.1226 102.636 42.9219ZM99.0491 42.9219C99.0491 39.7868 97.2707 37.7258 94.5552 37.7258C91.8886 37.7258 90.0952 39.8295 90.0952 42.9219C90.0952 46.0416 91.8886 48.1317 94.5552 48.1317C97.2688 48.1317 99.0491 46.0792 99.0491 42.9219Z" fill="black"/>
<path d="M121.353 42.9219C121.353 47.7331 118.525 50.8255 114.256 50.8255C113.176 50.8762 112.102 50.649 111.157 50.1699C110.212 49.6908 109.434 48.9791 108.912 48.1163H108.831V55.7856H105.344V35.1773H108.724V37.7531H108.788C109.334 36.8939 110.127 36.1857 111.08 35.7038C112.033 35.222 113.112 34.9844 114.202 35.0165C118.506 35.0165 121.353 38.1226 121.353 42.9219ZM117.764 42.9219C117.764 39.7868 115.986 37.7258 113.27 37.7258C110.604 37.7258 108.81 39.8295 108.81 42.9219C108.81 46.0416 110.604 48.1317 113.27 48.1317C115.984 48.1317 117.764 46.0792 117.764 42.9219Z" fill="black"/>
<path d="M133.716 44.7456C133.975 46.8511 136.221 48.2348 139.292 48.2348C142.233 48.2348 144.349 46.8511 144.349 44.9526C144.349 43.3038 143.072 42.3169 140.05 41.6396L137.029 40.976C132.747 40.0335 130.759 38.2103 130.759 35.2496C130.759 31.5843 134.265 29.0684 139.243 29.0684C144.172 29.0684 147.551 31.586 147.664 35.2496H144.141C143.93 33.1305 142.005 31.8511 139.194 31.8511C136.383 31.8511 134.46 33.1459 134.46 35.029C134.46 36.5307 135.688 37.415 138.695 38.0906L141.264 38.6652C146.049 39.6915 148.033 41.4463 148.033 44.5523C148.033 48.5255 144.559 51.0141 139.033 51.0141C133.861 51.0141 130.37 48.5837 130.145 44.7422L133.716 44.7456Z" fill="black"/>
<path d="M155.567 31.5137V35.179H158.801V37.6967H155.567V46.2331C155.567 47.5587 156.215 48.1778 157.633 48.1778C158.018 48.1718 158.402 48.1473 158.784 48.1043V50.6065C158.145 50.7153 157.496 50.7646 156.846 50.7536C153.404 50.7536 152.061 49.5769 152.061 46.5735V37.6949H149.59V35.1773H152.061V31.5137H155.567Z" fill="black"/>
<path d="M160.672 42.9217C160.672 38.0489 163.823 34.9873 168.736 34.9873C173.648 34.9873 176.801 38.0489 176.801 42.9217C176.801 47.7945 173.682 50.8561 168.736 50.8561C163.789 50.8561 160.672 47.8065 160.672 42.9217ZM173.254 42.9217C173.254 39.5796 171.564 37.6076 168.747 37.6076C165.93 37.6076 164.24 39.595 164.24 42.9217C164.24 46.2775 165.93 48.2341 168.747 48.2341C171.564 48.2341 173.254 46.2757 173.254 42.9217Z" fill="black"/>
<path d="M179.68 35.1769H183.007V37.8126H183.088C183.313 36.9892 183.843 36.2615 184.587 35.7519C185.332 35.2423 186.247 34.9819 187.178 35.0144C187.58 35.0129 187.982 35.0525 188.374 35.1325V38.1051C187.867 37.964 187.337 37.8993 186.806 37.9135C186.299 37.8948 185.794 37.9762 185.325 38.1521C184.855 38.3281 184.433 38.5944 184.088 38.9329C183.742 39.2713 183.481 39.6739 183.323 40.1129C183.164 40.5519 183.112 41.017 183.169 41.4762V50.6695H179.68V35.1769Z" fill="black"/>
<path d="M204.462 46.1147C203.992 48.9266 200.986 50.8542 197.138 50.8542C192.191 50.8542 189.121 47.8354 189.121 42.9865C189.121 38.1376 192.208 34.9785 196.99 34.9785C201.684 34.9785 204.651 37.9221 204.651 42.617V43.7065H192.642V43.8981C192.587 44.468 192.665 45.0421 192.872 45.5823C193.079 46.1224 193.41 46.6163 193.843 47.0311C194.276 47.4458 194.8 47.772 195.382 47.988C195.964 48.2039 196.589 48.3046 197.217 48.2835C198.041 48.3541 198.869 48.1803 199.577 47.788C200.284 47.3957 200.834 46.8058 201.143 46.1062L204.462 46.1147ZM192.665 41.4967H201.164C201.196 40.984 201.111 40.4707 200.915 39.9892C200.719 39.5077 200.415 39.0684 200.023 38.699C199.632 38.3295 199.16 38.0379 198.639 37.8423C198.117 37.6468 197.557 37.5517 196.993 37.5629C196.425 37.5597 195.861 37.6592 195.335 37.8557C194.808 38.0521 194.33 38.3416 193.927 38.7074C193.525 39.0732 193.206 39.508 192.989 39.9868C192.772 40.4656 192.661 40.9788 192.663 41.4967H192.665Z" fill="black"/>
<path d="M70.0859 13.4364C70.8184 13.3885 71.5534 13.4892 72.2378 13.7315C72.9222 13.9739 73.539 14.3516 74.0436 14.8375C74.5482 15.3234 74.9279 15.9054 75.1554 16.5413C75.3829 17.1772 75.4525 17.8512 75.3591 18.5145C75.3591 21.7745 73.4249 23.6456 70.0859 23.6456H66.0391V13.4364H70.0859ZM67.7836 22.1987H69.8963C70.4191 22.2272 70.9424 22.1491 71.4279 21.9702C71.9134 21.7913 72.3491 21.516 72.7031 21.1644C73.0571 20.8128 73.3206 20.3938 73.4743 19.9377C73.6281 19.4817 73.6683 19.0002 73.592 18.5282C73.6629 18.0581 73.6187 17.5795 73.4626 17.1268C73.3065 16.674 73.0424 16.2583 72.6892 15.9095C72.336 15.5606 71.9024 15.2873 71.4195 15.109C70.9367 14.9307 70.4165 14.8519 69.8963 14.8783H67.7836V22.1987Z" fill="black"/>
<path d="M77.3244 19.7871C77.2718 19.2813 77.3358 18.771 77.5123 18.289C77.6888 17.807 77.9739 17.3639 78.3493 16.9881C78.7247 16.6122 79.1821 16.312 79.6924 16.1065C80.2026 15.9011 80.7543 15.7949 81.3121 15.7949C81.87 15.7949 82.4217 15.9011 82.9319 16.1065C83.4421 16.312 83.8996 16.6122 84.275 16.9881C84.6504 17.3639 84.9355 17.807 85.112 18.289C85.2885 18.771 85.3525 19.2813 85.2999 19.7871C85.3553 20.2944 85.2935 20.8066 85.1183 21.2908C84.9432 21.7751 84.6586 22.2205 84.2829 22.5984C83.9072 22.9763 83.4488 23.2784 82.9371 23.4851C82.4254 23.6918 81.8719 23.7986 81.3121 23.7986C80.7524 23.7986 80.1988 23.6918 79.6872 23.4851C79.1755 23.2784 78.7171 22.9763 78.3414 22.5984C77.9657 22.2205 77.6811 21.7751 77.5059 21.2908C77.3308 20.8066 77.2689 20.2944 77.3244 19.7871ZM83.5835 19.7871C83.5835 18.1178 82.7609 17.1411 81.315 17.1411C79.869 17.1411 79.0483 18.1178 79.0483 19.7871C79.0483 21.4564 79.8652 22.4382 81.315 22.4382C82.7647 22.4382 83.5835 21.4632 83.5835 19.7871Z" fill="black"/>
<path d="M95.903 23.6459H94.1715L92.4232 17.9743H92.2918L90.5528 23.6459H88.8383L86.5078 15.9492H88.1979L89.7134 21.8261H89.8373L91.5763 15.9492H93.1781L94.9171 21.8261H95.0485L96.5508 15.9492H98.2203L95.903 23.6459Z" fill="black"/>
<path d="M100.185 15.9412H101.791V17.1641H101.915C102.127 16.7253 102.484 16.3577 102.937 16.1125C103.389 15.8673 103.914 15.7566 104.439 15.7958C104.85 15.7677 105.264 15.8242 105.648 15.9612C106.032 16.0982 106.378 16.3122 106.659 16.5873C106.94 16.8625 107.15 17.1917 107.272 17.5506C107.395 17.9095 107.427 18.2889 107.367 18.6607V23.6464H105.697V19.0387C105.697 17.8004 105.107 17.1864 103.872 17.1864C103.593 17.1746 103.314 17.2179 103.055 17.3134C102.795 17.409 102.562 17.5544 102.37 17.7397C102.178 17.9251 102.033 18.146 101.944 18.3873C101.854 18.6286 101.824 18.8847 101.853 19.1379V23.6464H100.184L100.185 15.9412Z" fill="black"/>
<path d="M110.027 12.9336H111.697V23.6456H110.027V12.9336Z" fill="black"/>
<path d="M114.015 19.7877C113.964 19.2825 114.029 18.7732 114.206 18.2922C114.383 17.8113 114.669 17.3693 115.044 16.9944C115.419 16.6196 115.876 16.3202 116.386 16.1154C116.896 15.9105 117.447 15.8047 118.004 15.8047C118.561 15.8047 119.111 15.9105 119.621 16.1154C120.131 16.3202 120.588 16.6196 120.963 16.9944C121.338 17.3693 121.624 17.8113 121.801 18.2922C121.978 18.7732 122.043 19.2825 121.992 19.7877C122.046 20.2944 121.983 20.8058 121.807 21.289C121.632 21.7722 121.347 22.2166 120.971 22.5936C120.595 22.9705 120.137 23.2718 119.626 23.4779C119.115 23.6841 118.562 23.7906 118.004 23.7906C117.445 23.7906 116.892 23.6841 116.381 23.4779C115.87 23.2718 115.412 22.9705 115.036 22.5936C114.66 22.2166 114.375 21.7722 114.2 21.289C114.024 20.8058 113.961 20.2944 114.015 19.7877ZM120.274 19.7877C120.274 18.1184 119.451 17.1417 118.005 17.1417C116.559 17.1417 115.739 18.1184 115.739 19.7877C115.739 21.457 116.556 22.4388 118.005 22.4388C119.455 22.4388 120.274 21.4639 120.274 19.7877Z" fill="black"/>
<path d="M123.746 21.4633C123.746 20.0762 124.873 19.2775 126.892 19.1646L129.183 19.0449V18.3795C129.183 17.5654 128.593 17.107 127.451 17.107C126.512 17.107 125.874 17.4183 125.69 17.9622H124.075C124.246 16.6401 125.611 15.79 127.53 15.79C129.65 15.79 130.846 16.7513 130.846 18.3778V23.6458H129.241V22.5631H129.109C128.841 22.9515 128.465 23.268 128.018 23.4805C127.572 23.6929 127.072 23.7937 126.569 23.7723C126.214 23.8058 125.855 23.7711 125.516 23.6706C125.176 23.5701 124.864 23.4059 124.599 23.1887C124.333 22.9715 124.121 22.706 123.975 22.4094C123.829 22.1129 123.753 21.7917 123.752 21.4668L123.746 21.4633ZM129.192 20.8066V20.1635L127.126 20.2832C125.962 20.355 125.436 20.7142 125.436 21.3932C125.436 22.0722 126.097 22.4896 127.004 22.4896C127.27 22.514 127.539 22.4894 127.794 22.4174C128.049 22.3454 128.286 22.2274 128.49 22.0704C128.694 21.9133 128.861 21.7206 128.982 21.5034C129.103 21.2863 129.174 21.0493 129.192 20.8066Z" fill="black"/>
<path d="M133.035 19.787C133.035 17.3532 134.408 15.8121 136.545 15.8121C137.073 15.7899 137.598 15.9052 138.057 16.1445C138.517 16.3837 138.891 16.7371 139.138 17.1633H139.262V12.9336H140.932V23.6456H139.33V22.4296H139.198C138.933 22.853 138.545 23.202 138.077 23.439C137.609 23.676 137.078 23.7918 136.543 23.7739C134.395 23.7688 133.035 22.2277 133.035 19.787ZM134.759 19.787C134.759 21.4205 135.604 22.4039 137.013 22.4039C138.421 22.4039 139.289 21.4068 139.289 19.7939C139.289 18.181 138.41 17.177 137.013 17.177C135.615 17.177 134.759 18.1673 134.759 19.787Z" fill="black"/>
<path d="M147.84 19.7871C147.787 19.2813 147.851 18.771 148.028 18.289C148.204 17.807 148.489 17.3639 148.865 16.9881C149.24 16.6122 149.698 16.312 150.208 16.1065C150.718 15.9011 151.27 15.7949 151.828 15.7949C152.386 15.7949 152.937 15.9011 153.448 16.1065C153.958 16.312 154.415 16.6122 154.791 16.9881C155.166 17.3639 155.451 17.807 155.628 18.289C155.804 18.771 155.868 19.2813 155.815 19.7871C155.871 20.2944 155.809 20.8066 155.634 21.2908C155.459 21.7751 155.174 22.2205 154.799 22.5984C154.423 22.9763 153.964 23.2784 153.453 23.4851C152.941 23.6918 152.388 23.7986 151.828 23.7986C151.268 23.7986 150.714 23.6918 150.203 23.4851C149.691 23.2784 149.233 22.9763 148.857 22.5984C148.481 22.2205 148.197 21.7751 148.022 21.2908C147.846 20.8066 147.785 20.2944 147.84 19.7871ZM154.099 19.7871C154.099 18.1178 153.277 17.1411 151.831 17.1411C150.385 17.1411 149.564 18.1178 149.564 19.7871C149.564 21.4564 150.381 22.4382 151.831 22.4382C153.28 22.4382 154.099 21.4632 154.099 19.7871Z" fill="black"/>
<path d="M158.053 15.9412H159.658V17.1641H159.782C159.994 16.7253 160.352 16.3577 160.804 16.1125C161.256 15.8673 161.781 15.7566 162.306 15.7958C162.718 15.7677 163.131 15.8242 163.515 15.9612C163.899 16.0982 164.245 16.3122 164.526 16.5873C164.807 16.8625 165.017 17.1917 165.139 17.5506C165.262 17.9095 165.294 18.2889 165.234 18.6607V23.6464H163.564V19.0387C163.564 17.8004 162.975 17.1864 161.739 17.1864C161.46 17.1746 161.181 17.2179 160.922 17.3134C160.663 17.409 160.429 17.5544 160.237 17.7397C160.046 17.9251 159.9 18.146 159.811 18.3873C159.722 18.6286 159.691 18.8847 159.72 19.1379V23.6464H158.051L158.053 15.9412Z" fill="black"/>
<path d="M174.665 14.0234V15.9767H176.497V17.2577H174.665V21.2173C174.665 22.0245 175.029 22.3769 175.861 22.3769C176.074 22.376 176.286 22.364 176.497 22.341V23.6066C176.198 23.6552 175.894 23.6809 175.59 23.6836C173.735 23.6836 172.995 23.0884 172.995 21.6038V17.256H171.652V15.975H172.995V14.0234H174.665Z" fill="black"/>
<path d="M178.77 12.9336H180.424V17.177H180.555C180.777 16.7334 181.144 16.3629 181.605 16.1159C182.067 15.8689 182.6 15.7575 183.134 15.7968C183.543 15.7763 183.953 15.8384 184.333 15.9787C184.713 16.119 185.054 16.334 185.332 16.6083C185.61 16.8826 185.819 17.2095 185.942 17.5656C186.066 17.9218 186.101 18.2984 186.046 18.6685V23.6456H184.375V19.0447C184.375 17.815 183.746 17.1924 182.567 17.1924C182.28 17.1709 181.991 17.2068 181.721 17.2976C181.451 17.3884 181.206 17.5318 181.003 17.7179C180.8 17.9039 180.644 18.1281 180.547 18.3747C180.449 18.6214 180.412 18.8845 180.437 19.1457V23.6456H178.77V12.9336Z" fill="black"/>
<path d="M195.786 21.5632C195.558 22.2661 195.066 22.8739 194.397 23.2803C193.727 23.6867 192.922 23.8659 192.122 23.7866C191.565 23.8001 191.011 23.703 190.499 23.502C189.988 23.301 189.53 23.001 189.158 22.6228C188.787 22.2446 188.51 21.7973 188.347 21.3118C188.184 20.8264 188.14 20.3145 188.216 19.8117C188.142 19.3073 188.187 18.7943 188.349 18.3074C188.512 17.8204 188.787 17.3709 189.157 16.9893C189.526 16.6077 189.982 16.3029 190.492 16.0955C191.002 15.8881 191.556 15.783 192.114 15.7872C194.467 15.7872 195.887 17.2513 195.887 19.6698V20.2H189.915V20.2855C189.889 20.5683 189.928 20.8529 190.03 21.1211C190.131 21.3893 190.294 21.6352 190.506 21.843C190.718 22.0507 190.976 22.2158 191.262 22.3275C191.548 22.4393 191.857 22.4953 192.169 22.4919C192.568 22.5355 192.972 22.47 193.33 22.3037C193.689 22.1374 193.984 21.8778 194.18 21.558L195.786 21.5632ZM189.915 19.0814H194.186C194.207 18.8229 194.169 18.5632 194.073 18.319C193.978 18.0747 193.827 17.8515 193.631 17.6634C193.435 17.4754 193.198 17.3269 192.935 17.2273C192.672 17.1278 192.389 17.0794 192.105 17.0854C191.816 17.0822 191.53 17.1316 191.262 17.2308C190.995 17.33 190.752 17.4769 190.548 17.663C190.344 17.849 190.183 18.0703 190.074 18.3139C189.966 18.5575 189.912 18.8185 189.915 19.0814Z" fill="black"/>
</g>
<defs>
<clipPath id="clip0_47496_419">
<rect width="221.439" height="65.4251" fill="white" transform="translate(0.691406)"/>
</clipPath>
</defs>
</svg>
