<svg width="222" height="66" viewBox="0 0 222 66" fill="none" xmlns="http://www.w3.org/2000/svg">
<g clip-path="url(#clip0)">
<path d="M213.237 0H8.20143C3.67191 0 0 3.66148 0 8.17813V57.2469C0 61.7636 3.67191 65.4251 8.20143 65.4251H213.237C217.767 65.4251 221.439 61.7636 221.439 57.2469V8.17813C221.439 3.66148 217.767 0 213.237 0Z" fill="black"/>
<path d="M77.7823 16.748C77.8093 17.3479 77.7142 17.9469 77.5027 18.5091C77.2913 19.0713 76.968 19.585 76.5521 20.0193C76.0862 20.499 75.5238 20.8752 74.902 21.1232C74.2801 21.3713 73.6127 21.4856 72.9435 21.4586C72.2704 21.4736 71.6014 21.3507 70.9779 21.0975C70.3544 20.8443 69.7896 20.4662 69.3185 19.9866C68.4673 19.1468 67.9367 18.0371 67.8182 16.8489C67.6997 15.6607 68.0008 14.4686 68.6695 13.478C69.3382 12.4875 70.3326 11.7608 71.4812 11.4231C72.6297 11.0855 73.8605 11.1581 74.9611 11.6285C75.5525 11.871 76.0801 12.2459 76.5029 12.7244L75.6336 13.5913C75.3078 13.2 74.8951 12.8898 74.4281 12.6854C73.9612 12.481 73.4528 12.3879 72.9435 12.4136C72.3006 12.4181 71.6685 12.5795 71.1025 12.8837C70.5366 13.188 70.054 13.6259 69.6969 14.159C69.3398 14.6922 69.1192 15.3045 69.0542 15.9424C68.9892 16.5802 69.0819 17.2243 69.3242 17.8182C69.5665 18.412 69.9509 18.9377 70.444 19.3492C70.937 19.7608 71.5237 20.0456 72.1526 20.1788C72.7815 20.3121 73.4336 20.2897 74.0519 20.1136C74.6701 19.9375 75.2357 19.6131 75.6992 19.1688C76.2002 18.621 76.4907 17.9141 76.5193 17.1733H72.9435V15.9957H77.7167C77.7541 16.2449 77.776 16.4961 77.7823 16.748Z" fill="white" stroke="white" stroke-width="0.124843" stroke-miterlimit="10"/>
<path d="M85.2941 12.6596H80.8654V15.7673H84.9005V16.9449H80.8654V20.0526H85.2941V21.263H79.5859V11.4492H85.2941V12.6596Z" fill="white" stroke="white" stroke-width="0.124843" stroke-miterlimit="10"/>
<path d="M90.6749 21.263H89.4119V12.6596H86.6562V11.4492H93.4962V12.6596H90.6749V21.263Z" fill="white" stroke="white" stroke-width="0.124843" stroke-miterlimit="10"/>
<path d="M98.3184 21.263V11.4492H99.5814V21.263H98.3184Z" fill="white" stroke="white" stroke-width="0.124843" stroke-miterlimit="10"/>
<path d="M105.191 21.263H103.928V12.6596H101.172V11.4492H107.93V12.6596H105.191V21.263Z" fill="white" stroke="white" stroke-width="0.124843" stroke-miterlimit="10"/>
<path d="M120.741 19.9866C120.267 20.4594 119.705 20.8345 119.085 21.0904C118.466 21.3463 117.803 21.478 117.132 21.478C116.462 21.478 115.798 21.3463 115.179 21.0904C114.56 20.8345 113.997 20.4594 113.524 19.9866C112.596 19.0037 112.08 17.705 112.08 16.3555C112.08 15.006 112.596 13.7074 113.524 12.7244C113.987 12.2383 114.548 11.8547 115.17 11.5983C115.791 11.3419 116.46 11.2185 117.132 11.236C117.804 11.2254 118.47 11.352 119.091 11.608C119.712 11.864 120.273 12.2439 120.741 12.7244C121.213 13.2028 121.583 13.7706 121.831 14.3943C122.079 15.0179 122.199 15.6848 122.184 16.3555C122.206 17.0271 122.089 17.6959 121.841 18.3205C121.592 18.9451 121.218 19.5122 120.741 19.9866ZM114.459 19.1688C114.808 19.5219 115.224 19.8023 115.683 19.9936C116.142 20.185 116.635 20.2835 117.132 20.2835C117.63 20.2835 118.122 20.185 118.581 19.9936C119.04 19.8023 119.457 19.5219 119.806 19.1688C120.514 18.4019 120.907 17.3978 120.907 16.3555C120.907 15.3133 120.514 14.3092 119.806 13.5422C119.457 13.1892 119.04 12.9088 118.581 12.7174C118.122 12.5261 117.63 12.4275 117.132 12.4275C116.635 12.4275 116.142 12.5261 115.683 12.7174C115.224 12.9088 114.808 13.1892 114.459 13.5422C113.751 14.3092 113.358 15.3133 113.358 16.3555C113.358 17.3978 113.751 18.4019 114.459 19.1688Z" fill="white" stroke="white" stroke-width="0.124843" stroke-miterlimit="10"/>
<path d="M123.973 21.263V11.4492H125.498L130.288 19.0876V11.4492H131.551V21.263H130.239L125.236 13.2648V21.263H123.973Z" fill="white" stroke="white" stroke-width="0.124843" stroke-miterlimit="10"/>
<path d="M111.769 35.5745C110.387 35.5778 109.037 35.9896 107.889 36.7579C106.742 37.5262 105.849 38.6165 105.323 39.891C104.797 41.1654 104.662 42.5667 104.935 43.9177C105.208 45.2686 105.876 46.5086 106.856 47.4808C107.835 48.453 109.082 49.1137 110.438 49.3793C111.794 49.645 113.199 49.5037 114.474 48.9734C115.75 48.443 116.839 47.5474 117.604 46.3998C118.369 45.2521 118.776 43.904 118.773 42.5259C118.786 41.6066 118.614 40.694 118.266 39.8424C117.919 38.9909 117.403 38.2178 116.749 37.5692C116.096 36.9206 115.318 36.4097 114.462 36.0671C113.607 35.7244 112.691 35.5569 111.769 35.5745ZM111.769 46.7459C110.922 46.8049 110.076 46.6085 109.343 46.1822C108.609 45.7559 108.021 45.1193 107.655 44.3553C107.289 43.5913 107.162 42.7351 107.29 41.8981C107.419 41.0611 107.797 40.282 108.375 39.662C108.953 39.0421 109.705 38.6099 110.533 38.4218C111.361 38.2337 112.227 38.2982 113.017 38.6071C113.808 38.916 114.487 39.4549 114.966 40.1538C115.446 40.8527 115.703 41.6792 115.705 42.5259C115.732 43.0624 115.65 43.5988 115.466 44.1034C115.281 44.6079 114.997 45.0705 114.63 45.4638C114.263 45.8571 113.821 46.1732 113.329 46.3934C112.838 46.6136 112.307 46.7334 111.769 46.7459ZM96.4813 35.5745C95.0993 35.5778 93.7492 35.9896 92.6019 36.7579C91.4546 37.5262 90.5616 38.6165 90.0357 39.891C89.5098 41.1654 89.3748 42.5667 89.6476 43.9177C89.9204 45.2686 90.5888 46.5086 91.5683 47.4808C92.5478 48.453 93.7945 49.1137 95.1506 49.3793C96.5067 49.645 97.9113 49.5037 99.1869 48.9734C100.462 48.443 101.552 47.5474 102.317 46.3998C103.082 45.2521 103.489 43.904 103.485 42.5259C103.499 41.6066 103.326 40.694 102.979 39.8424C102.631 38.9909 102.115 38.2178 101.462 37.5692C100.808 36.9206 100.03 36.4097 99.1748 36.0671C98.3192 35.7244 97.4032 35.5569 96.4813 35.5745ZM96.4813 46.7459C95.6342 46.8049 94.7889 46.6085 94.0552 46.1822C93.3216 45.7559 92.7335 45.1193 92.3675 44.3553C92.0014 43.5913 91.8744 42.7351 92.0028 41.8981C92.1312 41.0611 92.5091 40.282 93.0875 39.662C93.6658 39.0421 94.4178 38.6099 95.2458 38.4218C96.0737 38.2337 96.9392 38.2982 97.7298 38.6071C98.5205 38.916 99.1996 39.4549 99.679 40.1538C100.158 40.8527 100.416 41.6792 100.418 42.5259C100.444 43.0624 100.363 43.5988 100.178 44.1034C99.9933 44.6079 99.7091 45.0705 99.3422 45.4638C98.9753 45.8571 98.5331 46.1732 98.0418 46.3934C97.5504 46.6136 97.0198 46.7334 96.4813 46.7459ZM78.3069 37.7172V40.6613H85.3929C85.2818 42.048 84.7038 43.3565 83.7527 44.3742C83.0418 45.0963 82.1869 45.6617 81.2432 46.0336C80.2995 46.4055 79.288 46.5757 78.2741 46.5332C76.186 46.5332 74.1833 45.7061 72.7068 44.2337C71.2302 42.7614 70.4007 40.7644 70.4007 38.6822C70.4007 36.6 71.2302 34.6031 72.7068 33.1307C74.1833 31.6584 76.186 30.8312 78.2741 30.8312C80.276 30.8015 82.209 31.5596 83.6542 32.9412L85.7374 30.8639C84.7598 29.8997 83.599 29.1398 82.3231 28.6286C81.0472 28.1175 79.6818 27.8654 78.3069 27.8871C76.8487 27.8305 75.394 28.068 74.0301 28.5855C72.6661 29.1029 71.4209 29.8895 70.3692 30.8983C69.3174 31.9071 68.4807 33.1172 67.9091 34.4561C67.3376 35.795 67.043 37.2352 67.043 38.6904C67.043 40.1456 67.3376 41.5858 67.9091 42.9247C68.4807 44.2636 69.3174 45.4737 70.3692 46.4825C71.4209 47.4913 72.6661 48.2779 74.0301 48.7953C75.394 49.3128 76.8487 49.5503 78.3069 49.4937C79.71 49.5496 81.1092 49.3089 82.4124 48.7874C83.7156 48.2659 84.8935 47.4754 85.8686 46.4678C87.5911 44.581 88.5089 42.0993 88.4275 39.5491C88.4333 38.9353 88.3839 38.3222 88.2798 37.7172H78.3069ZM152.628 40.0071C152.125 38.5276 151.099 37.2815 149.741 36.502C148.383 35.7224 146.787 35.4626 145.252 35.7713C143.716 36.08 142.345 36.936 141.397 38.1792C140.448 39.4224 139.986 40.9676 140.097 42.5259C140.082 44.019 140.553 45.4766 141.438 46.6809C142.324 47.8852 143.576 48.7716 145.008 49.2077C146.44 49.6438 147.975 49.6063 149.384 49.1007C150.793 48.5951 152 47.6485 152.825 46.4024L150.447 44.7667C150.092 45.356 149.589 45.8427 148.988 46.1783C148.387 46.514 147.708 46.6871 147.019 46.6804C146.308 46.7097 145.604 46.5238 145.001 46.1473C144.398 45.7707 143.924 45.221 143.64 44.5705L152.973 40.7268L152.628 40.0071ZM143.115 42.3297C143.081 41.8216 143.15 41.312 143.317 40.8308C143.484 40.3496 143.745 39.9063 144.086 39.5271C144.426 39.1478 144.839 38.8401 145.301 38.622C145.762 38.4039 146.262 38.2798 146.772 38.257C147.301 38.2248 147.827 38.3489 148.285 38.6136C148.743 38.8784 149.113 39.2721 149.348 39.7454L143.115 42.3297ZM135.536 49.0684H138.604V28.6231H135.536V49.0684ZM130.517 37.1284H130.402C129.944 36.608 129.379 36.1925 128.745 35.9102C128.11 35.6279 127.423 35.4855 126.728 35.4927C124.936 35.5794 123.245 36.3505 122.007 37.6462C120.769 38.9419 120.079 40.6628 120.079 42.4523C120.079 44.2419 120.769 45.9628 122.007 47.2585C123.245 48.5542 124.936 49.3252 126.728 49.4119C127.424 49.4258 128.114 49.2864 128.749 49.0037C129.384 48.721 129.948 48.3018 130.402 47.7763H130.517V48.774C130.517 51.4401 129.09 52.8631 126.794 52.8631C126.027 52.8463 125.282 52.6025 124.654 52.1628C124.026 51.7231 123.543 51.1072 123.267 50.3933L120.61 51.4892C121.101 52.7196 121.955 53.7723 123.059 54.5083C124.164 55.2442 125.466 55.6287 126.794 55.611C130.386 55.611 133.355 53.501 133.355 48.3651V35.9834H130.517V37.1284ZM126.991 46.7459C125.916 46.679 124.907 46.2062 124.17 45.4237C123.432 44.6412 123.022 43.6079 123.022 42.5341C123.022 41.4604 123.432 40.427 124.17 39.6445C124.907 38.862 125.916 38.3892 126.991 38.3224C127.516 38.345 128.031 38.4727 128.506 38.698C128.981 38.9232 129.405 39.2414 129.754 39.6336C130.103 40.0258 130.369 40.484 130.537 40.9809C130.705 41.4777 130.771 42.0032 130.73 42.5259C130.775 43.0505 130.713 43.5786 130.547 44.0784C130.381 44.5782 130.116 45.0393 129.766 45.4337C129.416 45.8282 128.99 46.1479 128.513 46.3734C128.036 46.5989 127.518 46.7256 126.991 46.7459ZM166.997 28.6231H159.649V49.0684H162.716V41.3156H166.997C167.871 41.3782 168.749 41.2606 169.576 40.97C170.402 40.6795 171.16 40.2222 171.802 39.6268C172.443 39.0314 172.955 38.3105 173.305 37.5092C173.655 36.7079 173.835 35.8433 173.835 34.9693C173.835 34.0954 173.655 33.2308 173.305 32.4295C172.955 31.6282 172.443 30.9073 171.802 30.3119C171.16 29.7165 170.402 29.2592 169.576 28.9687C168.749 28.6781 167.871 28.5605 166.997 28.6231ZM166.997 38.4369H162.716V31.4691H167.063C167.994 31.4691 168.887 31.8379 169.545 32.4943C170.203 33.1507 170.573 34.041 170.573 34.9693C170.573 35.8977 170.203 36.788 169.545 37.4444C168.887 38.1008 167.994 38.4696 167.063 38.4696L166.997 38.4369ZM185.926 35.5091C184.809 35.4404 183.696 35.6997 182.726 36.255C181.755 36.8102 180.968 37.637 180.464 38.6331L183.17 39.7617C183.444 39.2701 183.854 38.8679 184.352 38.6038C184.85 38.3396 185.414 38.2249 185.975 38.2733C186.365 38.228 186.759 38.2604 187.136 38.3687C187.513 38.477 187.864 38.6591 188.169 38.9042C188.475 39.1493 188.728 39.4526 188.915 39.7964C189.101 40.1403 189.217 40.5177 189.256 40.9067V41.1029C188.27 40.586 187.172 40.3165 186.057 40.3178C183.138 40.3178 180.152 41.9535 180.152 44.9303C180.181 45.563 180.337 46.1835 180.611 46.7549C180.885 47.3263 181.272 47.837 181.748 48.2565C182.224 48.6761 182.779 48.996 183.381 49.1973C183.984 49.3986 184.62 49.4772 185.254 49.4283C186.023 49.4707 186.79 49.3083 187.476 48.9577C188.163 48.607 188.743 48.0807 189.157 47.4328H189.256V49.0684H192.208V41.2011C192.208 37.6191 189.486 35.5418 185.992 35.5418L185.926 35.5091ZM185.549 46.7131C184.548 46.7131 183.154 46.2061 183.154 44.9794C183.154 43.3438 184.893 42.7876 186.435 42.7876C187.409 42.7637 188.372 43.0009 189.223 43.4746C189.12 44.3629 188.698 45.1838 188.034 45.7853C187.371 46.3868 186.511 46.728 185.614 46.7459L185.549 46.7131ZM202.969 35.9834L199.458 44.8485H199.36L195.719 35.9834H192.438L197.9 48.3815L194.784 55.2675H197.982L206.38 35.9834H202.969ZM175.412 49.0684H178.463V28.6231H175.412V49.0684Z" fill="white"/>
<path d="M17.1246 12.3498C16.8508 12.6767 16.6459 13.0551 16.5219 13.4625C16.3979 13.87 16.3574 14.2981 16.4028 14.7215V50.8689C16.347 51.7036 16.6241 52.5266 17.1738 53.1587L17.2886 53.2732L37.5461 32.9587V32.4681L17.2394 12.2354L17.1246 12.3498Z" fill="white"/>
<path d="M44.2873 39.6968L37.5293 32.958V32.4673L44.2873 25.7285L44.4513 25.8103L52.4887 30.3573C54.7687 31.6495 54.7687 33.7758 52.4887 35.0679L44.4677 39.615L44.2873 39.6968Z" fill="white"/>
<path d="M44.4686 39.6152L37.5466 32.7129L17.125 53.0764C17.589 53.4884 18.1838 53.7241 18.8048 53.7421C19.4258 53.76 20.0333 53.5591 20.5204 53.1746L44.4686 39.6152Z" fill="white"/>
<path d="M44.4686 25.8106L20.5204 12.2512C20.0333 11.8667 19.4258 11.6658 18.8048 11.6837C18.1838 11.7017 17.589 11.9374 17.125 12.3494L37.5466 32.7129L44.4686 25.8106Z" fill="white"/>
</g>
<defs>
<clipPath id="clip0">
<rect width="221.439" height="65.4251" fill="white"/>
</clipPath>
</defs>
</svg>
