<svg width="223" height="66" viewBox="0 0 223 66" fill="none" xmlns="http://www.w3.org/2000/svg">
<g clip-path="url(#clip0)">
<path d="M14.913 65.4215C14.3496 65.4215 13.7863 65.4215 13.2229 65.4027C12.047 65.3888 10.8739 65.2956 9.71308 65.1239C8.62759 64.9532 7.57623 64.6355 6.59388 64.1815C5.62067 63.734 4.73294 63.1467 3.96482 62.4421C3.19152 61.7475 2.54772 60.9428 2.05875 60.0595C1.56187 59.1678 1.21798 58.212 1.03904 57.2254C0.845535 56.1652 0.740697 55.0932 0.725434 54.0185C0.714167 53.6576 0.697266 52.4569 0.697266 52.4569V12.9457C0.697266 12.9457 0.714167 11.7638 0.725434 11.4149C0.74005 10.342 0.844262 9.2716 1.03717 8.21308C1.2169 7.22425 1.5614 6.26623 2.05875 5.37215C2.54799 4.48548 3.19168 3.67684 3.96482 2.97763C4.7358 2.27726 5.62222 1.69094 6.59201 1.2399C7.56972 0.789884 8.61613 0.476235 9.69618 0.309455C10.8609 0.133093 12.0385 0.0364721 13.2191 0.0204024L14.9092 -0.00012207H207.903L209.618 0.0221128C210.787 0.0350348 211.953 0.128229 213.107 0.300903C214.198 0.469748 215.256 0.785639 216.245 1.23819C218.194 2.15303 219.78 3.60034 220.78 5.37728C221.269 6.2659 221.608 7.21679 221.785 8.19768C221.98 9.26483 222.089 10.3435 222.112 11.4252C222.112 11.9092 222.112 12.4291 222.112 12.9474C222.127 13.5888 222.127 14.1994 222.127 14.8151V50.6097C222.127 51.2306 222.127 51.8378 222.112 52.4484C222.112 53.0042 222.112 53.5139 222.112 54.039C222.09 55.1018 221.982 56.1616 221.79 57.2101C221.615 58.2039 221.273 59.1672 220.776 60.0664C220.281 60.943 219.637 61.7431 218.868 62.4369C218.101 63.1445 217.213 63.7347 216.239 64.1849C215.253 64.64 214.197 64.9571 213.107 65.1256C211.946 65.2982 210.773 65.3914 209.597 65.4044C209.047 65.4164 208.47 65.4232 207.907 65.4232H205.871L14.913 65.4215Z" fill="white"/>
<path d="M46.0027 32.5209C46.0236 31.0362 46.4567 29.5804 47.2614 28.2892C48.0662 26.9979 49.2165 25.913 50.6054 25.1355C49.7234 23.9881 48.5597 23.0437 47.2069 22.3775C45.8541 21.7112 44.3493 21.3414 42.8121 21.2974C39.5333 20.9844 36.354 23.0848 34.6827 23.0848C32.9794 23.0848 30.4067 21.3282 27.6368 21.3744C25.8448 21.4272 24.0984 21.902 22.5677 22.7523C21.037 23.6027 19.7744 24.7997 18.9027 26.2267C15.1262 32.1822 17.9431 40.9359 21.5618 45.7489C23.3721 48.1058 25.4866 50.7397 28.2546 50.6457C30.9626 50.543 31.9748 49.0721 35.2442 49.0721C38.4836 49.0721 39.4319 50.6457 42.2563 50.5858C45.1633 50.543 46.9942 48.2186 48.7407 45.8378C50.0412 44.1581 51.042 42.3017 51.7059 40.3373C50.0182 39.6876 48.5776 38.6002 47.5635 37.2103C46.5494 35.8205 46.0066 34.1896 46.0027 32.5209Z" fill="black"/>
<path d="M40.6631 18.1332C42.2479 16.4004 43.0286 14.1732 42.8395 11.9246C40.4187 12.1564 38.1826 13.2105 36.5767 14.8767C35.7905 15.6916 35.1885 16.6399 34.8054 17.6672C34.4222 18.6944 34.2654 19.7804 34.3439 20.863C35.5553 20.8731 36.7535 20.6327 37.8481 20.1598C38.9427 19.687 39.9052 18.994 40.6631 18.1332Z" fill="black"/>
<path d="M78.4902 44.9228H69.604L67.4707 50.6697H63.7148L72.1241 29.4235H76.0358L84.4563 50.6697H80.6273L78.4902 44.9228ZM70.5222 42.2735H77.5681L74.094 32.9571H73.9964L70.5222 42.2735Z" fill="black"/>
<path d="M102.638 42.9218C102.638 47.733 99.8097 50.8254 95.5431 50.8254C94.4619 50.8771 93.3867 50.6503 92.4404 50.1712C91.4942 49.692 90.7153 48.9798 90.1929 48.1161H90.1122V55.7854H86.623V35.1772H90.0033V37.753H90.0671C90.6137 36.8938 91.4058 36.1856 92.3592 35.7037C93.3125 35.2218 94.3914 34.9843 95.4811 35.0164C99.7947 35.0164 102.638 38.1225 102.638 42.9218ZM99.051 42.9218C99.051 39.7866 97.2726 37.7256 94.5572 37.7256C91.8906 37.7256 90.0972 39.8294 90.0972 42.9218C90.0972 46.0415 91.8906 48.1315 94.5572 48.1315C97.2708 48.1315 99.051 46.0791 99.051 42.9218Z" fill="black"/>
<path d="M121.353 42.9218C121.353 47.733 118.525 50.8254 114.256 50.8254C113.176 50.8761 112.102 50.6489 111.157 50.1698C110.212 49.6907 109.434 48.979 108.912 48.1161H108.831V55.7854H105.344V35.1772H108.724V37.753H108.788C109.334 36.8938 110.127 36.1856 111.08 35.7037C112.033 35.2218 113.112 34.9843 114.202 35.0164C118.506 35.0164 121.353 38.1225 121.353 42.9218ZM117.764 42.9218C117.764 39.7866 115.986 37.7256 113.27 37.7256C110.604 37.7256 108.81 39.8294 108.81 42.9218C108.81 46.0415 110.604 48.1315 113.27 48.1315C115.984 48.1315 117.764 46.0791 117.764 42.9218Z" fill="black"/>
<path d="M133.718 44.745C133.977 46.8505 136.223 48.2342 139.294 48.2342C142.235 48.2342 144.351 46.8505 144.351 44.952C144.351 43.3032 143.074 42.3163 140.052 41.639L137.031 40.9753C132.749 40.0329 130.761 38.2097 130.761 35.249C130.761 31.5837 134.267 29.0677 139.245 29.0677C144.174 29.0677 147.553 31.5854 147.665 35.249H144.143C143.932 33.1299 142.007 31.8505 139.196 31.8505C136.385 31.8505 134.462 33.1453 134.462 35.0284C134.462 36.5301 135.69 37.4144 138.697 38.09L141.266 38.6646C146.05 39.6909 148.035 41.4457 148.035 44.5517C148.035 48.5249 144.561 51.0135 139.035 51.0135C133.863 51.0135 130.372 48.5831 130.146 44.7416L133.718 44.745Z" fill="black"/>
<path d="M155.571 31.5138V35.1791H158.805V37.6968H155.571V46.2332C155.571 47.5588 156.219 48.1779 157.637 48.1779C158.022 48.1719 158.406 48.1474 158.788 48.1044V50.6067C158.149 50.7154 157.5 50.7647 156.85 50.7537C153.408 50.7537 152.065 49.577 152.065 46.5736V37.6951H149.594V35.1774H152.065V31.5138H155.571Z" fill="black"/>
<path d="M160.674 42.922C160.674 38.0491 163.825 34.9875 168.738 34.9875C173.65 34.9875 176.803 38.0491 176.803 42.922C176.803 47.7948 173.684 50.8564 168.738 50.8564C163.791 50.8564 160.674 47.8068 160.674 42.922ZM173.256 42.922C173.256 39.5799 171.566 37.6078 168.749 37.6078C165.932 37.6078 164.242 39.5953 164.242 42.922C164.242 46.2777 165.932 48.2344 168.749 48.2344C171.566 48.2344 173.256 46.276 173.256 42.922Z" fill="black"/>
<path d="M179.68 35.1773H183.007V37.813H183.088C183.313 36.9896 183.843 36.2619 184.587 35.7523C185.332 35.2426 186.247 34.9822 187.178 35.0148C187.58 35.0133 187.982 35.0529 188.374 35.1328V38.1054C187.867 37.9644 187.337 37.8997 186.806 37.9139C186.299 37.8951 185.794 37.9765 185.325 38.1525C184.855 38.3284 184.433 38.5948 184.088 38.9332C183.742 39.2717 183.481 39.6743 183.323 40.1133C183.164 40.5523 183.112 41.0174 183.169 41.4766V50.6698H179.68V35.1773Z" fill="black"/>
<path d="M204.466 46.115C203.996 48.9268 200.99 50.8544 197.142 50.8544C192.195 50.8544 189.125 47.8356 189.125 42.9867C189.125 38.1378 192.212 34.9788 196.993 34.9788C201.688 34.9788 204.655 37.9223 204.655 42.6173V43.7068H192.646V43.8983C192.591 44.4682 192.669 45.0423 192.876 45.5825C193.083 46.1227 193.414 46.6165 193.847 47.0313C194.279 47.4461 194.804 47.7723 195.386 47.9882C195.967 48.2041 196.593 48.3049 197.221 48.2837C198.045 48.3543 198.873 48.1806 199.58 47.7882C200.288 47.3959 200.838 46.8061 201.147 46.1064L204.466 46.115ZM192.669 41.497H201.168C201.2 40.9842 201.115 40.4709 200.919 39.9895C200.723 39.508 200.419 39.0687 200.027 38.6992C199.636 38.3298 199.164 38.0381 198.643 37.8426C198.121 37.6471 197.561 37.5519 196.997 37.5631C196.428 37.56 195.865 37.6595 195.338 37.8559C194.812 38.0524 194.334 38.3419 193.931 38.7076C193.529 39.0734 193.21 39.5083 192.993 39.987C192.775 40.4658 192.665 40.979 192.667 41.497H192.669Z" fill="black"/>
<path d="M70.0879 13.4367C70.8203 13.3887 71.5553 13.4895 72.2397 13.7318C72.9242 13.9741 73.541 14.3518 74.0455 14.8378C74.5501 15.3237 74.9299 15.9056 75.1574 16.5415C75.3849 17.1774 75.4544 17.8514 75.361 18.5148C75.361 21.7747 73.4268 23.6459 70.0879 23.6459H66.041V13.4367H70.0879ZM67.7856 22.1989H69.8982C70.4211 22.2274 70.9443 22.1494 71.4298 21.9704C71.9154 21.7915 72.351 21.5162 72.705 21.1647C73.0591 20.8131 73.3225 20.394 73.4763 19.938C73.6301 19.4819 73.6703 19.0004 73.5939 18.5285C73.6648 18.0583 73.6206 17.5797 73.4646 17.127C73.3085 16.6742 73.0444 16.2586 72.6911 15.9097C72.3379 15.5609 71.9043 15.2875 71.4215 15.1092C70.9386 14.931 70.4184 14.8522 69.8982 14.8785H67.7856V22.1989Z" fill="black"/>
<path d="M77.3283 19.7871C77.2757 19.2813 77.3397 18.771 77.5162 18.289C77.6927 17.807 77.9778 17.3639 78.3532 16.9881C78.7286 16.6122 79.186 16.312 79.6963 16.1065C80.2065 15.9011 80.7582 15.7949 81.316 15.7949C81.8739 15.7949 82.4256 15.9011 82.9358 16.1065C83.446 16.312 83.9035 16.6122 84.2789 16.9881C84.6543 17.3639 84.9394 17.807 85.1159 18.289C85.2924 18.771 85.3564 19.2813 85.3038 19.7871C85.3592 20.2944 85.2974 20.8066 85.1222 21.2908C84.9471 21.7751 84.6625 22.2205 84.2868 22.5984C83.9111 22.9763 83.4527 23.2784 82.941 23.4851C82.4293 23.6918 81.8758 23.7986 81.316 23.7986C80.7563 23.7986 80.2027 23.6918 79.6911 23.4851C79.1794 23.2784 78.721 22.9763 78.3453 22.5984C77.9696 22.2205 77.685 21.7751 77.5099 21.2908C77.3347 20.8066 77.2729 20.2944 77.3283 19.7871ZM83.5874 19.7871C83.5874 18.1178 82.7648 17.1411 81.3189 17.1411C79.8729 17.1411 79.0522 18.1178 79.0522 19.7871C79.0522 21.4564 79.8691 22.4382 81.3189 22.4382C82.7686 22.4382 83.5874 21.4632 83.5874 19.7871Z" fill="black"/>
<path d="M95.9049 23.6459H94.1735L92.4252 17.9743H92.2937L90.5548 23.6459H88.8402L86.5098 15.9492H88.1999L89.7153 21.8261H89.8393L91.5782 15.9492H93.1801L94.919 21.8261H95.0505L96.5528 15.9492H98.2223L95.9049 23.6459Z" fill="black"/>
<path d="M100.187 15.9407H101.793V17.1636H101.917C102.129 16.7249 102.486 16.3573 102.939 16.112C103.391 15.8668 103.916 15.7561 104.441 15.7953C104.852 15.7672 105.266 15.8237 105.65 15.9607C106.034 16.0977 106.38 16.3117 106.661 16.5869C106.942 16.862 107.152 17.1912 107.274 17.5501C107.397 17.909 107.429 18.2884 107.369 18.6602V23.6459H105.699V19.0382C105.699 17.7999 105.109 17.1859 103.874 17.1859C103.594 17.1741 103.316 17.2174 103.056 17.313C102.797 17.4085 102.564 17.5539 102.372 17.7392C102.18 17.9246 102.035 18.1455 101.946 18.3868C101.856 18.6281 101.825 18.8842 101.855 19.1374V23.6459H100.186L100.187 15.9407Z" fill="black"/>
<path d="M110.027 12.9336H111.697V23.6456H110.027V12.9336Z" fill="black"/>
<path d="M114.015 19.7873C113.964 19.2821 114.029 18.7728 114.206 18.2919C114.383 17.8109 114.669 17.3689 115.044 16.9941C115.419 16.6192 115.876 16.3198 116.386 16.115C116.896 15.9101 117.447 15.8043 118.004 15.8043C118.561 15.8043 119.111 15.9101 119.621 16.115C120.131 16.3198 120.588 16.6192 120.963 16.9941C121.338 17.3689 121.624 17.8109 121.801 18.2919C121.978 18.7728 122.043 19.2821 121.992 19.7873C122.046 20.294 121.983 20.8054 121.807 21.2886C121.632 21.7718 121.347 22.2162 120.971 22.5932C120.595 22.9702 120.137 23.2714 119.626 23.4775C119.115 23.6837 118.562 23.7902 118.004 23.7902C117.445 23.7902 116.892 23.6837 116.381 23.4775C115.87 23.2714 115.412 22.9702 115.036 22.5932C114.66 22.2162 114.375 21.7718 114.2 21.2886C114.024 20.8054 113.961 20.294 114.015 19.7873ZM120.274 19.7873C120.274 18.118 119.451 17.1414 118.005 17.1414C116.559 17.1414 115.739 18.118 115.739 19.7873C115.739 21.4566 116.556 22.4384 118.005 22.4384C119.455 22.4384 120.274 21.4635 120.274 19.7873Z" fill="black"/>
<path d="M123.748 21.4633C123.748 20.0762 124.875 19.2775 126.894 19.1646L129.185 19.0449V18.3795C129.185 17.5654 128.595 17.107 127.453 17.107C126.514 17.107 125.876 17.4183 125.692 17.9622H124.077C124.248 16.6401 125.613 15.79 127.532 15.79C129.652 15.79 130.848 16.7513 130.848 18.3778V23.6458H129.243V22.5631H129.111C128.843 22.9515 128.467 23.268 128.02 23.4805C127.574 23.6929 127.074 23.7937 126.571 23.7723C126.216 23.8058 125.857 23.7711 125.518 23.6706C125.178 23.5701 124.866 23.4059 124.601 23.1887C124.335 22.9715 124.123 22.706 123.977 22.4094C123.831 22.1129 123.755 21.7917 123.754 21.4668L123.748 21.4633ZM129.194 20.8066V20.1635L127.128 20.2832C125.964 20.355 125.438 20.7142 125.438 21.3932C125.438 22.0722 126.099 22.4896 127.006 22.4896C127.272 22.514 127.541 22.4894 127.796 22.4174C128.051 22.3454 128.288 22.2274 128.492 22.0704C128.696 21.9133 128.863 21.7206 128.984 21.5034C129.104 21.2863 129.176 21.0493 129.194 20.8066Z" fill="black"/>
<path d="M133.039 19.787C133.039 17.3532 134.412 15.8121 136.549 15.8121C137.077 15.7899 137.602 15.9052 138.061 16.1445C138.52 16.3837 138.895 16.7371 139.142 17.1633H139.266V12.9336H140.936V23.6456H139.334V22.4296H139.202C138.936 22.853 138.549 23.202 138.08 23.439C137.612 23.676 137.082 23.7918 136.547 23.7739C134.399 23.7688 133.039 22.2277 133.039 19.787ZM134.763 19.787C134.763 21.4205 135.608 22.4039 137.016 22.4039C138.425 22.4039 139.292 21.4068 139.292 19.7939C139.292 18.181 138.414 17.177 137.016 17.177C135.619 17.177 134.763 18.1673 134.763 19.787Z" fill="black"/>
<path d="M147.84 19.7871C147.787 19.2813 147.851 18.771 148.028 18.289C148.204 17.807 148.489 17.3639 148.865 16.9881C149.24 16.6122 149.698 16.312 150.208 16.1065C150.718 15.9011 151.27 15.7949 151.828 15.7949C152.386 15.7949 152.937 15.9011 153.448 16.1065C153.958 16.312 154.415 16.6122 154.791 16.9881C155.166 17.3639 155.451 17.807 155.628 18.289C155.804 18.771 155.868 19.2813 155.815 19.7871C155.871 20.2944 155.809 20.8066 155.634 21.2908C155.459 21.7751 155.174 22.2205 154.799 22.5984C154.423 22.9763 153.964 23.2784 153.453 23.4851C152.941 23.6918 152.388 23.7986 151.828 23.7986C151.268 23.7986 150.714 23.6918 150.203 23.4851C149.691 23.2784 149.233 22.9763 148.857 22.5984C148.481 22.2205 148.197 21.7751 148.022 21.2908C147.846 20.8066 147.785 20.2944 147.84 19.7871ZM154.099 19.7871C154.099 18.1178 153.277 17.1411 151.831 17.1411C150.385 17.1411 149.564 18.1178 149.564 19.7871C149.564 21.4564 150.381 22.4382 151.831 22.4382C153.28 22.4382 154.099 21.4632 154.099 19.7871Z" fill="black"/>
<path d="M158.055 15.9407H159.66V17.1636H159.784C159.996 16.7249 160.354 16.3573 160.806 16.112C161.258 15.8668 161.783 15.7561 162.308 15.7953C162.72 15.7672 163.133 15.8237 163.517 15.9607C163.901 16.0977 164.247 16.3117 164.528 16.5869C164.809 16.862 165.019 17.1912 165.141 17.5501C165.264 17.909 165.296 18.2884 165.236 18.6602V23.6459H163.566V19.0382C163.566 17.7999 162.977 17.1859 161.741 17.1859C161.462 17.1741 161.183 17.2174 160.924 17.313C160.664 17.4085 160.431 17.5539 160.239 17.7392C160.048 17.9246 159.902 18.1455 159.813 18.3868C159.724 18.6281 159.693 18.8842 159.722 19.1374V23.6459H158.053L158.055 15.9407Z" fill="black"/>
<path d="M174.666 14.0232V15.9764H176.499V17.2575H174.666V21.217C174.666 22.0243 175.031 22.3766 175.863 22.3766C176.075 22.3758 176.288 22.3638 176.499 22.3407V23.6064C176.2 23.655 175.896 23.6807 175.592 23.6834C173.737 23.6834 172.997 23.0882 172.997 21.6036V17.2558H171.654V15.9747H172.997V14.0232H174.666Z" fill="black"/>
<path d="M178.77 12.9336H180.424V17.177H180.555C180.777 16.7334 181.144 16.3629 181.605 16.1159C182.067 15.8689 182.6 15.7575 183.134 15.7968C183.543 15.7763 183.953 15.8384 184.333 15.9787C184.713 16.119 185.054 16.334 185.332 16.6083C185.61 16.8826 185.819 17.2095 185.942 17.5656C186.066 17.9218 186.101 18.2984 186.046 18.6685V23.6456H184.375V19.0447C184.375 17.815 183.746 17.1924 182.567 17.1924C182.28 17.1709 181.991 17.2068 181.721 17.2976C181.451 17.3884 181.206 17.5318 181.003 17.7179C180.8 17.9039 180.644 18.1281 180.547 18.3747C180.449 18.6214 180.412 18.8845 180.437 19.1457V23.6456H178.77V12.9336Z" fill="black"/>
<path d="M195.786 21.5627C195.558 22.2656 195.066 22.8734 194.397 23.2798C193.727 23.6862 192.922 23.8654 192.122 23.7861C191.565 23.7996 191.011 23.7025 190.499 23.5015C189.988 23.3005 189.53 23.0005 189.158 22.6223C188.787 22.2441 188.51 21.7968 188.347 21.3113C188.184 20.8259 188.14 20.314 188.216 19.8112C188.142 19.3069 188.187 18.7938 188.349 18.3069C188.512 17.8199 188.787 17.3704 189.157 16.9888C189.526 16.6072 189.982 16.3024 190.492 16.095C191.002 15.8876 191.556 15.7825 192.114 15.7867C194.467 15.7867 195.887 17.2508 195.887 19.6693V20.1995H189.915V20.285C189.889 20.5678 189.928 20.8524 190.03 21.1206C190.131 21.3888 190.294 21.6347 190.506 21.8425C190.718 22.0502 190.976 22.2153 191.262 22.3271C191.548 22.4388 191.857 22.4948 192.169 22.4914C192.568 22.535 192.972 22.4695 193.33 22.3032C193.689 22.1369 193.984 21.8773 194.18 21.5575L195.786 21.5627ZM189.915 19.0809H194.186C194.207 18.8224 194.169 18.5627 194.073 18.3185C193.978 18.0743 193.827 17.851 193.631 17.663C193.435 17.4749 193.198 17.3264 192.935 17.2268C192.672 17.1273 192.389 17.0789 192.105 17.0849C191.816 17.0817 191.53 17.1311 191.262 17.2303C190.995 17.3295 190.752 17.4765 190.548 17.6625C190.344 17.8485 190.183 18.0698 190.074 18.3134C189.966 18.557 189.912 18.818 189.915 19.0809Z" fill="black"/>
</g>
<defs>
<clipPath id="clip0">
<rect width="221.439" height="65.4251" fill="white" transform="translate(0.693359)"/>
</clipPath>
</defs>
</svg>
