<svg width="222" height="66" viewBox="0 0 222 66" fill="none" xmlns="http://www.w3.org/2000/svg">
<g clip-path="url(#clip0)">
<path d="M213.237 0.000366211H8.20143C3.67191 0.000366211 0 3.66184 0 8.1785V57.2473C0 61.764 3.67191 65.4254 8.20143 65.4254H213.237C217.767 65.4254 221.439 61.764 221.439 57.2473V8.1785C221.439 3.66184 217.767 0.000366211 213.237 0.000366211Z" fill="white"/>
<path d="M77.7823 16.7483C77.8093 17.3481 77.7142 17.9472 77.5027 18.5094C77.2913 19.0716 76.968 19.5853 76.5521 20.0195C76.0862 20.4993 75.5238 20.8755 74.902 21.1235C74.2801 21.3715 73.6127 21.4858 72.9435 21.4589C72.2704 21.4738 71.6014 21.3509 70.9779 21.0977C70.3544 20.8445 69.7896 20.4664 69.3185 19.9868C68.4673 19.147 67.9367 18.0373 67.8182 16.8491C67.6997 15.661 68.0008 14.4688 68.6695 13.4783C69.3382 12.4878 70.3326 11.761 71.4812 11.4234C72.6297 11.0857 73.8605 11.1584 74.9611 11.6288C75.5525 11.8712 76.0801 12.2462 76.5029 12.7246L75.6336 13.5915C75.3078 13.2002 74.8951 12.8901 74.4281 12.6856C73.9612 12.4812 73.4528 12.3882 72.9435 12.4139C72.3006 12.4183 71.6685 12.5797 71.1025 12.884C70.5366 13.1882 70.054 13.6261 69.6969 14.1593C69.3398 14.6925 69.1192 15.3048 69.0542 15.9426C68.9892 16.5805 69.0819 17.2245 69.3242 17.8184C69.5665 18.4123 69.9509 18.938 70.444 19.3495C70.937 19.761 71.5237 20.0458 72.1526 20.1791C72.7815 20.3123 73.4336 20.2899 74.0519 20.1139C74.6701 19.9378 75.2357 19.6134 75.6992 19.169C76.2002 18.6212 76.4907 17.9144 76.5193 17.1735H72.9435V15.9959H77.7167C77.7541 16.2451 77.776 16.4964 77.7823 16.7483Z" fill="black" stroke="white" stroke-width="0.124843" stroke-miterlimit="10"/>
<path d="M85.2941 12.6598H80.8654V15.7675H84.9005V16.9452H80.8654V20.0529H85.2941V21.2632H79.5859V11.4495H85.2941V12.6598Z" fill="black" stroke="white" stroke-width="0.124843" stroke-miterlimit="10"/>
<path d="M90.6749 21.2632H89.4119V12.6598H86.6562V11.4495H93.4962V12.6598H90.6749V21.2632Z" fill="black" stroke="white" stroke-width="0.124843" stroke-miterlimit="10"/>
<path d="M98.3184 21.2632V11.4495H99.5814V21.2632H98.3184Z" fill="black" stroke="white" stroke-width="0.124843" stroke-miterlimit="10"/>
<path d="M105.191 21.2632H103.928V12.6598H101.172V11.4495H107.93V12.6598H105.191V21.2632Z" fill="black" stroke="white" stroke-width="0.124843" stroke-miterlimit="10"/>
<path d="M120.741 19.9873C120.267 20.4601 119.705 20.8352 119.085 21.0911C118.466 21.347 117.803 21.4787 117.132 21.4787C116.462 21.4787 115.798 21.347 115.179 21.0911C114.56 20.8352 113.997 20.4601 113.524 19.9873C112.596 19.0044 112.08 17.7058 112.08 16.3563C112.08 15.0068 112.596 13.7081 113.524 12.7252C113.987 12.2391 114.548 11.8554 115.17 11.599C115.791 11.3426 116.46 11.2192 117.132 11.2367C117.804 11.2262 118.47 11.3527 119.091 11.6087C119.712 11.8647 120.273 12.2446 120.741 12.7252C121.213 13.2036 121.583 13.7714 121.831 14.395C122.079 15.0187 122.199 15.6856 122.184 16.3563C122.206 17.0278 122.089 17.6966 121.841 18.3212C121.592 18.9458 121.218 19.5129 120.741 19.9873ZM114.459 19.1695C114.808 19.5226 115.224 19.803 115.683 19.9944C116.142 20.1857 116.635 20.2843 117.132 20.2843C117.63 20.2843 118.122 20.1857 118.581 19.9944C119.04 19.803 119.457 19.5226 119.806 19.1695C120.514 18.4026 120.907 17.3985 120.907 16.3563C120.907 15.314 120.514 14.3099 119.806 13.543C119.457 13.1899 119.04 12.9095 118.581 12.7182C118.122 12.5268 117.63 12.4283 117.132 12.4283C116.635 12.4283 116.142 12.5268 115.683 12.7182C115.224 12.9095 114.808 13.1899 114.459 13.543C113.751 14.3099 113.358 15.314 113.358 16.3563C113.358 17.3985 113.751 18.4026 114.459 19.1695Z" fill="black" stroke="white" stroke-width="0.124843" stroke-miterlimit="10"/>
<path d="M123.973 21.2632V11.4495H125.498L130.288 19.0878V11.4495H131.551V21.2632H130.239L125.236 13.265V21.2632H123.973Z" fill="black" stroke="white" stroke-width="0.124843" stroke-miterlimit="10"/>
<path d="M111.769 35.5747C110.387 35.5779 109.037 35.9897 107.889 36.758C106.742 37.5263 105.849 38.6166 105.323 39.8911C104.797 41.1655 104.662 42.5668 104.935 43.9178C105.208 45.2688 105.876 46.5087 106.856 47.4809C107.835 48.4531 109.082 49.1138 110.438 49.3795C111.794 49.6451 113.199 49.5039 114.474 48.9735C115.75 48.4431 116.839 47.5475 117.604 46.3999C118.369 45.2523 118.776 43.9042 118.773 42.5261C118.786 41.6067 118.614 40.6941 118.266 39.8426C117.919 38.991 117.403 38.2179 116.749 37.5693C116.096 36.9207 115.318 36.4099 114.462 36.0672C113.607 35.7245 112.691 35.557 111.769 35.5747ZM111.769 46.746C110.922 46.8051 110.076 46.6087 109.343 46.1823C108.609 45.756 108.021 45.1194 107.655 44.3554C107.289 43.5914 107.162 42.7352 107.29 41.8982C107.419 41.0612 107.797 40.2821 108.375 39.6621C108.953 39.0422 109.705 38.61 110.533 38.4219C111.361 38.2338 112.227 38.2984 113.017 38.6072C113.808 38.9161 114.487 39.455 114.966 40.1539C115.446 40.8528 115.703 41.6793 115.705 42.5261C115.732 43.0626 115.65 43.5989 115.466 44.1035C115.281 44.6081 114.997 45.0706 114.63 45.4639C114.263 45.8572 113.821 46.1733 113.329 46.3935C112.838 46.6137 112.307 46.7335 111.769 46.746ZM96.4813 35.5747C95.0993 35.5779 93.7492 35.9897 92.6019 36.758C91.4546 37.5263 90.5616 38.6166 90.0357 39.8911C89.5098 41.1655 89.3748 42.5668 89.6476 43.9178C89.9204 45.2688 90.5888 46.5087 91.5683 47.4809C92.5478 48.4531 93.7945 49.1138 95.1506 49.3795C96.5067 49.6451 97.9113 49.5039 99.1869 48.9735C100.462 48.4431 101.552 47.5475 102.317 46.3999C103.082 45.2523 103.489 43.9042 103.485 42.5261C103.499 41.6067 103.326 40.6941 102.979 39.8426C102.631 38.991 102.115 38.2179 101.462 37.5693C100.808 36.9207 100.03 36.4099 99.1748 36.0672C98.3192 35.7245 97.4032 35.557 96.4813 35.5747ZM96.4813 46.746C95.6342 46.8051 94.7889 46.6087 94.0552 46.1823C93.3216 45.756 92.7335 45.1194 92.3675 44.3554C92.0014 43.5914 91.8744 42.7352 92.0028 41.8982C92.1312 41.0612 92.5091 40.2821 93.0875 39.6621C93.6658 39.0422 94.4178 38.61 95.2458 38.4219C96.0737 38.2338 96.9392 38.2984 97.7298 38.6072C98.5205 38.9161 99.1996 39.455 99.679 40.1539C100.158 40.8528 100.416 41.6793 100.418 42.5261C100.444 43.0626 100.363 43.5989 100.178 44.1035C99.9933 44.6081 99.7091 45.0706 99.3422 45.4639C98.9753 45.8572 98.5331 46.1733 98.0418 46.3935C97.5504 46.6137 97.0198 46.7335 96.4813 46.746ZM78.3069 37.7173V40.6614H85.3929C85.2818 42.0481 84.7038 43.3566 83.7527 44.3743C83.0418 45.0965 82.1869 45.6618 81.2432 46.0337C80.2995 46.4056 79.288 46.5758 78.2741 46.5333C76.186 46.5333 74.1833 45.7062 72.7068 44.2338C71.2302 42.7615 70.4007 40.7646 70.4007 38.6823C70.4007 36.6001 71.2302 34.6032 72.7068 33.1308C74.1833 31.6585 76.186 30.8313 78.2741 30.8313C80.276 30.8016 82.209 31.5597 83.6542 32.9413L85.7374 30.864C84.7598 29.8999 83.599 29.1399 82.3231 28.6288C81.0472 28.1176 79.6818 27.8655 78.3069 27.8872C76.8487 27.8306 75.394 28.0682 74.0301 28.5856C72.6661 29.103 71.4209 29.8897 70.3692 30.8984C69.3174 31.9072 68.4807 33.1173 67.9091 34.4562C67.3376 35.7951 67.043 37.2353 67.043 38.6905C67.043 40.1457 67.3376 41.5859 67.9091 42.9248C68.4807 44.2638 69.3174 45.4739 70.3692 46.4826C71.4209 47.4914 72.6661 48.278 74.0301 48.7955C75.394 49.3129 76.8487 49.5504 78.3069 49.4938C79.71 49.5497 81.1092 49.309 82.4124 48.7875C83.7156 48.266 84.8935 47.4755 85.8686 46.4679C87.5911 44.5811 88.5089 42.0995 88.4275 39.5492C88.4333 38.9354 88.3839 38.3223 88.2798 37.7173H78.3069ZM152.628 40.0072C152.125 38.5277 151.099 37.2817 149.741 36.5021C148.383 35.7225 146.787 35.4627 145.252 35.7714C143.716 36.0801 142.345 36.9361 141.397 38.1793C140.448 39.4225 139.986 40.9677 140.097 42.5261C140.082 44.0191 140.553 45.4767 141.438 46.681C142.324 47.8853 143.576 48.7717 145.008 49.2078C146.44 49.644 147.975 49.6064 149.384 49.1008C150.793 48.5952 152 47.6486 152.825 46.4025L150.447 44.7669C150.092 45.3562 149.589 45.8428 148.988 46.1785C148.387 46.5141 147.708 46.6872 147.019 46.6806C146.308 46.7098 145.604 46.524 145.001 46.1474C144.398 45.7708 143.924 45.2211 143.64 44.5706L152.973 40.7269L152.628 40.0072ZM143.115 42.3298C143.081 41.8217 143.15 41.3122 143.317 40.8309C143.484 40.3497 143.745 39.9065 144.086 39.5272C144.426 39.1479 144.839 38.8402 145.301 38.6221C145.762 38.404 146.262 38.2799 146.772 38.2571C147.301 38.2249 147.827 38.349 148.285 38.6138C148.743 38.8785 149.113 39.2722 149.348 39.7455L143.115 42.3298ZM135.536 49.0686H138.604V28.6232H135.536V49.0686ZM130.517 37.1285H130.402C129.944 36.6081 129.379 36.1926 128.745 35.9103C128.11 35.628 127.423 35.4856 126.728 35.4929C124.936 35.5795 123.245 36.3506 122.007 37.6463C120.769 38.942 120.079 40.6629 120.079 42.4525C120.079 44.242 120.769 45.9629 122.007 47.2586C123.245 48.5543 124.936 49.3254 126.728 49.412C127.424 49.426 128.114 49.2866 128.749 49.0038C129.384 48.7211 129.948 48.302 130.402 47.7764H130.517V48.7742C130.517 51.4402 129.09 52.8632 126.794 52.8632C126.027 52.8464 125.282 52.6027 124.654 52.1629C124.026 51.7232 123.543 51.1073 123.267 50.3934L120.61 51.4893C121.101 52.7197 121.955 53.7724 123.059 54.5084C124.164 55.2444 125.466 55.6289 126.794 55.6111C130.386 55.6111 133.355 53.5011 133.355 48.3652V35.9836H130.517V37.1285ZM126.991 46.746C125.916 46.6792 124.907 46.2064 124.17 45.4238C123.432 44.6413 123.022 43.608 123.022 42.5342C123.022 41.4605 123.432 40.4272 124.17 39.6446C124.907 38.8621 125.916 38.3893 126.991 38.3225C127.516 38.3451 128.031 38.4728 128.506 38.6981C128.981 38.9234 129.405 39.2416 129.754 39.6337C130.103 40.0259 130.369 40.4841 130.537 40.981C130.705 41.4779 130.771 42.0033 130.73 42.5261C130.775 43.0506 130.713 43.5787 130.547 44.0785C130.381 44.5783 130.116 45.0394 129.766 45.4339C129.416 45.8283 128.99 46.148 128.513 46.3735C128.036 46.599 127.518 46.7258 126.991 46.746ZM166.997 28.6232H159.649V49.0686H162.716V41.3157H166.997C167.871 41.3783 168.749 41.2607 169.576 40.9701C170.402 40.6796 171.16 40.2223 171.802 39.6269C172.443 39.0315 172.955 38.3106 173.305 37.5093C173.655 36.708 173.835 35.8434 173.835 34.9695C173.835 34.0955 173.655 33.2309 173.305 32.4296C172.955 31.6283 172.443 30.9075 171.802 30.312C171.16 29.7166 170.402 29.2594 169.576 28.9688C168.749 28.6782 167.871 28.5606 166.997 28.6232ZM166.997 38.437H162.716V31.4692H167.063C167.994 31.4692 168.887 31.838 169.545 32.4944C170.203 33.1508 170.573 34.0411 170.573 34.9695C170.573 35.8978 170.203 36.7881 169.545 37.4445C168.887 38.1009 167.994 38.4697 167.063 38.4697L166.997 38.437ZM185.926 35.5092C184.809 35.4405 183.696 35.6999 182.726 36.2551C181.755 36.8103 180.968 37.6371 180.464 38.6333L183.17 39.7619C183.444 39.2702 183.854 38.868 184.352 38.6039C184.85 38.3397 185.414 38.225 185.975 38.2734C186.365 38.2281 186.759 38.2605 187.136 38.3688C187.513 38.4771 187.864 38.6592 188.169 38.9043C188.475 39.1494 188.728 39.4528 188.915 39.7966C189.101 40.1404 189.217 40.5178 189.256 40.9068V41.1031C188.27 40.5861 187.172 40.3166 186.057 40.318C183.138 40.318 180.152 41.9536 180.152 44.9304C180.181 45.5632 180.337 46.1837 180.611 46.7551C180.885 47.3265 181.272 47.8371 181.748 48.2567C182.224 48.6762 182.779 48.9962 183.381 49.1975C183.984 49.3987 184.62 49.4773 185.254 49.4284C186.023 49.4709 186.79 49.3084 187.476 48.9578C188.163 48.6071 188.743 48.0809 189.157 47.4329H189.256V49.0686H192.208V41.2012C192.208 37.6192 189.486 35.5419 185.992 35.5419L185.926 35.5092ZM185.549 46.7133C184.548 46.7133 183.154 46.2062 183.154 44.9795C183.154 43.3439 184.893 42.7878 186.435 42.7878C187.409 42.7638 188.372 43.001 189.223 43.4747C189.12 44.363 188.698 45.1839 188.034 45.7854C187.371 46.3869 186.511 46.7282 185.614 46.746L185.549 46.7133ZM202.969 35.9836L199.458 44.8486H199.36L195.719 35.9836H192.438L197.9 48.3816L194.784 55.2676H197.982L206.38 35.9836H202.969ZM175.412 49.0686H178.463V28.6232H175.412V49.0686Z" fill="black"/>
<path d="M17.1246 12.3496C16.8508 12.6764 16.6459 13.0548 16.5219 13.4623C16.3979 13.8697 16.3574 14.2979 16.4028 14.7213V50.8686C16.347 51.7034 16.6241 52.5264 17.1738 53.1585L17.2886 53.273L37.5461 32.9585V32.4678L17.2394 12.2351L17.1246 12.3496Z" fill="black"/>
<path d="M44.2873 39.6973L37.5293 32.9585V32.4678L44.2873 25.729L44.4513 25.8108L52.4887 30.3578C54.7687 31.65 54.7687 33.7763 52.4887 35.0684L44.4677 39.6155L44.2873 39.6973Z" fill="black"/>
<path d="M44.4686 39.6154L37.5466 32.713L17.125 53.0766C17.589 53.4886 18.1838 53.7243 18.8048 53.7422C19.4258 53.7602 20.0333 53.5592 20.5204 53.1747L44.4686 39.6154Z" fill="black"/>
<path d="M44.4686 25.8107L20.5204 12.2514C20.0333 11.8668 19.4258 11.6659 18.8048 11.6838C18.1838 11.7018 17.589 11.9375 17.125 12.3495L37.5466 32.7131L44.4686 25.8107Z" fill="black"/>
</g>
<defs>
<clipPath id="clip0">
<rect width="221.439" height="65.4251" fill="white" transform="translate(0 0.000366211)"/>
</clipPath>
</defs>
</svg>
