<svg width="130" height="22" viewBox="0 0 130 22" fill="none" xmlns="http://www.w3.org/2000/svg">
  <g clip-path="url(#clip0)">
    <path d="M11.8369 16.5618L5.12607 19.9768L6.62465 13.1192L0.9776 8.37216L8.61515 7.54869L11.8369 1.19971L15.0586 7.54869L22.6961 8.37216L17.0491 13.1192L18.5477 19.9768L11.8369 16.5618Z" fill="gold"/>
  </g>
  <g clip-path="url(#clip1)">
    <path d="M38.8247 16.5618L32.1139 19.9768L33.6124 13.1192L27.9654 8.37216L35.6029 7.54869L38.8247 1.19971L42.0464 7.54869L49.6839 8.37216L44.0369 13.1192L45.5355 19.9768L38.8247 16.5618Z" fill="gold"/>
  </g>
  <g clip-path="url(#clip2)">
    <path d="M64.7736 16.5618L58.6729 19.9768L60.0352 13.1192L54.9016 8.37216L61.8448 7.54869L64.7736 1.19971L67.7025 7.54869L74.6457 8.37216L69.512 13.1192L70.8744 19.9768L64.7736 16.5618Z" fill="gold"/>
  </g>
  <g clip-path="url(#clip3)">
    <path d="M90.7235 16.5618L84.0127 19.9768L85.5112 13.1192L79.8642 8.37216L87.5017 7.54869L90.7235 1.19971L93.9452 7.54869L101.583 8.37216L95.9357 13.1192L97.4343 19.9768L90.7235 16.5618Z" fill="gold"/>
  </g>
  <path d="M117.71 14.717L121.092 16.6908L120.173 13.0071L123.182 10.5433L119.233 10.2403L117.71 6.74366V14.717ZM117.71 17.4069L110.653 21.5267L112.572 13.838L106.293 8.69683L114.535 8.06567L117.71 0.76709L120.886 8.06567L129.129 8.69683L122.849 13.838L124.767 21.5267L117.71 17.4069Z" fill="gold"/>
  <defs>
    <clipPath id="clip0">
      <rect width="22.8356" height="20.7596" fill="red" transform="translate(0.418945 0.76709)"/>
    </clipPath>
    <clipPath id="clip1">
      <rect width="22.8356" height="20.7596" fill="white" transform="translate(27.407 0.76709)"/>
    </clipPath>
    <clipPath id="clip2">
      <rect width="20.7596" height="20.7596" fill="white" transform="translate(54.3937 0.76709)"/>
    </clipPath>
    <clipPath id="clip3">
      <rect width="22.8356" height="20.7596" fill="white" transform="translate(79.3051 0.76709)"/>
    </clipPath>
  </defs>
</svg>
